<svg width="44" height="44" viewBox="0 0 44 44" fill="none" xmlns="http://www.w3.org/2000/svg">
<circle cx="22" cy="22" r="21.5" stroke="#202021"/>
<path d="M31.5 13C31.5 12.7239 31.2761 12.5 31 12.5L26.5 12.5C26.2239 12.5 26 12.7239 26 13C26 13.2761 26.2239 13.5 26.5 13.5L30.5 13.5L30.5 17.5C30.5 17.7761 30.7239 18 31 18C31.2761 18 31.5 17.7761 31.5 17.5L31.5 13ZM14.3536 30.3536L15.2036 29.5036L14.4964 28.7964L13.6464 29.6464L14.3536 30.3536ZM18.6036 26.1036L23.7036 21.0036L22.9964 20.2964L17.8964 25.3964L18.6036 26.1036ZM30.5036 14.2036L31.3536 13.3536L30.6464 12.6464L29.7964 13.4964L30.5036 14.2036ZM32 13C32 12.4477 31.5523 12 31 12L22 12C21.4477 12 21 12.4477 21 13C21 13.5523 21.4477 14 22 14L30 14L30 22C30 22.5523 30.4477 23 31 23C31.5523 23 32 22.5523 32 22L32 13ZM14.7071 30.7071L15.5571 29.8571L14.1429 28.4429L13.2929 29.2929L14.7071 30.7071ZM18.9571 26.4571L24.0571 21.3571L22.6429 19.9429L17.5429 25.0429L18.9571 26.4571ZM30.8571 14.5571L31.7071 13.7071L30.2929 12.2929L29.4429 13.1429L30.8571 14.5571Z" fill="#202021"/>
</svg>
