<svg width="1441" height="429" viewBox="0 0 1441 429" fill="none" xmlns="http://www.w3.org/2000/svg">
<line x1="0.5" y1="1" x2="0.500019" y2="429" stroke="white" stroke-opacity="0.15"/>
<line x1="51.9285" y1="1" x2="51.9285" y2="429" stroke="white" stroke-opacity="0.15"/>
<line x1="103.357" y1="1" x2="103.357" y2="429" stroke="white" stroke-opacity="0.15"/>
<line x1="154.786" y1="1" x2="154.786" y2="429" stroke="white" stroke-opacity="0.15"/>
<line x1="206.214" y1="1" x2="206.214" y2="429" stroke="white" stroke-opacity="0.15"/>
<line x1="257.643" y1="1" x2="257.643" y2="429" stroke="white" stroke-opacity="0.15"/>
<line x1="309.072" y1="1" x2="309.072" y2="429" stroke="white" stroke-opacity="0.15"/>
<line x1="360.5" y1="1" x2="360.5" y2="429" stroke="white" stroke-opacity="0.15"/>
<line x1="411.928" y1="1" x2="411.928" y2="429" stroke="white" stroke-opacity="0.15"/>
<line x1="463.357" y1="1" x2="463.357" y2="429" stroke="white" stroke-opacity="0.15"/>
<line x1="514.786" y1="1" x2="514.786" y2="429" stroke="white" stroke-opacity="0.15"/>
<line x1="566.214" y1="1" x2="566.214" y2="429" stroke="white" stroke-opacity="0.15"/>
<line x1="617.643" y1="1" x2="617.643" y2="429" stroke="white" stroke-opacity="0.15"/>
<line x1="669.071" y1="1" x2="669.071" y2="429" stroke="white" stroke-opacity="0.15"/>
<line x1="720.5" y1="1" x2="720.5" y2="429" stroke="white" stroke-opacity="0.15"/>
<line x1="771.929" y1="1" x2="771.929" y2="429" stroke="white" stroke-opacity="0.15"/>
<line x1="823.357" y1="1" x2="823.357" y2="429" stroke="white" stroke-opacity="0.15"/>
<line x1="874.786" y1="1" x2="874.786" y2="429" stroke="white" stroke-opacity="0.15"/>
<line x1="926.214" y1="1" x2="926.214" y2="429" stroke="white" stroke-opacity="0.15"/>
<line x1="977.643" y1="1" x2="977.643" y2="429" stroke="white" stroke-opacity="0.15"/>
<line x1="1029.07" y1="1" x2="1029.07" y2="429" stroke="white" stroke-opacity="0.15"/>
<line x1="1080.5" y1="1" x2="1080.5" y2="429" stroke="white" stroke-opacity="0.15"/>
<line x1="1131.93" y1="1" x2="1131.93" y2="429" stroke="white" stroke-opacity="0.15"/>
<line x1="1183.36" y1="1" x2="1183.36" y2="429" stroke="white" stroke-opacity="0.15"/>
<line x1="1234.79" y1="1" x2="1234.79" y2="429" stroke="white" stroke-opacity="0.15"/>
<line x1="1286.21" y1="1" x2="1286.21" y2="429" stroke="white" stroke-opacity="0.15"/>
<line x1="1337.64" y1="1" x2="1337.64" y2="429" stroke="white" stroke-opacity="0.15"/>
<line x1="1389.07" y1="1" x2="1389.07" y2="429" stroke="white" stroke-opacity="0.15"/>
<line x1="1440.5" y1="1" x2="1440.5" y2="429" stroke="white" stroke-opacity="0.15"/>
<line x1="4.37114e-08" y1="0.5" x2="1440" y2="0.500126" stroke="white" stroke-opacity="0.15"/>
<line x1="4.08518e-08" y1="54" x2="1440" y2="54.0001" stroke="white" stroke-opacity="0.15"/>
<line x1="4.08518e-08" y1="107.5" x2="1440" y2="107.5" stroke="white" stroke-opacity="0.15"/>
<line x1="4.08518e-08" y1="161" x2="1440" y2="161" stroke="white" stroke-opacity="0.15"/>
<line x1="4.08518e-08" y1="214.5" x2="1440" y2="214.5" stroke="white" stroke-opacity="0.15"/>
<line x1="4.08518e-08" y1="268" x2="1440" y2="268" stroke="white" stroke-opacity="0.15"/>
<line x1="4.08518e-08" y1="321.5" x2="1440" y2="321.5" stroke="white" stroke-opacity="0.15"/>
<line x1="4.08518e-08" y1="375" x2="1440" y2="375" stroke="white" stroke-opacity="0.15"/>
<line x1="4.08518e-08" y1="428.5" x2="1440" y2="428.5" stroke="white" stroke-opacity="0.15"/>
</svg>
