<svg width="435" height="435" viewBox="0 0 435 435" fill="none" xmlns="http://www.w3.org/2000/svg">
<path d="M326.5 -9.48537e-06C326.5 59.9229 375.077 108.5 435 108.5" stroke="black" stroke-opacity="0.1"/>
<path d="M272.25 -1.42281e-05C272.25 89.8843 345.116 162.75 435 162.75" stroke="black" stroke-opacity="0.1"/>
<path d="M218 -1.89707e-05C218 119.846 315.154 217 435 217" stroke="black" stroke-opacity="0.1"/>
<path d="M163.75 -2.37134e-05C163.75 149.807 285.193 271.25 435 271.25" stroke="black" stroke-opacity="0.1"/>
<path d="M109.5 -2.84561e-05C109.5 179.769 255.231 325.5 435 325.5" stroke="black" stroke-opacity="0.1"/>
<path d="M55.25 -3.31988e-05C55.25 209.73 225.27 379.75 435 379.75" stroke="black" stroke-opacity="0.1"/>
<path d="M1.00004 -3.79415e-05C1.00002 239.692 195.308 434 435 434" stroke="black" stroke-opacity="0.1"/>
</svg>
