<svg width="328" height="435" viewBox="0 0 328 435" fill="none" xmlns="http://www.w3.org/2000/svg">
<path d="M219.5 -9.48537e-06C219.5 59.9229 268.077 108.5 328 108.5" stroke="black" stroke-opacity="0.1"/>
<path d="M165.25 -1.42281e-05C165.25 89.8843 238.116 162.75 328 162.75" stroke="black" stroke-opacity="0.1"/>
<path d="M111 -1.89707e-05C111 119.846 208.154 217 328 217" stroke="black" stroke-opacity="0.1"/>
<path d="M56.75 -2.37134e-05C56.75 149.807 178.193 271.25 328 271.25" stroke="black" stroke-opacity="0.1"/>
<path d="M2.50003 -2.84561e-05C2.50001 179.769 148.231 325.5 328 325.5" stroke="black" stroke-opacity="0.1"/>
<path d="M-51.75 -3.31988e-05C-51.75 209.73 118.27 379.75 328 379.75" stroke="black" stroke-opacity="0.1"/>
<path d="M-106 -3.79415e-05C-106 239.692 88.3084 434 328 434" stroke="black" stroke-opacity="0.1"/>
</svg>
