<svg width="587" height="712" viewBox="0 0 587 712" fill="none" xmlns="http://www.w3.org/2000/svg">
<g filter="url(#filter0_d_221_73)">
<rect x="199" y="72" width="301" height="421" rx="7" fill="#F8F8F8"/>
</g>
<rect x="228" y="136" width="158" height="125" rx="7" fill="#D1F2EB"/>
<rect x="228" y="315" width="117" height="44" rx="7" fill="#FFE1E1"/>
<rect x="228" y="365" width="117" height="44" rx="7" fill="#FFE1E1"/>
<rect x="228" y="365" width="117" height="44" rx="7" fill="#F4FFE1"/>
<rect x="228" y="415" width="117" height="44" rx="7" fill="#FFE1F7"/>
<rect x="228" y="315" width="44" height="44" rx="7" fill="#FFAEAE"/>
<rect x="228" y="365" width="44" height="44" rx="7" fill="#FFAEAE"/>
<rect x="228" y="365" width="44" height="44" rx="7" fill="#DDFFA4"/>
<rect x="228" y="415" width="44" height="44" rx="7" fill="#FCBDEB"/>
<rect x="350" y="315" width="117" height="44" rx="7" fill="#FEF5E7"/>
<rect x="350" y="365" width="117" height="44" rx="7" fill="#E9FFE1"/>
<rect x="350" y="365" width="117" height="44" rx="7" fill="#E1F3FF"/>
<rect x="350" y="415" width="117" height="44" rx="7" fill="#E5E1FF"/>
<rect x="350" y="315" width="44" height="44" rx="7" fill="#FFEACA"/>
<rect x="350" y="365" width="44" height="44" rx="7" fill="#C1FFAB"/>
<rect x="350" y="365" width="44" height="44" rx="7" fill="#B3E0FF"/>
<rect x="350" y="415" width="44" height="44" rx="7" fill="#BFB5FF"/>
<rect x="240" y="151.833" width="137" height="5.86478" fill="url(#paint0_linear_221_73)"/>
<rect x="240" y="197.579" width="137" height="5.86478" fill="url(#paint1_linear_221_73)"/>
<rect x="240" y="162.39" width="96" height="12.9025" fill="url(#paint2_linear_221_73)"/>
<rect x="240" y="179.984" width="60" height="12.9025" fill="url(#paint3_linear_221_73)"/>
<rect x="240" y="208.135" width="77" height="5.86478" fill="url(#paint4_linear_221_73)"/>
<path d="M396 143C396 139.134 399.134 136 403 136H500V261H403C399.134 261 396 257.866 396 254V143Z" fill="#FEF5E7"/>
<rect x="405" y="151.833" width="88" height="5.86478" fill="url(#paint5_linear_221_73)"/>
<rect x="405" y="197.579" width="88" height="5.86478" fill="url(#paint6_linear_221_73)"/>
<rect x="405" y="162.39" width="61.6642" height="12.9025" fill="url(#paint7_linear_221_73)"/>
<rect x="405" y="179.984" width="38.5401" height="12.9025" fill="url(#paint8_linear_221_73)"/>
<rect x="405" y="208.135" width="49.4599" height="5.86478" fill="url(#paint9_linear_221_73)"/>
<rect x="432" y="231" width="68" height="19" rx="9.5" fill="#F5CBA7" fill-opacity="0.49"/>
<rect x="274" y="231" width="70" height="19" rx="9.5" fill="#ABEBC6" fill-opacity="0.8"/>
<path d="M234.928 106.296H231.436L230.836 108H229.408L232.396 99.648H233.98L236.968 108H235.528L234.928 106.296ZM234.544 105.18L233.188 101.304L231.82 105.18H234.544ZM239.635 102.36C239.867 102.056 240.183 101.8 240.583 101.592C240.983 101.384 241.435 101.28 241.939 101.28C242.515 101.28 243.039 101.424 243.511 101.712C243.991 101.992 244.367 102.388 244.639 102.9C244.911 103.412 245.047 104 245.047 104.664C245.047 105.328 244.911 105.924 244.639 106.452C244.367 106.972 243.991 107.38 243.511 107.676C243.039 107.964 242.515 108.108 241.939 108.108C241.435 108.108 240.987 108.008 240.595 107.808C240.203 107.6 239.883 107.344 239.635 107.04V111.144H238.267V101.388H239.635V102.36ZM243.655 104.664C243.655 104.208 243.559 103.816 243.367 103.488C243.183 103.152 242.935 102.9 242.623 102.732C242.319 102.556 241.991 102.468 241.639 102.468C241.295 102.468 240.967 102.556 240.655 102.732C240.351 102.908 240.103 103.164 239.911 103.5C239.727 103.836 239.635 104.232 239.635 104.688C239.635 105.144 239.727 105.544 239.911 105.888C240.103 106.224 240.351 106.48 240.655 106.656C240.967 106.832 241.295 106.92 241.639 106.92C241.991 106.92 242.319 106.832 242.623 106.656C242.935 106.472 243.183 106.208 243.367 105.864C243.559 105.52 243.655 105.12 243.655 104.664ZM247.768 102.36C248 102.056 248.316 101.8 248.716 101.592C249.116 101.384 249.568 101.28 250.072 101.28C250.648 101.28 251.172 101.424 251.644 101.712C252.124 101.992 252.5 102.388 252.772 102.9C253.044 103.412 253.18 104 253.18 104.664C253.18 105.328 253.044 105.924 252.772 106.452C252.5 106.972 252.124 107.38 251.644 107.676C251.172 107.964 250.648 108.108 250.072 108.108C249.568 108.108 249.12 108.008 248.728 107.808C248.336 107.6 248.016 107.344 247.768 107.04V111.144H246.4V101.388H247.768V102.36ZM251.788 104.664C251.788 104.208 251.692 103.816 251.5 103.488C251.316 103.152 251.068 102.9 250.756 102.732C250.452 102.556 250.124 102.468 249.772 102.468C249.428 102.468 249.1 102.556 248.788 102.732C248.484 102.908 248.236 103.164 248.044 103.5C247.86 103.836 247.768 104.232 247.768 104.688C247.768 105.144 247.86 105.544 248.044 105.888C248.236 106.224 248.484 106.48 248.788 106.656C249.1 106.832 249.428 106.92 249.772 106.92C250.124 106.92 250.452 106.832 250.756 106.656C251.068 106.472 251.316 106.208 251.5 105.864C251.692 105.52 251.788 105.12 251.788 104.664ZM260.374 99.66C261.262 99.66 262.038 99.832 262.702 100.176C263.374 100.512 263.89 101 264.25 101.64C264.618 102.272 264.802 103.012 264.802 103.86C264.802 104.708 264.618 105.444 264.25 106.068C263.89 106.692 263.374 107.172 262.702 107.508C262.038 107.836 261.262 108 260.374 108H257.65V99.66H260.374ZM260.374 106.884C261.35 106.884 262.098 106.62 262.618 106.092C263.138 105.564 263.398 104.82 263.398 103.86C263.398 102.892 263.138 102.136 262.618 101.592C262.098 101.048 261.35 100.776 260.374 100.776H259.018V106.884H260.374ZM266.71 108.084C266.462 108.084 266.254 108 266.086 107.832C265.918 107.664 265.834 107.456 265.834 107.208C265.834 106.96 265.918 106.752 266.086 106.584C266.254 106.416 266.462 106.332 266.71 106.332C266.95 106.332 267.154 106.416 267.322 106.584C267.49 106.752 267.574 106.96 267.574 107.208C267.574 107.456 267.49 107.664 267.322 107.832C267.154 108 266.95 108.084 266.71 108.084Z" fill="#202021" fill-opacity="0.85"/>
<path d="M235.258 295.002C235.781 295.095 236.224 295.371 236.588 295.828C236.952 296.285 237.134 296.803 237.134 297.382C237.134 297.877 237.003 298.325 236.742 298.726C236.49 299.118 236.121 299.431 235.636 299.664C235.151 299.888 234.586 300 233.942 300H230.05V290.27H233.76C234.423 290.27 234.992 290.382 235.468 290.606C235.944 290.83 236.303 291.133 236.546 291.516C236.789 291.889 236.91 292.309 236.91 292.776C236.91 293.336 236.761 293.803 236.462 294.176C236.163 294.549 235.762 294.825 235.258 295.002ZM231.646 294.358H233.62C234.143 294.358 234.549 294.241 234.838 294.008C235.137 293.765 235.286 293.42 235.286 292.972C235.286 292.533 235.137 292.193 234.838 291.95C234.549 291.698 234.143 291.572 233.62 291.572H231.646V294.358ZM233.802 298.698C234.343 298.698 234.768 298.567 235.076 298.306C235.384 298.045 235.538 297.681 235.538 297.214C235.538 296.738 235.375 296.36 235.048 296.08C234.721 295.8 234.287 295.66 233.746 295.66H231.646V298.698H233.802ZM245.938 295.954C245.938 296.243 245.92 296.505 245.882 296.738H239.988C240.035 297.354 240.264 297.849 240.674 298.222C241.085 298.595 241.589 298.782 242.186 298.782C243.045 298.782 243.652 298.423 244.006 297.704H245.728C245.495 298.413 245.07 298.997 244.454 299.454C243.848 299.902 243.092 300.126 242.186 300.126C241.449 300.126 240.786 299.963 240.198 299.636C239.62 299.3 239.162 298.833 238.826 298.236C238.5 297.629 238.336 296.929 238.336 296.136C238.336 295.343 238.495 294.647 238.812 294.05C239.139 293.443 239.592 292.977 240.17 292.65C240.758 292.323 241.43 292.16 242.186 292.16C242.914 292.16 243.563 292.319 244.132 292.636C244.702 292.953 245.145 293.401 245.462 293.98C245.78 294.549 245.938 295.207 245.938 295.954ZM244.272 295.45C244.263 294.862 244.053 294.391 243.642 294.036C243.232 293.681 242.723 293.504 242.116 293.504C241.566 293.504 241.094 293.681 240.702 294.036C240.31 294.381 240.077 294.853 240.002 295.45H244.272ZM250.309 300.126C249.702 300.126 249.156 300.019 248.671 299.804C248.195 299.58 247.817 299.281 247.537 298.908C247.257 298.525 247.108 298.101 247.089 297.634H248.741C248.769 297.961 248.923 298.236 249.203 298.46C249.492 298.675 249.852 298.782 250.281 298.782C250.729 298.782 251.074 298.698 251.317 298.53C251.569 298.353 251.695 298.129 251.695 297.858C251.695 297.569 251.555 297.354 251.275 297.214C251.004 297.074 250.57 296.92 249.973 296.752C249.394 296.593 248.923 296.439 248.559 296.29C248.195 296.141 247.878 295.912 247.607 295.604C247.346 295.296 247.215 294.89 247.215 294.386C247.215 293.975 247.336 293.602 247.579 293.266C247.822 292.921 248.167 292.65 248.615 292.454C249.072 292.258 249.595 292.16 250.183 292.16C251.06 292.16 251.765 292.384 252.297 292.832C252.838 293.271 253.128 293.873 253.165 294.638H251.569C251.541 294.293 251.401 294.017 251.149 293.812C250.897 293.607 250.556 293.504 250.127 293.504C249.707 293.504 249.385 293.583 249.161 293.742C248.937 293.901 248.825 294.111 248.825 294.372C248.825 294.577 248.9 294.75 249.049 294.89C249.198 295.03 249.38 295.142 249.595 295.226C249.81 295.301 250.127 295.399 250.547 295.52C251.107 295.669 251.564 295.823 251.919 295.982C252.283 296.131 252.596 296.355 252.857 296.654C253.118 296.953 253.254 297.349 253.263 297.844C253.263 298.283 253.142 298.675 252.899 299.02C252.656 299.365 252.311 299.636 251.863 299.832C251.424 300.028 250.906 300.126 250.309 300.126ZM256.85 293.588V297.858C256.85 298.147 256.915 298.357 257.046 298.488C257.186 298.609 257.419 298.67 257.746 298.67H258.726V300H257.466C256.747 300 256.196 299.832 255.814 299.496C255.431 299.16 255.24 298.614 255.24 297.858V293.588H254.33V292.286H255.24V290.368H256.85V292.286H258.726V293.588H256.85ZM270.637 293.168C270.637 293.663 270.521 294.129 270.287 294.568C270.054 295.007 269.681 295.366 269.167 295.646C268.654 295.917 267.996 296.052 267.193 296.052H265.429V300H263.833V290.27H267.193C267.94 290.27 268.57 290.401 269.083 290.662C269.606 290.914 269.993 291.259 270.245 291.698C270.507 292.137 270.637 292.627 270.637 293.168ZM267.193 294.75C267.8 294.75 268.253 294.615 268.551 294.344C268.85 294.064 268.999 293.672 268.999 293.168C268.999 292.104 268.397 291.572 267.193 291.572H265.429V294.75H267.193ZM273.755 293.406C273.989 293.014 274.297 292.711 274.679 292.496C275.071 292.272 275.533 292.16 276.065 292.16V293.812H275.659C275.034 293.812 274.558 293.971 274.231 294.288C273.914 294.605 273.755 295.156 273.755 295.94V300H272.159V292.286H273.755V293.406ZM280.878 300.126C280.15 300.126 279.492 299.963 278.904 299.636C278.316 299.3 277.854 298.833 277.518 298.236C277.182 297.629 277.014 296.929 277.014 296.136C277.014 295.352 277.187 294.657 277.532 294.05C277.878 293.443 278.349 292.977 278.946 292.65C279.544 292.323 280.211 292.16 280.948 292.16C281.686 292.16 282.353 292.323 282.95 292.65C283.548 292.977 284.019 293.443 284.364 294.05C284.71 294.657 284.882 295.352 284.882 296.136C284.882 296.92 284.705 297.615 284.35 298.222C283.996 298.829 283.51 299.3 282.894 299.636C282.288 299.963 281.616 300.126 280.878 300.126ZM280.878 298.74C281.289 298.74 281.672 298.642 282.026 298.446C282.39 298.25 282.684 297.956 282.908 297.564C283.132 297.172 283.244 296.696 283.244 296.136C283.244 295.576 283.137 295.105 282.922 294.722C282.708 294.33 282.423 294.036 282.068 293.84C281.714 293.644 281.331 293.546 280.92 293.546C280.51 293.546 280.127 293.644 279.772 293.84C279.427 294.036 279.152 294.33 278.946 294.722C278.741 295.105 278.638 295.576 278.638 296.136C278.638 296.967 278.848 297.611 279.268 298.068C279.698 298.516 280.234 298.74 280.878 298.74ZM287.272 291.264C286.983 291.264 286.74 291.166 286.544 290.97C286.348 290.774 286.25 290.531 286.25 290.242C286.25 289.953 286.348 289.71 286.544 289.514C286.74 289.318 286.983 289.22 287.272 289.22C287.552 289.22 287.79 289.318 287.986 289.514C288.182 289.71 288.28 289.953 288.28 290.242C288.28 290.531 288.182 290.774 287.986 290.97C287.79 291.166 287.552 291.264 287.272 291.264ZM288.056 301.512C288.056 302.268 287.865 302.814 287.482 303.15C287.109 303.495 286.563 303.668 285.844 303.668H285.018V302.324H285.564C285.891 302.324 286.119 302.259 286.25 302.128C286.39 302.007 286.46 301.801 286.46 301.512V292.286H288.056V301.512ZM297.222 295.954C297.222 296.243 297.203 296.505 297.166 296.738H291.272C291.318 297.354 291.547 297.849 291.958 298.222C292.368 298.595 292.872 298.782 293.47 298.782C294.328 298.782 294.935 298.423 295.29 297.704H297.012C296.778 298.413 296.354 298.997 295.738 299.454C295.131 299.902 294.375 300.126 293.47 300.126C292.732 300.126 292.07 299.963 291.482 299.636C290.903 299.3 290.446 298.833 290.11 298.236C289.783 297.629 289.62 296.929 289.62 296.136C289.62 295.343 289.778 294.647 290.096 294.05C290.422 293.443 290.875 292.977 291.454 292.65C292.042 292.323 292.714 292.16 293.47 292.16C294.198 292.16 294.846 292.319 295.416 292.636C295.985 292.953 296.428 293.401 296.746 293.98C297.063 294.549 297.222 295.207 297.222 295.954ZM295.556 295.45C295.546 294.862 295.336 294.391 294.926 294.036C294.515 293.681 294.006 293.504 293.4 293.504C292.849 293.504 292.378 293.681 291.986 294.036C291.594 294.381 291.36 294.853 291.286 295.45H295.556ZM298.26 296.136C298.26 295.343 298.419 294.647 298.736 294.05C299.063 293.443 299.511 292.977 300.08 292.65C300.65 292.323 301.303 292.16 302.04 292.16C302.974 292.16 303.744 292.384 304.35 292.832C304.966 293.271 305.382 293.901 305.596 294.722H303.874C303.734 294.339 303.51 294.041 303.202 293.826C302.894 293.611 302.507 293.504 302.04 293.504C301.387 293.504 300.864 293.737 300.472 294.204C300.09 294.661 299.898 295.305 299.898 296.136C299.898 296.967 300.09 297.615 300.472 298.082C300.864 298.549 301.387 298.782 302.04 298.782C302.964 298.782 303.576 298.376 303.874 297.564H305.596C305.372 298.348 304.952 298.973 304.336 299.44C303.72 299.897 302.955 300.126 302.04 300.126C301.303 300.126 300.65 299.963 300.08 299.636C299.511 299.3 299.063 298.833 298.736 298.236C298.419 297.629 298.26 296.929 298.26 296.136ZM309.049 293.588V297.858C309.049 298.147 309.114 298.357 309.245 298.488C309.385 298.609 309.618 298.67 309.945 298.67H310.925V300H309.665C308.946 300 308.395 299.832 308.013 299.496C307.63 299.16 307.439 298.614 307.439 297.858V293.588H306.529V292.286H307.439V290.368H309.049V292.286H310.925V293.588H309.049ZM315.196 300.126C314.589 300.126 314.043 300.019 313.558 299.804C313.082 299.58 312.704 299.281 312.424 298.908C312.144 298.525 311.994 298.101 311.976 297.634H313.628C313.656 297.961 313.81 298.236 314.09 298.46C314.379 298.675 314.738 298.782 315.168 298.782C315.616 298.782 315.961 298.698 316.204 298.53C316.456 298.353 316.582 298.129 316.582 297.858C316.582 297.569 316.442 297.354 316.162 297.214C315.891 297.074 315.457 296.92 314.86 296.752C314.281 296.593 313.81 296.439 313.446 296.29C313.082 296.141 312.764 295.912 312.494 295.604C312.232 295.296 312.102 294.89 312.102 294.386C312.102 293.975 312.223 293.602 312.466 293.266C312.708 292.921 313.054 292.65 313.502 292.454C313.959 292.258 314.482 292.16 315.07 292.16C315.947 292.16 316.652 292.384 317.184 292.832C317.725 293.271 318.014 293.873 318.052 294.638H316.456C316.428 294.293 316.288 294.017 316.036 293.812C315.784 293.607 315.443 293.504 315.014 293.504C314.594 293.504 314.272 293.583 314.048 293.742C313.824 293.901 313.712 294.111 313.712 294.372C313.712 294.577 313.786 294.75 313.936 294.89C314.085 295.03 314.267 295.142 314.482 295.226C314.696 295.301 315.014 295.399 315.434 295.52C315.994 295.669 316.451 295.823 316.806 295.982C317.17 296.131 317.482 296.355 317.744 296.654C318.005 296.953 318.14 297.349 318.15 297.844C318.15 298.283 318.028 298.675 317.786 299.02C317.543 299.365 317.198 299.636 316.75 299.832C316.311 300.028 315.793 300.126 315.196 300.126Z" fill="#202021" fill-opacity="0.85"/>
<path d="M293.76 99.66L291.288 108H289.74L287.988 101.688L286.128 108L284.592 108.012L282.228 99.66H283.68L285.408 106.452L287.28 99.66H288.816L290.556 106.416L292.296 99.66H293.76ZM300.948 104.532C300.948 104.78 300.932 105.004 300.9 105.204H295.848C295.888 105.732 296.084 106.156 296.436 106.476C296.788 106.796 297.22 106.956 297.732 106.956C298.468 106.956 298.988 106.648 299.292 106.032H300.768C300.568 106.64 300.204 107.14 299.676 107.532C299.156 107.916 298.508 108.108 297.732 108.108C297.1 108.108 296.532 107.968 296.028 107.688C295.532 107.4 295.14 107 294.852 106.488C294.572 105.968 294.432 105.368 294.432 104.688C294.432 104.008 294.568 103.412 294.84 102.9C295.12 102.38 295.508 101.98 296.004 101.7C296.508 101.42 297.084 101.28 297.732 101.28C298.356 101.28 298.912 101.416 299.4 101.688C299.888 101.96 300.268 102.344 300.54 102.84C300.812 103.328 300.948 103.892 300.948 104.532ZM299.52 104.1C299.512 103.596 299.332 103.192 298.98 102.888C298.628 102.584 298.192 102.432 297.672 102.432C297.2 102.432 296.796 102.584 296.46 102.888C296.124 103.184 295.924 103.588 295.86 104.1H299.52ZM303.663 102.372C303.895 102.052 304.211 101.792 304.611 101.592C305.019 101.384 305.471 101.28 305.967 101.28C306.551 101.28 307.079 101.42 307.551 101.7C308.023 101.98 308.395 102.38 308.667 102.9C308.939 103.412 309.075 104 309.075 104.664C309.075 105.328 308.939 105.924 308.667 106.452C308.395 106.972 308.019 107.38 307.539 107.676C307.067 107.964 306.543 108.108 305.967 108.108C305.455 108.108 304.999 108.008 304.599 107.808C304.207 107.608 303.895 107.352 303.663 107.04V108H302.295V99.12H303.663V102.372ZM307.683 104.664C307.683 104.208 307.587 103.816 307.395 103.488C307.211 103.152 306.963 102.9 306.651 102.732C306.347 102.556 306.019 102.468 305.667 102.468C305.323 102.468 304.995 102.556 304.683 102.732C304.379 102.908 304.131 103.164 303.939 103.5C303.755 103.836 303.663 104.232 303.663 104.688C303.663 105.144 303.755 105.544 303.939 105.888C304.131 106.224 304.379 106.48 304.683 106.656C304.995 106.832 305.323 106.92 305.667 106.92C306.019 106.92 306.347 106.832 306.651 106.656C306.963 106.472 307.211 106.208 307.395 105.864C307.587 105.52 307.683 105.12 307.683 104.664ZM316.269 99.66C317.157 99.66 317.933 99.832 318.597 100.176C319.269 100.512 319.785 101 320.145 101.64C320.513 102.272 320.697 103.012 320.697 103.86C320.697 104.708 320.513 105.444 320.145 106.068C319.785 106.692 319.269 107.172 318.597 107.508C317.933 107.836 317.157 108 316.269 108H313.545V99.66H316.269ZM316.269 106.884C317.245 106.884 317.993 106.62 318.513 106.092C319.033 105.564 319.293 104.82 319.293 103.86C319.293 102.892 319.033 102.136 318.513 101.592C317.993 101.048 317.245 100.776 316.269 100.776H314.913V106.884H316.269ZM322.604 108.084C322.356 108.084 322.148 108 321.98 107.832C321.812 107.664 321.728 107.456 321.728 107.208C321.728 106.96 321.812 106.752 321.98 106.584C322.148 106.416 322.356 106.332 322.604 106.332C322.844 106.332 323.048 106.416 323.216 106.584C323.384 106.752 323.468 106.96 323.468 107.208C323.468 107.456 323.384 107.664 323.216 107.832C323.048 108 322.844 108.084 322.604 108.084Z" fill="#202021" fill-opacity="0.5"/>
<path d="M344.936 102.06C344.72 101.644 344.42 101.332 344.036 101.124C343.652 100.908 343.208 100.8 342.704 100.8C342.152 100.8 341.66 100.924 341.228 101.172C340.796 101.42 340.456 101.772 340.208 102.228C339.968 102.684 339.848 103.212 339.848 103.812C339.848 104.412 339.968 104.944 340.208 105.408C340.456 105.864 340.796 106.216 341.228 106.464C341.66 106.712 342.152 106.836 342.704 106.836C343.448 106.836 344.052 106.628 344.516 106.212C344.98 105.796 345.264 105.232 345.368 104.52H342.236V103.428H346.832V104.496C346.744 105.144 346.512 105.74 346.136 106.284C345.768 106.828 345.284 107.264 344.684 107.592C344.092 107.912 343.432 108.072 342.704 108.072C341.92 108.072 341.204 107.892 340.556 107.532C339.908 107.164 339.392 106.656 339.008 106.008C338.632 105.36 338.444 104.628 338.444 103.812C338.444 102.996 338.632 102.264 339.008 101.616C339.392 100.968 339.908 100.464 340.556 100.104C341.212 99.736 341.928 99.552 342.704 99.552C343.592 99.552 344.38 99.772 345.068 100.212C345.764 100.644 346.268 101.26 346.58 102.06H344.936ZM349.549 102.348C349.749 102.012 350.013 101.752 350.341 101.568C350.677 101.376 351.073 101.28 351.529 101.28V102.696H351.181C350.645 102.696 350.237 102.832 349.957 103.104C349.685 103.376 349.549 103.848 349.549 104.52V108H348.181V101.388H349.549V102.348ZM352.331 104.664C352.331 104 352.467 103.412 352.739 102.9C353.019 102.388 353.395 101.992 353.867 101.712C354.347 101.424 354.875 101.28 355.451 101.28C355.971 101.28 356.423 101.384 356.807 101.592C357.199 101.792 357.511 102.044 357.743 102.348V101.388H359.123V108H357.743V107.016C357.511 107.328 357.195 107.588 356.795 107.796C356.395 108.004 355.939 108.108 355.427 108.108C354.859 108.108 354.339 107.964 353.867 107.676C353.395 107.38 353.019 106.972 352.739 106.452C352.467 105.924 352.331 105.328 352.331 104.664ZM357.743 104.688C357.743 104.232 357.647 103.836 357.455 103.5C357.271 103.164 357.027 102.908 356.723 102.732C356.419 102.556 356.091 102.468 355.739 102.468C355.387 102.468 355.059 102.556 354.755 102.732C354.451 102.9 354.203 103.152 354.011 103.488C353.827 103.816 353.735 104.208 353.735 104.664C353.735 105.12 353.827 105.52 354.011 105.864C354.203 106.208 354.451 106.472 354.755 106.656C355.067 106.832 355.395 106.92 355.739 106.92C356.091 106.92 356.419 106.832 356.723 106.656C357.027 106.48 357.271 106.224 357.455 105.888C357.647 105.544 357.743 105.144 357.743 104.688ZM362.288 102.36C362.52 102.056 362.836 101.8 363.236 101.592C363.636 101.384 364.088 101.28 364.592 101.28C365.168 101.28 365.692 101.424 366.164 101.712C366.644 101.992 367.02 102.388 367.292 102.9C367.564 103.412 367.7 104 367.7 104.664C367.7 105.328 367.564 105.924 367.292 106.452C367.02 106.972 366.644 107.38 366.164 107.676C365.692 107.964 365.168 108.108 364.592 108.108C364.088 108.108 363.64 108.008 363.248 107.808C362.856 107.6 362.536 107.344 362.288 107.04V111.144H360.92V101.388H362.288V102.36ZM366.308 104.664C366.308 104.208 366.212 103.816 366.02 103.488C365.836 103.152 365.588 102.9 365.276 102.732C364.972 102.556 364.644 102.468 364.292 102.468C363.948 102.468 363.62 102.556 363.308 102.732C363.004 102.908 362.756 103.164 362.564 103.5C362.38 103.836 362.288 104.232 362.288 104.688C362.288 105.144 362.38 105.544 362.564 105.888C362.756 106.224 363.004 106.48 363.308 106.656C363.62 106.832 363.948 106.92 364.292 106.92C364.644 106.92 364.972 106.832 365.276 106.656C365.588 106.472 365.836 106.208 366.02 105.864C366.212 105.52 366.308 105.12 366.308 104.664ZM372.472 101.28C372.976 101.28 373.424 101.388 373.816 101.604C374.216 101.82 374.528 102.14 374.752 102.564C374.984 102.988 375.1 103.5 375.1 104.1V108H373.744V104.304C373.744 103.712 373.596 103.26 373.3 102.948C373.004 102.628 372.6 102.468 372.088 102.468C371.576 102.468 371.168 102.628 370.864 102.948C370.568 103.26 370.42 103.712 370.42 104.304V108H369.052V99.12H370.42V102.156C370.652 101.876 370.944 101.66 371.296 101.508C371.656 101.356 372.048 101.28 372.472 101.28ZM377.541 100.512C377.293 100.512 377.085 100.428 376.917 100.26C376.749 100.092 376.665 99.884 376.665 99.636C376.665 99.388 376.749 99.18 376.917 99.012C377.085 98.844 377.293 98.76 377.541 98.76C377.781 98.76 377.985 98.844 378.153 99.012C378.321 99.18 378.405 99.388 378.405 99.636C378.405 99.884 378.321 100.092 378.153 100.26C377.985 100.428 377.781 100.512 377.541 100.512ZM378.213 101.388V108H376.845V101.388H378.213ZM379.553 104.688C379.553 104.008 379.689 103.412 379.961 102.9C380.241 102.38 380.625 101.98 381.113 101.7C381.601 101.42 382.161 101.28 382.793 101.28C383.593 101.28 384.253 101.472 384.773 101.856C385.301 102.232 385.657 102.772 385.841 103.476H384.365C384.245 103.148 384.053 102.892 383.789 102.708C383.525 102.524 383.193 102.432 382.793 102.432C382.233 102.432 381.785 102.632 381.449 103.032C381.121 103.424 380.957 103.976 380.957 104.688C380.957 105.4 381.121 105.956 381.449 106.356C381.785 106.756 382.233 106.956 382.793 106.956C383.585 106.956 384.109 106.608 384.365 105.912H385.841C385.649 106.584 385.289 107.12 384.761 107.52C384.233 107.912 383.577 108.108 382.793 108.108C382.161 108.108 381.601 107.968 381.113 107.688C380.625 107.4 380.241 107 379.961 106.488C379.689 105.968 379.553 105.368 379.553 104.688ZM389.605 108.108C389.085 108.108 388.617 108.016 388.201 107.832C387.793 107.64 387.469 107.384 387.229 107.064C386.989 106.736 386.861 106.372 386.845 105.972H388.261C388.285 106.252 388.417 106.488 388.657 106.68C388.905 106.864 389.213 106.956 389.581 106.956C389.965 106.956 390.261 106.884 390.469 106.74C390.685 106.588 390.793 106.396 390.793 106.164C390.793 105.916 390.673 105.732 390.433 105.612C390.201 105.492 389.829 105.36 389.317 105.216C388.821 105.08 388.417 104.948 388.105 104.82C387.793 104.692 387.521 104.496 387.289 104.232C387.065 103.968 386.953 103.62 386.953 103.188C386.953 102.836 387.057 102.516 387.265 102.228C387.473 101.932 387.769 101.7 388.153 101.532C388.545 101.364 388.993 101.28 389.497 101.28C390.249 101.28 390.853 101.472 391.309 101.856C391.773 102.232 392.021 102.748 392.053 103.404H390.685C390.661 103.108 390.541 102.872 390.325 102.696C390.109 102.52 389.817 102.432 389.449 102.432C389.089 102.432 388.813 102.5 388.621 102.636C388.429 102.772 388.333 102.952 388.333 103.176C388.333 103.352 388.397 103.5 388.525 103.62C388.653 103.74 388.809 103.836 388.993 103.908C389.177 103.972 389.449 104.056 389.809 104.16C390.289 104.288 390.681 104.42 390.985 104.556C391.297 104.684 391.565 104.876 391.789 105.132C392.013 105.388 392.129 105.728 392.137 106.152C392.137 106.528 392.033 106.864 391.825 107.16C391.617 107.456 391.321 107.688 390.937 107.856C390.561 108.024 390.117 108.108 389.605 108.108ZM399.456 99.66C400.344 99.66 401.12 99.832 401.784 100.176C402.456 100.512 402.972 101 403.332 101.64C403.7 102.272 403.884 103.012 403.884 103.86C403.884 104.708 403.7 105.444 403.332 106.068C402.972 106.692 402.456 107.172 401.784 107.508C401.12 107.836 400.344 108 399.456 108H396.732V99.66H399.456ZM399.456 106.884C400.432 106.884 401.18 106.62 401.7 106.092C402.22 105.564 402.48 104.82 402.48 103.86C402.48 102.892 402.22 102.136 401.7 101.592C401.18 101.048 400.432 100.776 399.456 100.776H398.1V106.884H399.456ZM405.792 108.084C405.544 108.084 405.336 108 405.168 107.832C405 107.664 404.916 107.456 404.916 107.208C404.916 106.96 405 106.752 405.168 106.584C405.336 106.416 405.544 106.332 405.792 106.332C406.032 106.332 406.236 106.416 406.404 106.584C406.572 106.752 406.656 106.96 406.656 107.208C406.656 107.456 406.572 107.664 406.404 107.832C406.236 108 406.032 108.084 405.792 108.084Z" fill="#202021" fill-opacity="0.5"/>
<path d="M424.624 99.66C425.512 99.66 426.288 99.832 426.952 100.176C427.624 100.512 428.14 101 428.5 101.64C428.868 102.272 429.052 103.012 429.052 103.86C429.052 104.708 428.868 105.444 428.5 106.068C428.14 106.692 427.624 107.172 426.952 107.508C426.288 107.836 425.512 108 424.624 108H421.9V99.66H424.624ZM424.624 106.884C425.6 106.884 426.348 106.62 426.868 106.092C427.388 105.564 427.648 104.82 427.648 103.86C427.648 102.892 427.388 102.136 426.868 101.592C426.348 101.048 425.6 100.776 424.624 100.776H423.268V106.884H424.624ZM431.104 100.512C430.856 100.512 430.648 100.428 430.48 100.26C430.312 100.092 430.228 99.884 430.228 99.636C430.228 99.388 430.312 99.18 430.48 99.012C430.648 98.844 430.856 98.76 431.104 98.76C431.344 98.76 431.548 98.844 431.716 99.012C431.884 99.18 431.968 99.388 431.968 99.636C431.968 99.884 431.884 100.092 431.716 100.26C431.548 100.428 431.344 100.512 431.104 100.512ZM431.776 101.388V108H430.408V101.388H431.776ZM436.236 101.28C436.748 101.28 437.2 101.384 437.592 101.592C437.992 101.792 438.304 102.044 438.528 102.348V101.388H439.908V108.108C439.908 108.716 439.78 109.256 439.524 109.728C439.268 110.208 438.896 110.584 438.408 110.856C437.928 111.128 437.352 111.264 436.68 111.264C435.784 111.264 435.04 111.052 434.448 110.628C433.856 110.212 433.52 109.644 433.44 108.924H434.796C434.9 109.268 435.12 109.544 435.456 109.752C435.8 109.968 436.208 110.076 436.68 110.076C437.232 110.076 437.676 109.908 438.012 109.572C438.356 109.236 438.528 108.748 438.528 108.108V107.004C438.296 107.316 437.98 107.58 437.58 107.796C437.188 108.004 436.74 108.108 436.236 108.108C435.66 108.108 435.132 107.964 434.652 107.676C434.18 107.38 433.804 106.972 433.524 106.452C433.252 105.924 433.116 105.328 433.116 104.664C433.116 104 433.252 103.412 433.524 102.9C433.804 102.388 434.18 101.992 434.652 101.712C435.132 101.424 435.66 101.28 436.236 101.28ZM438.528 104.688C438.528 104.232 438.432 103.836 438.24 103.5C438.056 103.164 437.812 102.908 437.508 102.732C437.204 102.556 436.876 102.468 436.524 102.468C436.172 102.468 435.844 102.556 435.54 102.732C435.236 102.9 434.988 103.152 434.796 103.488C434.612 103.816 434.52 104.208 434.52 104.664C434.52 105.12 434.612 105.52 434.796 105.864C434.988 106.208 435.236 106.472 435.54 106.656C435.852 106.832 436.18 106.92 436.524 106.92C436.876 106.92 437.204 106.832 437.508 106.656C437.812 106.48 438.056 106.224 438.24 105.888C438.432 105.544 438.528 105.144 438.528 104.688ZM442.401 100.512C442.153 100.512 441.945 100.428 441.777 100.26C441.609 100.092 441.525 99.884 441.525 99.636C441.525 99.388 441.609 99.18 441.777 99.012C441.945 98.844 442.153 98.76 442.401 98.76C442.641 98.76 442.845 98.844 443.013 99.012C443.181 99.18 443.265 99.388 443.265 99.636C443.265 99.884 443.181 100.092 443.013 100.26C442.845 100.428 442.641 100.512 442.401 100.512ZM443.073 101.388V108H441.705V101.388H443.073ZM446.465 102.504V106.164C446.465 106.412 446.521 106.592 446.633 106.704C446.753 106.808 446.953 106.86 447.233 106.86H448.073V108H446.993C446.377 108 445.905 107.856 445.577 107.568C445.249 107.28 445.085 106.812 445.085 106.164V102.504H444.305V101.388H445.085V99.744H446.465V101.388H448.073V102.504H446.465ZM448.878 104.664C448.878 104 449.014 103.412 449.286 102.9C449.566 102.388 449.942 101.992 450.414 101.712C450.894 101.424 451.422 101.28 451.998 101.28C452.518 101.28 452.97 101.384 453.354 101.592C453.746 101.792 454.058 102.044 454.29 102.348V101.388H455.67V108H454.29V107.016C454.058 107.328 453.742 107.588 453.342 107.796C452.942 108.004 452.486 108.108 451.974 108.108C451.406 108.108 450.886 107.964 450.414 107.676C449.942 107.38 449.566 106.972 449.286 106.452C449.014 105.924 448.878 105.328 448.878 104.664ZM454.29 104.688C454.29 104.232 454.194 103.836 454.002 103.5C453.818 103.164 453.574 102.908 453.27 102.732C452.966 102.556 452.638 102.468 452.286 102.468C451.934 102.468 451.606 102.556 451.302 102.732C450.998 102.9 450.75 103.152 450.558 103.488C450.374 103.816 450.282 104.208 450.282 104.664C450.282 105.12 450.374 105.52 450.558 105.864C450.75 106.208 450.998 106.472 451.302 106.656C451.614 106.832 451.942 106.92 452.286 106.92C452.638 106.92 452.966 106.832 453.27 106.656C453.574 106.48 453.818 106.224 454.002 105.888C454.194 105.544 454.29 105.144 454.29 104.688ZM458.834 99.12V108H457.466V99.12H458.834ZM472.532 99.66V108H471.164V102.288L468.62 108H467.672L465.116 102.288V108H463.748V99.66H465.224L468.152 106.2L471.068 99.66H472.532ZM474.882 108.084C474.634 108.084 474.426 108 474.258 107.832C474.09 107.664 474.006 107.456 474.006 107.208C474.006 106.96 474.09 106.752 474.258 106.584C474.426 106.416 474.634 106.332 474.882 106.332C475.122 106.332 475.326 106.416 475.494 106.584C475.662 106.752 475.746 106.96 475.746 107.208C475.746 107.456 475.662 107.664 475.494 107.832C475.326 108 475.122 108.084 474.882 108.084Z" fill="#202021" fill-opacity="0.5"/>
<circle cx="247.5" cy="121.5" r="2.5" fill="#202021" fill-opacity="0.85"/>
<circle cx="464.5" cy="298.5" r="1.5" fill="#202021" fill-opacity="0.7"/>
<circle cx="456.5" cy="298.5" r="1.5" fill="#202021" fill-opacity="0.7"/>
<circle cx="448.5" cy="298.5" r="1.5" fill="#202021" fill-opacity="0.7"/>
<rect x="510" y="72" width="76.8736" height="555.289" rx="5" fill="#5928DC"/>
<rect x="232" y="10" width="309" height="46" rx="5" fill="#F8F8F8"/>
<path d="M259.688 34.6C259.688 33.6933 259.869 32.904 260.232 32.232C260.595 31.5493 261.096 31.0213 261.736 30.648C262.387 30.2747 263.128 30.088 263.96 30.088C265.037 30.088 265.923 30.3493 266.616 30.872C267.32 31.3947 267.784 32.12 268.008 33.048H266.44C266.291 32.5147 265.997 32.0933 265.56 31.784C265.133 31.4747 264.6 31.32 263.96 31.32C263.128 31.32 262.456 31.608 261.944 32.184C261.432 32.7493 261.176 33.5547 261.176 34.6C261.176 35.656 261.432 36.472 261.944 37.048C262.456 37.624 263.128 37.912 263.96 37.912C264.6 37.912 265.133 37.7627 265.56 37.464C265.987 37.1653 266.28 36.7387 266.44 36.184H268.008C267.773 37.08 267.304 37.8 266.6 38.344C265.896 38.8773 265.016 39.144 263.96 39.144C263.128 39.144 262.387 38.9573 261.736 38.584C261.096 38.2107 260.595 37.6827 260.232 37C259.869 36.3173 259.688 35.5173 259.688 34.6ZM273.775 39.144C272.953 39.144 272.207 38.9573 271.535 38.584C270.873 38.2107 270.351 37.6827 269.967 37C269.593 36.3067 269.407 35.5067 269.407 34.6C269.407 33.704 269.599 32.9147 269.983 32.232C270.377 31.5387 270.911 31.0107 271.583 30.648C272.255 30.2747 273.007 30.088 273.839 30.088C274.671 30.088 275.423 30.2747 276.095 30.648C276.767 31.0107 277.295 31.5333 277.679 32.216C278.073 32.8987 278.271 33.6933 278.271 34.6C278.271 35.5067 278.068 36.3067 277.663 37C277.268 37.6827 276.729 38.2107 276.047 38.584C275.364 38.9573 274.607 39.144 273.775 39.144ZM273.775 37.864C274.297 37.864 274.788 37.7413 275.247 37.496C275.705 37.2507 276.073 36.8827 276.351 36.392C276.639 35.9013 276.783 35.304 276.783 34.6C276.783 33.896 276.644 33.2987 276.367 32.808C276.089 32.3173 275.727 31.9547 275.279 31.72C274.831 31.4747 274.345 31.352 273.823 31.352C273.289 31.352 272.799 31.4747 272.351 31.72C271.913 31.9547 271.561 32.3173 271.295 32.808C271.028 33.2987 270.895 33.896 270.895 34.6C270.895 35.3147 271.023 35.9173 271.279 36.408C271.545 36.8987 271.897 37.2667 272.335 37.512C272.772 37.7467 273.252 37.864 273.775 37.864ZM290.729 30.072C291.412 30.072 292.02 30.216 292.553 30.504C293.086 30.7813 293.508 31.2027 293.817 31.768C294.126 32.3333 294.281 33.0213 294.281 33.832V39H292.841V34.04C292.841 33.1653 292.622 32.4987 292.185 32.04C291.758 31.5707 291.177 31.336 290.441 31.336C289.684 31.336 289.081 31.5813 288.633 32.072C288.185 32.552 287.961 33.2507 287.961 34.168V39H286.521V34.04C286.521 33.1653 286.302 32.4987 285.865 32.04C285.438 31.5707 284.857 31.336 284.121 31.336C283.364 31.336 282.761 31.5813 282.313 32.072C281.865 32.552 281.641 33.2507 281.641 34.168V39H280.185V30.232H281.641V31.496C281.929 31.0373 282.313 30.6853 282.793 30.44C283.284 30.1947 283.822 30.072 284.409 30.072C285.145 30.072 285.796 30.2373 286.361 30.568C286.926 30.8987 287.348 31.384 287.625 32.024C287.87 31.4053 288.276 30.9253 288.841 30.584C289.406 30.2427 290.036 30.072 290.729 30.072ZM298.126 31.848C298.414 31.3467 298.84 30.9307 299.406 30.6C299.982 30.2587 300.648 30.088 301.406 30.088C302.184 30.088 302.888 30.2747 303.517 30.648C304.157 31.0213 304.659 31.5493 305.022 32.232C305.384 32.904 305.566 33.688 305.566 34.584C305.566 35.4693 305.384 36.2587 305.022 36.952C304.659 37.6453 304.157 38.184 303.517 38.568C302.888 38.952 302.184 39.144 301.406 39.144C300.659 39.144 299.998 38.9787 299.422 38.648C298.856 38.3067 298.424 37.8853 298.126 37.384V43.16H296.67V30.232H298.126V31.848ZM304.078 34.584C304.078 33.9227 303.944 33.3467 303.678 32.856C303.411 32.3653 303.048 31.992 302.59 31.736C302.142 31.48 301.646 31.352 301.102 31.352C300.568 31.352 300.072 31.4853 299.614 31.752C299.166 32.008 298.803 32.3867 298.526 32.888C298.259 33.3787 298.126 33.9493 298.126 34.6C298.126 35.2613 298.259 35.8427 298.526 36.344C298.803 36.8347 299.166 37.2133 299.614 37.48C300.072 37.736 300.568 37.864 301.102 37.864C301.646 37.864 302.142 37.736 302.59 37.48C303.048 37.2133 303.411 36.8347 303.678 36.344C303.944 35.8427 304.078 35.256 304.078 34.584ZM308.938 27.16V39H307.482V27.16H308.938ZM319.42 34.28C319.42 34.5573 319.404 34.8507 319.372 35.16H312.364C312.417 36.024 312.71 36.7013 313.244 37.192C313.788 37.672 314.444 37.912 315.212 37.912C315.841 37.912 316.364 37.768 316.78 37.48C317.206 37.1813 317.505 36.7867 317.676 36.296H319.244C319.009 37.1387 318.54 37.8267 317.836 38.36C317.132 38.8827 316.257 39.144 315.212 39.144C314.38 39.144 313.633 38.9573 312.972 38.584C312.321 38.2107 311.809 37.6827 311.436 37C311.062 36.3067 310.876 35.5067 310.876 34.6C310.876 33.6933 311.057 32.8987 311.42 32.216C311.782 31.5333 312.289 31.0107 312.94 30.648C313.601 30.2747 314.358 30.088 315.212 30.088C316.044 30.088 316.78 30.2693 317.42 30.632C318.06 30.9947 318.55 31.496 318.892 32.136C319.244 32.7653 319.42 33.48 319.42 34.28ZM317.916 33.976C317.916 33.4213 317.793 32.9467 317.548 32.552C317.302 32.1467 316.966 31.8427 316.54 31.64C316.124 31.4267 315.66 31.32 315.148 31.32C314.412 31.32 313.782 31.5547 313.26 32.024C312.748 32.4933 312.454 33.144 312.38 33.976H317.916ZM323.117 31.432V36.6C323.117 37.0267 323.208 37.3307 323.389 37.512C323.571 37.6827 323.885 37.768 324.333 37.768H325.405V39H324.093C323.283 39 322.675 38.8133 322.269 38.44C321.864 38.0667 321.661 37.4533 321.661 36.6V31.432H320.525V30.232H321.661V28.024H323.117V30.232H325.405V31.432H323.117ZM335.17 34.28C335.17 34.5573 335.154 34.8507 335.122 35.16H328.114C328.167 36.024 328.46 36.7013 328.994 37.192C329.538 37.672 330.194 37.912 330.962 37.912C331.591 37.912 332.114 37.768 332.53 37.48C332.956 37.1813 333.255 36.7867 333.426 36.296H334.994C334.759 37.1387 334.29 37.8267 333.586 38.36C332.882 38.8827 332.007 39.144 330.962 39.144C330.13 39.144 329.383 38.9573 328.722 38.584C328.071 38.2107 327.559 37.6827 327.186 37C326.812 36.3067 326.626 35.5067 326.626 34.6C326.626 33.6933 326.807 32.8987 327.17 32.216C327.532 31.5333 328.039 31.0107 328.69 30.648C329.351 30.2747 330.108 30.088 330.962 30.088C331.794 30.088 332.53 30.2693 333.17 30.632C333.81 30.9947 334.3 31.496 334.642 32.136C334.994 32.7653 335.17 33.48 335.17 34.28ZM333.666 33.976C333.666 33.4213 333.543 32.9467 333.298 32.552C333.052 32.1467 332.716 31.8427 332.29 31.64C331.874 31.4267 331.41 31.32 330.898 31.32C330.162 31.32 329.532 31.5547 329.01 32.024C328.498 32.4933 328.204 33.144 328.13 33.976H333.666ZM336.547 34.584C336.547 33.688 336.729 32.904 337.091 32.232C337.454 31.5493 337.95 31.0213 338.579 30.648C339.219 30.2747 339.934 30.088 340.723 30.088C341.406 30.088 342.041 30.248 342.627 30.568C343.214 30.8773 343.662 31.288 343.971 31.8V27.16H345.443V39H343.971V37.352C343.683 37.8747 343.257 38.3067 342.691 38.648C342.126 38.9787 341.465 39.144 340.707 39.144C339.929 39.144 339.219 38.952 338.579 38.568C337.95 38.184 337.454 37.6453 337.091 36.952C336.729 36.2587 336.547 35.4693 336.547 34.584ZM343.971 34.6C343.971 33.9387 343.838 33.3627 343.571 32.872C343.305 32.3813 342.942 32.008 342.483 31.752C342.035 31.4853 341.539 31.352 340.995 31.352C340.451 31.352 339.955 31.48 339.507 31.736C339.059 31.992 338.702 32.3653 338.435 32.856C338.169 33.3467 338.035 33.9227 338.035 34.584C338.035 35.256 338.169 35.8427 338.435 36.344C338.702 36.8347 339.059 37.2133 339.507 37.48C339.955 37.736 340.451 37.864 340.995 37.864C341.539 37.864 342.035 37.736 342.483 37.48C342.942 37.2133 343.305 36.8347 343.571 36.344C343.838 35.8427 343.971 35.2613 343.971 34.6Z" fill="#202021" fill-opacity="0.85"/>
<rect x="244" y="20" width="2" height="25" rx="1" fill="#5627DE"/>
<rect x="528" y="28" width="2" height="2" rx="1" fill="#5627DE"/>
<rect x="528" y="32" width="2" height="2" rx="1" fill="#5627DE"/>
<rect x="528" y="36" width="2" height="2" rx="1" fill="#5627DE"/>
<g filter="url(#filter1_d_221_73)">
<rect x="10" y="10" width="208" height="120" rx="5" fill="#F8F8F8"/>
</g>
<rect x="67" y="32" width="132" height="3" rx="1.5" fill="#5627DE" fill-opacity="0.2"/>
<rect x="67" y="40" width="39" height="3" rx="1.5" fill="#5627DE" fill-opacity="0.2"/>
<rect x="67" y="48" width="71" height="3" rx="1.5" fill="#5627DE" fill-opacity="0.2"/>
<rect x="67" y="92" width="132" height="3" rx="1.5" fill="#5627DE" fill-opacity="0.2"/>
<rect x="67" y="100" width="39" height="3" rx="1.5" fill="#5627DE" fill-opacity="0.2"/>
<rect x="67" y="108" width="71" height="3" rx="1.5" fill="#5627DE" fill-opacity="0.2"/>
<line x1="29" y1="69.5" x2="199" y2="69.5" stroke="#D9D9D9"/>
<path fill-rule="evenodd" clip-rule="evenodd" d="M549 592.5C550.381 592.5 551.5 593.619 551.5 595C551.5 596.381 550.381 597.5 549 597.5C547.619 597.5 546.5 596.381 546.5 595C546.5 593.619 547.619 592.5 549 592.5Z" stroke="white" stroke-width="1.5" stroke-linecap="round" stroke-linejoin="round"/>
<path fill-rule="evenodd" clip-rule="evenodd" d="M557.168 590.25V590.25C556.484 589.058 554.971 588.65 553.789 589.339C552.76 589.936 551.474 589.188 551.474 587.992C551.474 586.616 550.366 585.5 549 585.5V585.5C547.634 585.5 546.525 586.616 546.525 587.992C546.525 589.188 545.24 589.936 544.212 589.339C543.028 588.65 541.515 589.058 540.832 590.25C540.149 591.443 540.554 592.967 541.738 593.654C542.765 594.253 542.765 595.747 541.738 596.346C540.554 597.034 540.149 598.558 540.832 599.75C541.515 600.942 543.028 601.35 544.211 600.662H544.212C545.24 600.064 546.525 600.812 546.525 602.008V602.008C546.525 603.384 547.634 604.5 549 604.5V604.5C550.366 604.5 551.474 603.384 551.474 602.008V602.008C551.474 600.812 552.76 600.064 553.789 600.662C554.971 601.35 556.484 600.942 557.168 599.75C557.852 598.558 557.446 597.034 556.263 596.346H556.262C555.234 595.747 555.234 594.253 556.263 593.654C557.446 592.967 557.852 591.443 557.168 590.25Z" stroke="white" stroke-width="1.5" stroke-linecap="round" stroke-linejoin="round"/>
<path fill-rule="evenodd" clip-rule="evenodd" d="M548.275 251.714C553.003 251.714 556.836 255.547 556.836 260.275C556.836 265.004 553.003 268.836 548.275 268.836C543.547 268.836 539.714 265.004 539.714 260.275C539.714 255.547 543.547 251.714 548.275 251.714Z" stroke="white" stroke-width="1.5" stroke-linecap="round" stroke-linejoin="round"/>
<path fill-rule="evenodd" clip-rule="evenodd" d="M556.899 267.488C557.678 267.488 558.309 268.12 558.309 268.898C558.309 269.678 557.678 270.309 556.899 270.309C556.12 270.309 555.487 269.678 555.487 268.898C555.487 268.12 556.12 267.488 556.899 267.488Z" stroke="white" stroke-width="1.5" stroke-linecap="round" stroke-linejoin="round"/>
<path d="M544.306 309.574H553.899" stroke="white" stroke-width="1.5" stroke-linecap="round" stroke-linejoin="round"/>
<path fill-rule="evenodd" clip-rule="evenodd" d="M539.5 302.798C539.5 300.356 540.75 298.259 543.122 297.773C545.493 297.285 547.295 297.454 548.792 298.261C550.29 299.069 549.861 300.261 551.4 301.136C552.94 302.013 555.417 300.696 557.035 302.442C558.729 304.27 558.72 307.076 558.72 308.864C558.72 315.66 554.913 316.199 549.11 316.199C543.307 316.199 539.5 315.729 539.5 308.864V302.798Z" stroke="white" stroke-width="1.5" stroke-linecap="round" stroke-linejoin="round"/>
<path fill-rule="evenodd" clip-rule="evenodd" d="M539.75 353C539.75 359.937 542.063 362.25 549 362.25C555.937 362.25 558.25 359.937 558.25 353C558.25 346.063 555.937 343.75 549 343.75C542.063 343.75 539.75 346.063 539.75 353Z" stroke="white" stroke-width="1.5" stroke-linecap="round" stroke-linejoin="round"/>
<path fill-rule="evenodd" clip-rule="evenodd" d="M545.698 356.302L547.272 351.272L552.302 349.698L550.728 354.727L545.698 356.302Z" stroke="white" stroke-width="1.5" stroke-linecap="round" stroke-linejoin="round"/>
<path d="M554.545 396.019C554.545 396.019 551.335 399.872 548.987 399.872C546.64 399.872 543.394 396.019 543.394 396.019" stroke="white" stroke-width="1.5" stroke-linecap="round" stroke-linejoin="round"/>
<path fill-rule="evenodd" clip-rule="evenodd" d="M539.452 398.969C539.452 392.131 541.833 389.852 548.976 389.852C556.119 389.852 558.5 392.131 558.5 398.969C558.5 405.806 556.119 408.086 548.976 408.086C541.833 408.086 539.452 405.806 539.452 398.969Z" stroke="white" stroke-width="1.5" stroke-linecap="round" stroke-linejoin="round"/>
<path d="M546.079 449.135H551.894" stroke="white" stroke-width="1.5" stroke-linecap="round" stroke-linejoin="round"/>
<path fill-rule="evenodd" clip-rule="evenodd" d="M539.4 446.713C539.4 441.082 540.014 441.475 543.319 438.41C544.765 437.246 547.015 435 548.958 435C550.9 435 553.195 437.235 554.654 438.41C557.959 441.475 558.572 441.082 558.572 446.713C558.572 455 556.613 455 548.986 455C541.359 455 539.4 455 539.4 446.713Z" stroke="white" stroke-width="1.5" stroke-linecap="round" stroke-linejoin="round"/>
<g filter="url(#filter2_d_221_73)">
<rect x="87" y="372" width="249" height="327" rx="7" fill="#F8F8F8"/>
</g>
<path d="M117.402 399.49V412H115.35V399.49H117.402ZM125.1 401.92C125.88 401.92 126.576 402.082 127.188 402.406C127.812 402.73 128.298 403.21 128.646 403.846C128.994 404.482 129.168 405.25 129.168 406.15V412H127.134V406.456C127.134 405.568 126.912 404.89 126.468 404.422C126.024 403.942 125.418 403.702 124.65 403.702C123.882 403.702 123.27 403.942 122.814 404.422C122.37 404.89 122.148 405.568 122.148 406.456V412H120.096V402.082H122.148V403.216C122.484 402.808 122.91 402.49 123.426 402.262C123.954 402.034 124.512 401.92 125.1 401.92ZM135.62 410.164L138.428 402.082H140.606L136.826 412H134.378L130.616 402.082H132.812L135.62 410.164ZM146.459 412.162C145.523 412.162 144.677 411.952 143.921 411.532C143.165 411.1 142.571 410.5 142.139 409.732C141.707 408.952 141.491 408.052 141.491 407.032C141.491 406.024 141.713 405.13 142.157 404.35C142.601 403.57 143.207 402.97 143.975 402.55C144.743 402.13 145.601 401.92 146.549 401.92C147.497 401.92 148.355 402.13 149.123 402.55C149.891 402.97 150.497 403.57 150.941 404.35C151.385 405.13 151.607 406.024 151.607 407.032C151.607 408.04 151.379 408.934 150.923 409.714C150.467 410.494 149.843 411.1 149.051 411.532C148.271 411.952 147.407 412.162 146.459 412.162ZM146.459 410.38C146.987 410.38 147.479 410.254 147.935 410.002C148.403 409.75 148.781 409.372 149.069 408.868C149.357 408.364 149.501 407.752 149.501 407.032C149.501 406.312 149.363 405.706 149.087 405.214C148.811 404.71 148.445 404.332 147.989 404.08C147.533 403.828 147.041 403.702 146.513 403.702C145.985 403.702 145.493 403.828 145.037 404.08C144.593 404.332 144.239 404.71 143.975 405.214C143.711 405.706 143.579 406.312 143.579 407.032C143.579 408.1 143.849 408.928 144.389 409.516C144.941 410.092 145.631 410.38 146.459 410.38ZM154.679 400.768C154.307 400.768 153.995 400.642 153.743 400.39C153.491 400.138 153.365 399.826 153.365 399.454C153.365 399.082 153.491 398.77 153.743 398.518C153.995 398.266 154.307 398.14 154.679 398.14C155.039 398.14 155.345 398.266 155.597 398.518C155.849 398.77 155.975 399.082 155.975 399.454C155.975 399.826 155.849 400.138 155.597 400.39C155.345 400.642 155.039 400.768 154.679 400.768ZM155.687 402.082V412H153.635V402.082H155.687ZM157.697 407.032C157.697 406.012 157.901 405.118 158.309 404.35C158.729 403.57 159.305 402.97 160.037 402.55C160.769 402.13 161.609 401.92 162.557 401.92C163.757 401.92 164.747 402.208 165.527 402.784C166.319 403.348 166.853 404.158 167.129 405.214H164.915C164.735 404.722 164.447 404.338 164.051 404.062C163.655 403.786 163.157 403.648 162.557 403.648C161.717 403.648 161.045 403.948 160.541 404.548C160.049 405.136 159.803 405.964 159.803 407.032C159.803 408.1 160.049 408.934 160.541 409.534C161.045 410.134 161.717 410.434 162.557 410.434C163.745 410.434 164.531 409.912 164.915 408.868H167.129C166.841 409.876 166.301 410.68 165.509 411.28C164.717 411.868 163.733 412.162 162.557 412.162C161.609 412.162 160.769 411.952 160.037 411.532C159.305 411.1 158.729 410.5 158.309 409.732C157.901 408.952 157.697 408.052 157.697 407.032ZM178.264 406.798C178.264 407.17 178.24 407.506 178.192 407.806H170.614C170.674 408.598 170.968 409.234 171.496 409.714C172.024 410.194 172.672 410.434 173.44 410.434C174.544 410.434 175.324 409.972 175.78 409.048H177.994C177.694 409.96 177.148 410.71 176.356 411.298C175.576 411.874 174.604 412.162 173.44 412.162C172.492 412.162 171.64 411.952 170.884 411.532C170.14 411.1 169.552 410.5 169.12 409.732C168.7 408.952 168.49 408.052 168.49 407.032C168.49 406.012 168.694 405.118 169.102 404.35C169.522 403.57 170.104 402.97 170.848 402.55C171.604 402.13 172.468 401.92 173.44 401.92C174.376 401.92 175.21 402.124 175.942 402.532C176.674 402.94 177.244 403.516 177.652 404.26C178.06 404.992 178.264 405.838 178.264 406.798ZM176.122 406.15C176.11 405.394 175.84 404.788 175.312 404.332C174.784 403.876 174.13 403.648 173.35 403.648C172.642 403.648 172.036 403.876 171.532 404.332C171.028 404.776 170.728 405.382 170.632 406.15H176.122Z" fill="#202021" fill-opacity="0.85"/>
<path d="M258.97 504.5V503.252H261.466V512H260.086V504.5H258.97ZM264.101 510.14C264.869 509.476 265.473 508.932 265.913 508.508C266.361 508.076 266.733 507.628 267.029 507.164C267.325 506.7 267.473 506.236 267.473 505.772C267.473 505.292 267.357 504.916 267.125 504.644C266.901 504.372 266.545 504.236 266.057 504.236C265.585 504.236 265.217 504.388 264.953 504.692C264.697 504.988 264.561 505.388 264.545 505.892H263.225C263.249 504.98 263.521 504.284 264.041 503.804C264.569 503.316 265.237 503.072 266.045 503.072C266.917 503.072 267.597 503.312 268.085 503.792C268.581 504.272 268.829 504.912 268.829 505.712C268.829 506.288 268.681 506.844 268.385 507.38C268.097 507.908 267.749 508.384 267.341 508.808C266.941 509.224 266.429 509.708 265.805 510.26L265.265 510.74H269.069V511.88H263.237V510.884L264.101 510.14ZM270.271 507.512C270.271 506.128 270.503 505.048 270.967 504.272C271.439 503.488 272.247 503.096 273.391 503.096C274.535 503.096 275.339 503.488 275.803 504.272C276.275 505.048 276.511 506.128 276.511 507.512C276.511 508.912 276.275 510.008 275.803 510.8C275.339 511.584 274.535 511.976 273.391 511.976C272.247 511.976 271.439 511.584 270.967 510.8C270.503 510.008 270.271 508.912 270.271 507.512ZM275.167 507.512C275.167 506.864 275.123 506.316 275.035 505.868C274.955 505.42 274.787 505.056 274.531 504.776C274.275 504.488 273.895 504.344 273.391 504.344C272.887 504.344 272.507 504.488 272.251 504.776C271.995 505.056 271.823 505.42 271.735 505.868C271.655 506.316 271.615 506.864 271.615 507.512C271.615 508.184 271.655 508.748 271.735 509.204C271.815 509.66 271.983 510.028 272.239 510.308C272.503 510.588 272.887 510.728 273.391 510.728C273.895 510.728 274.275 510.588 274.531 510.308C274.795 510.028 274.967 509.66 275.047 509.204C275.127 508.748 275.167 508.184 275.167 507.512ZM277.958 507.512C277.958 506.128 278.19 505.048 278.654 504.272C279.126 503.488 279.934 503.096 281.078 503.096C282.222 503.096 283.026 503.488 283.49 504.272C283.962 505.048 284.198 506.128 284.198 507.512C284.198 508.912 283.962 510.008 283.49 510.8C283.026 511.584 282.222 511.976 281.078 511.976C279.934 511.976 279.126 511.584 278.654 510.8C278.19 510.008 277.958 508.912 277.958 507.512ZM282.854 507.512C282.854 506.864 282.81 506.316 282.722 505.868C282.642 505.42 282.474 505.056 282.218 504.776C281.962 504.488 281.582 504.344 281.078 504.344C280.574 504.344 280.194 504.488 279.938 504.776C279.682 505.056 279.51 505.42 279.422 505.868C279.342 506.316 279.302 506.864 279.302 507.512C279.302 508.184 279.342 508.748 279.422 509.204C279.502 509.66 279.67 510.028 279.926 510.308C280.19 510.588 280.574 510.728 281.078 510.728C281.582 510.728 281.962 510.588 282.218 510.308C282.482 510.028 282.654 509.66 282.734 509.204C282.814 508.748 282.854 508.184 282.854 507.512ZM286.378 512.084C286.13 512.084 285.922 512 285.754 511.832C285.586 511.664 285.502 511.456 285.502 511.208C285.502 510.96 285.586 510.752 285.754 510.584C285.922 510.416 286.13 510.332 286.378 510.332C286.618 510.332 286.822 510.416 286.99 510.584C287.158 510.752 287.242 510.96 287.242 511.208C287.242 511.456 287.158 511.664 286.99 511.832C286.822 512 286.618 512.084 286.378 512.084ZM288.54 507.512C288.54 506.128 288.772 505.048 289.236 504.272C289.708 503.488 290.516 503.096 291.66 503.096C292.804 503.096 293.608 503.488 294.072 504.272C294.544 505.048 294.78 506.128 294.78 507.512C294.78 508.912 294.544 510.008 294.072 510.8C293.608 511.584 292.804 511.976 291.66 511.976C290.516 511.976 289.708 511.584 289.236 510.8C288.772 510.008 288.54 508.912 288.54 507.512ZM293.436 507.512C293.436 506.864 293.392 506.316 293.304 505.868C293.224 505.42 293.056 505.056 292.8 504.776C292.544 504.488 292.164 504.344 291.66 504.344C291.156 504.344 290.776 504.488 290.52 504.776C290.264 505.056 290.092 505.42 290.004 505.868C289.924 506.316 289.884 506.864 289.884 507.512C289.884 508.184 289.924 508.748 290.004 509.204C290.084 509.66 290.252 510.028 290.508 510.308C290.772 510.588 291.156 510.728 291.66 510.728C292.164 510.728 292.544 510.588 292.8 510.308C293.064 510.028 293.236 509.66 293.316 509.204C293.396 508.748 293.436 508.184 293.436 507.512ZM296.228 507.512C296.228 506.128 296.46 505.048 296.924 504.272C297.396 503.488 298.204 503.096 299.348 503.096C300.492 503.096 301.296 503.488 301.76 504.272C302.232 505.048 302.468 506.128 302.468 507.512C302.468 508.912 302.232 510.008 301.76 510.8C301.296 511.584 300.492 511.976 299.348 511.976C298.204 511.976 297.396 511.584 296.924 510.8C296.46 510.008 296.228 508.912 296.228 507.512ZM301.124 507.512C301.124 506.864 301.08 506.316 300.992 505.868C300.912 505.42 300.744 505.056 300.488 504.776C300.232 504.488 299.852 504.344 299.348 504.344C298.844 504.344 298.464 504.488 298.208 504.776C297.952 505.056 297.78 505.42 297.692 505.868C297.612 506.316 297.572 506.864 297.572 507.512C297.572 508.184 297.612 508.748 297.692 509.204C297.772 509.66 297.94 510.028 298.196 510.308C298.46 510.588 298.844 510.728 299.348 510.728C299.852 510.728 300.232 510.588 300.488 510.308C300.752 510.028 300.924 509.66 301.004 509.204C301.084 508.748 301.124 508.184 301.124 507.512ZM309.723 509.624C309.723 510.024 309.623 510.4 309.423 510.752C309.231 511.104 308.943 511.4 308.559 511.64C308.183 511.88 307.735 512.024 307.215 512.072V513.044H306.435V512.072C305.683 512 305.075 511.764 304.611 511.364C304.147 510.964 303.915 510.436 303.915 509.78H305.379C305.403 510.092 305.503 510.352 305.679 510.56C305.855 510.76 306.107 510.888 306.435 510.944V508.304C305.899 508.168 305.463 508.032 305.127 507.896C304.791 507.752 304.503 507.528 304.263 507.224C304.031 506.92 303.915 506.504 303.915 505.976C303.915 505.312 304.147 504.764 304.611 504.332C305.075 503.892 305.683 503.636 306.435 503.564V502.592H307.215V503.564C307.919 503.628 308.483 503.852 308.907 504.236C309.339 504.612 309.583 505.132 309.639 505.796H308.175C308.151 505.548 308.055 505.328 307.887 505.136C307.719 504.936 307.495 504.8 307.215 504.728V507.32C307.751 507.448 308.187 507.584 308.523 507.728C308.859 507.864 309.143 508.084 309.375 508.388C309.607 508.684 309.723 509.096 309.723 509.624ZM305.307 505.904C305.307 506.232 305.403 506.488 305.595 506.672C305.795 506.856 306.075 507.004 306.435 507.116V504.692C306.091 504.732 305.815 504.856 305.607 505.064C305.407 505.272 305.307 505.552 305.307 505.904ZM307.215 510.944C307.567 510.888 307.843 510.748 308.043 510.524C308.243 510.292 308.343 510.016 308.343 509.696C308.343 509.376 308.243 509.128 308.043 508.952C307.851 508.768 307.575 508.62 307.215 508.508V510.944Z" fill="#202021" fill-opacity="0.85"/>
<path d="M256.091 542.412C256.139 541.668 256.423 541.088 256.943 540.672C257.471 540.256 258.143 540.048 258.959 540.048C259.519 540.048 260.003 540.148 260.411 540.348C260.819 540.548 261.127 540.82 261.335 541.164C261.543 541.508 261.647 541.896 261.647 542.328C261.647 542.824 261.515 543.248 261.251 543.6C260.987 543.952 260.671 544.188 260.303 544.308V544.356C260.775 544.5 261.143 544.764 261.407 545.148C261.671 545.524 261.803 546.008 261.803 546.6C261.803 547.072 261.695 547.492 261.479 547.86C261.263 548.228 260.943 548.52 260.519 548.736C260.095 548.944 259.587 549.048 258.995 549.048C258.131 549.048 257.419 548.828 256.859 548.388C256.307 547.94 256.011 547.3 255.971 546.468H257.291C257.323 546.892 257.487 547.24 257.783 547.512C258.079 547.776 258.479 547.908 258.983 547.908C259.471 547.908 259.847 547.776 260.111 547.512C260.375 547.24 260.507 546.892 260.507 546.468C260.507 545.908 260.327 545.512 259.967 545.28C259.615 545.04 259.071 544.92 258.335 544.92H258.023V543.792H258.347C258.995 543.784 259.487 543.676 259.823 543.468C260.167 543.26 260.339 542.932 260.339 542.484C260.339 542.1 260.215 541.796 259.967 541.572C259.719 541.34 259.367 541.224 258.911 541.224C258.463 541.224 258.115 541.34 257.867 541.572C257.619 541.796 257.471 542.076 257.423 542.412H256.091ZM268.88 541.428H264.86V543.816C265.028 543.592 265.276 543.404 265.604 543.252C265.94 543.1 266.296 543.024 266.672 543.024C267.344 543.024 267.888 543.168 268.304 543.456C268.728 543.744 269.028 544.108 269.204 544.548C269.388 544.988 269.48 545.452 269.48 545.94C269.48 546.532 269.364 547.06 269.132 547.524C268.908 547.98 268.568 548.34 268.112 548.604C267.664 548.868 267.112 549 266.456 549C265.584 549 264.884 548.784 264.356 548.352C263.828 547.92 263.512 547.348 263.408 546.636H264.74C264.828 547.012 265.024 547.312 265.328 547.536C265.632 547.752 266.012 547.86 266.468 547.86C267.036 547.86 267.46 547.688 267.74 547.344C268.028 547 268.172 546.544 268.172 545.976C268.172 545.4 268.028 544.96 267.74 544.656C267.452 544.344 267.028 544.188 266.468 544.188C266.076 544.188 265.744 544.288 265.472 544.488C265.208 544.68 265.016 544.944 264.896 545.28H263.6V540.228H268.88V541.428ZM270.904 544.512C270.904 543.128 271.136 542.048 271.6 541.272C272.072 540.488 272.88 540.096 274.024 540.096C275.168 540.096 275.972 540.488 276.436 541.272C276.908 542.048 277.144 543.128 277.144 544.512C277.144 545.912 276.908 547.008 276.436 547.8C275.972 548.584 275.168 548.976 274.024 548.976C272.88 548.976 272.072 548.584 271.6 547.8C271.136 547.008 270.904 545.912 270.904 544.512ZM275.8 544.512C275.8 543.864 275.756 543.316 275.668 542.868C275.588 542.42 275.42 542.056 275.164 541.776C274.908 541.488 274.528 541.344 274.024 541.344C273.52 541.344 273.14 541.488 272.884 541.776C272.628 542.056 272.456 542.42 272.368 542.868C272.288 543.316 272.248 543.864 272.248 544.512C272.248 545.184 272.288 545.748 272.368 546.204C272.448 546.66 272.616 547.028 272.872 547.308C273.136 547.588 273.52 547.728 274.024 547.728C274.528 547.728 274.908 547.588 275.164 547.308C275.428 547.028 275.6 546.66 275.68 546.204C275.76 545.748 275.8 545.184 275.8 544.512ZM278.591 544.512C278.591 543.128 278.823 542.048 279.287 541.272C279.759 540.488 280.567 540.096 281.711 540.096C282.855 540.096 283.659 540.488 284.123 541.272C284.595 542.048 284.831 543.128 284.831 544.512C284.831 545.912 284.595 547.008 284.123 547.8C283.659 548.584 282.855 548.976 281.711 548.976C280.567 548.976 279.759 548.584 279.287 547.8C278.823 547.008 278.591 545.912 278.591 544.512ZM283.487 544.512C283.487 543.864 283.443 543.316 283.355 542.868C283.275 542.42 283.107 542.056 282.851 541.776C282.595 541.488 282.215 541.344 281.711 541.344C281.207 541.344 280.827 541.488 280.571 541.776C280.315 542.056 280.143 542.42 280.055 542.868C279.975 543.316 279.935 543.864 279.935 544.512C279.935 545.184 279.975 545.748 280.055 546.204C280.135 546.66 280.303 547.028 280.559 547.308C280.823 547.588 281.207 547.728 281.711 547.728C282.215 547.728 282.595 547.588 282.851 547.308C283.115 547.028 283.287 546.66 283.367 546.204C283.447 545.748 283.487 545.184 283.487 544.512ZM287.011 549.084C286.763 549.084 286.555 549 286.387 548.832C286.219 548.664 286.135 548.456 286.135 548.208C286.135 547.96 286.219 547.752 286.387 547.584C286.555 547.416 286.763 547.332 287.011 547.332C287.251 547.332 287.455 547.416 287.623 547.584C287.791 547.752 287.875 547.96 287.875 548.208C287.875 548.456 287.791 548.664 287.623 548.832C287.455 549 287.251 549.084 287.011 549.084ZM289.149 542.412C289.197 541.668 289.481 541.088 290.001 540.672C290.529 540.256 291.201 540.048 292.017 540.048C292.577 540.048 293.061 540.148 293.469 540.348C293.877 540.548 294.185 540.82 294.393 541.164C294.601 541.508 294.705 541.896 294.705 542.328C294.705 542.824 294.573 543.248 294.309 543.6C294.045 543.952 293.729 544.188 293.361 544.308V544.356C293.833 544.5 294.201 544.764 294.465 545.148C294.729 545.524 294.861 546.008 294.861 546.6C294.861 547.072 294.753 547.492 294.537 547.86C294.321 548.228 294.001 548.52 293.577 548.736C293.153 548.944 292.645 549.048 292.053 549.048C291.189 549.048 290.477 548.828 289.917 548.388C289.365 547.94 289.069 547.3 289.029 546.468H290.349C290.381 546.892 290.545 547.24 290.841 547.512C291.137 547.776 291.537 547.908 292.041 547.908C292.529 547.908 292.905 547.776 293.169 547.512C293.433 547.24 293.565 546.892 293.565 546.468C293.565 545.908 293.385 545.512 293.025 545.28C292.673 545.04 292.129 544.92 291.393 544.92H291.081V543.792H291.405C292.053 543.784 292.545 543.676 292.881 543.468C293.225 543.26 293.397 542.932 293.397 542.484C293.397 542.1 293.273 541.796 293.025 541.572C292.777 541.34 292.425 541.224 291.969 541.224C291.521 541.224 291.173 541.34 290.925 541.572C290.677 541.796 290.529 542.076 290.481 542.412H289.149ZM298.002 546.624C298.082 547.024 298.254 547.328 298.518 547.536C298.782 547.744 299.138 547.848 299.586 547.848C300.154 547.848 300.57 547.624 300.834 547.176C301.098 546.728 301.23 545.964 301.23 544.884C301.038 545.156 300.766 545.368 300.414 545.52C300.07 545.664 299.694 545.736 299.286 545.736C298.766 545.736 298.294 545.632 297.87 545.424C297.446 545.208 297.11 544.892 296.862 544.476C296.622 544.052 296.502 543.54 296.502 542.94C296.502 542.06 296.758 541.36 297.27 540.84C297.79 540.312 298.502 540.048 299.406 540.048C300.494 540.048 301.266 540.412 301.722 541.14C302.186 541.86 302.418 542.968 302.418 544.464C302.418 545.496 302.33 546.34 302.154 546.996C301.986 547.652 301.69 548.148 301.266 548.484C300.842 548.82 300.254 548.988 299.502 548.988C298.646 548.988 297.986 548.764 297.522 548.316C297.058 547.868 296.798 547.304 296.742 546.624H298.002ZM299.526 544.584C300.006 544.584 300.382 544.436 300.654 544.14C300.934 543.836 301.074 543.436 301.074 542.94C301.074 542.388 300.926 541.96 300.63 541.656C300.342 541.344 299.946 541.188 299.442 541.188C298.938 541.188 298.538 541.348 298.242 541.668C297.954 541.98 297.81 542.392 297.81 542.904C297.81 543.392 297.95 543.796 298.23 544.116C298.518 544.428 298.95 544.584 299.526 544.584ZM309.723 546.624C309.723 547.024 309.623 547.4 309.423 547.752C309.231 548.104 308.943 548.4 308.559 548.64C308.183 548.88 307.735 549.024 307.215 549.072V550.044H306.435V549.072C305.683 549 305.075 548.764 304.611 548.364C304.147 547.964 303.915 547.436 303.915 546.78H305.379C305.403 547.092 305.503 547.352 305.679 547.56C305.855 547.76 306.107 547.888 306.435 547.944V545.304C305.899 545.168 305.463 545.032 305.127 544.896C304.791 544.752 304.503 544.528 304.263 544.224C304.031 543.92 303.915 543.504 303.915 542.976C303.915 542.312 304.147 541.764 304.611 541.332C305.075 540.892 305.683 540.636 306.435 540.564V539.592H307.215V540.564C307.919 540.628 308.483 540.852 308.907 541.236C309.339 541.612 309.583 542.132 309.639 542.796H308.175C308.151 542.548 308.055 542.328 307.887 542.136C307.719 541.936 307.495 541.8 307.215 541.728V544.32C307.751 544.448 308.187 544.584 308.523 544.728C308.859 544.864 309.143 545.084 309.375 545.388C309.607 545.684 309.723 546.096 309.723 546.624ZM305.307 542.904C305.307 543.232 305.403 543.488 305.595 543.672C305.795 543.856 306.075 544.004 306.435 544.116V541.692C306.091 541.732 305.815 541.856 305.607 542.064C305.407 542.272 305.307 542.552 305.307 542.904ZM307.215 547.944C307.567 547.888 307.843 547.748 308.043 547.524C308.243 547.292 308.343 547.016 308.343 546.696C308.343 546.376 308.243 546.128 308.043 545.952C307.851 545.768 307.575 545.62 307.215 545.508V547.944Z" fill="#202021" fill-opacity="0.85"/>
<path d="M270.119 582.308L266.783 590H265.403L268.775 582.452H264.335V581.288H270.119V582.308ZM272.766 585.428C271.934 585.012 271.518 584.356 271.518 583.46C271.518 583.028 271.626 582.632 271.842 582.272C272.058 581.912 272.382 581.628 272.814 581.42C273.246 581.204 273.774 581.096 274.398 581.096C275.014 581.096 275.538 581.204 275.97 581.42C276.41 581.628 276.738 581.912 276.954 582.272C277.17 582.632 277.278 583.028 277.278 583.46C277.278 583.908 277.162 584.304 276.93 584.648C276.706 584.984 276.406 585.244 276.03 585.428C276.486 585.596 276.846 585.872 277.11 586.256C277.374 586.632 277.506 587.076 277.506 587.588C277.506 588.108 277.374 588.568 277.11 588.968C276.846 589.368 276.478 589.676 276.006 589.892C275.534 590.108 274.998 590.216 274.398 590.216C273.798 590.216 273.262 590.108 272.79 589.892C272.326 589.676 271.962 589.368 271.698 588.968C271.434 588.568 271.302 588.108 271.302 587.588C271.302 587.068 271.434 586.62 271.698 586.244C271.962 585.868 272.318 585.596 272.766 585.428ZM275.97 583.628C275.97 583.18 275.83 582.836 275.55 582.596C275.27 582.356 274.886 582.236 274.398 582.236C273.918 582.236 273.538 582.356 273.258 582.596C272.978 582.836 272.838 583.184 272.838 583.64C272.838 584.04 272.982 584.368 273.27 584.624C273.566 584.872 273.942 584.996 274.398 584.996C274.854 584.996 275.23 584.868 275.526 584.612C275.822 584.356 275.97 584.028 275.97 583.628ZM274.398 586.028C273.87 586.028 273.438 586.16 273.102 586.424C272.774 586.68 272.61 587.052 272.61 587.54C272.61 587.996 272.77 588.368 273.09 588.656C273.41 588.936 273.846 589.076 274.398 589.076C274.942 589.076 275.37 588.932 275.682 588.644C276.002 588.356 276.162 587.988 276.162 587.54C276.162 587.06 275.998 586.688 275.67 586.424C275.35 586.16 274.926 586.028 274.398 586.028ZM284.583 582.428H280.563V584.816C280.731 584.592 280.979 584.404 281.307 584.252C281.643 584.1 281.999 584.024 282.375 584.024C283.047 584.024 283.591 584.168 284.007 584.456C284.431 584.744 284.731 585.108 284.907 585.548C285.091 585.988 285.183 586.452 285.183 586.94C285.183 587.532 285.067 588.06 284.835 588.524C284.611 588.98 284.271 589.34 283.815 589.604C283.367 589.868 282.815 590 282.159 590C281.287 590 280.587 589.784 280.059 589.352C279.531 588.92 279.215 588.348 279.111 587.636H280.443C280.531 588.012 280.727 588.312 281.031 588.536C281.335 588.752 281.715 588.86 282.171 588.86C282.739 588.86 283.163 588.688 283.443 588.344C283.731 588 283.875 587.544 283.875 586.976C283.875 586.4 283.731 585.96 283.443 585.656C283.155 585.344 282.731 585.188 282.171 585.188C281.779 585.188 281.447 585.288 281.175 585.488C280.911 585.68 280.719 585.944 280.599 586.28H279.303V581.228H284.583V582.428ZM287.339 590.084C287.091 590.084 286.883 590 286.715 589.832C286.547 589.664 286.463 589.456 286.463 589.208C286.463 588.96 286.547 588.752 286.715 588.584C286.883 588.416 287.091 588.332 287.339 588.332C287.579 588.332 287.783 588.416 287.951 588.584C288.119 588.752 288.203 588.96 288.203 589.208C288.203 589.456 288.119 589.664 287.951 589.832C287.783 590 287.579 590.084 287.339 590.084ZM295.045 582.308L291.709 590H290.329L293.701 582.452H289.261V581.288H295.045V582.308ZM300.92 583.28C300.832 582.912 300.672 582.636 300.44 582.452C300.208 582.268 299.884 582.176 299.468 582.176C298.836 582.176 298.364 582.42 298.052 582.908C297.74 583.388 297.576 584.188 297.56 585.308C297.768 584.956 298.072 584.684 298.472 584.492C298.872 584.3 299.304 584.204 299.768 584.204C300.296 584.204 300.76 584.32 301.16 584.552C301.568 584.776 301.884 585.104 302.108 585.536C302.34 585.968 302.456 586.484 302.456 587.084C302.456 587.644 302.344 588.144 302.12 588.584C301.904 589.024 301.58 589.372 301.148 589.628C300.716 589.876 300.196 590 299.588 590C298.764 590 298.116 589.82 297.644 589.46C297.18 589.092 296.852 588.576 296.66 587.912C296.476 587.248 296.384 586.42 296.384 585.428C296.384 582.5 297.416 581.036 299.48 581.036C300.28 581.036 300.908 581.252 301.364 581.684C301.828 582.116 302.1 582.648 302.18 583.28H300.92ZM299.468 585.356C298.98 585.356 298.564 585.504 298.22 585.8C297.884 586.088 297.716 586.508 297.716 587.06C297.716 587.612 297.872 588.052 298.184 588.38C298.504 588.7 298.948 588.86 299.516 588.86C300.02 588.86 300.416 588.704 300.704 588.392C301 588.08 301.148 587.664 301.148 587.144C301.148 586.6 301.004 586.168 300.716 585.848C300.436 585.52 300.02 585.356 299.468 585.356ZM309.723 587.624C309.723 588.024 309.623 588.4 309.423 588.752C309.231 589.104 308.943 589.4 308.559 589.64C308.183 589.88 307.735 590.024 307.215 590.072V591.044H306.435V590.072C305.683 590 305.075 589.764 304.611 589.364C304.147 588.964 303.915 588.436 303.915 587.78H305.379C305.403 588.092 305.503 588.352 305.679 588.56C305.855 588.76 306.107 588.888 306.435 588.944V586.304C305.899 586.168 305.463 586.032 305.127 585.896C304.791 585.752 304.503 585.528 304.263 585.224C304.031 584.92 303.915 584.504 303.915 583.976C303.915 583.312 304.147 582.764 304.611 582.332C305.075 581.892 305.683 581.636 306.435 581.564V580.592H307.215V581.564C307.919 581.628 308.483 581.852 308.907 582.236C309.339 582.612 309.583 583.132 309.639 583.796H308.175C308.151 583.548 308.055 583.328 307.887 583.136C307.719 582.936 307.495 582.8 307.215 582.728V585.32C307.751 585.448 308.187 585.584 308.523 585.728C308.859 585.864 309.143 586.084 309.375 586.388C309.607 586.684 309.723 587.096 309.723 587.624ZM305.307 583.904C305.307 584.232 305.403 584.488 305.595 584.672C305.795 584.856 306.075 585.004 306.435 585.116V582.692C306.091 582.732 305.815 582.856 305.607 583.064C305.407 583.272 305.307 583.552 305.307 583.904ZM307.215 588.944C307.567 588.888 307.843 588.748 308.043 588.524C308.243 588.292 308.343 588.016 308.343 587.696C308.343 587.376 308.243 587.128 308.043 586.952C307.851 586.768 307.575 586.62 307.215 586.508V588.944Z" fill="#202021" fill-opacity="0.85"/>
<path d="M254.106 621.5V620.252H256.602V629H255.222V621.5H254.106ZM264.122 621.428H260.102V623.816C260.27 623.592 260.518 623.404 260.846 623.252C261.182 623.1 261.538 623.024 261.914 623.024C262.586 623.024 263.13 623.168 263.546 623.456C263.97 623.744 264.27 624.108 264.446 624.548C264.63 624.988 264.722 625.452 264.722 625.94C264.722 626.532 264.606 627.06 264.374 627.524C264.15 627.98 263.81 628.34 263.354 628.604C262.906 628.868 262.354 629 261.698 629C260.826 629 260.126 628.784 259.598 628.352C259.07 627.92 258.754 627.348 258.65 626.636H259.982C260.07 627.012 260.266 627.312 260.57 627.536C260.874 627.752 261.254 627.86 261.71 627.86C262.278 627.86 262.702 627.688 262.982 627.344C263.27 627 263.414 626.544 263.414 625.976C263.414 625.4 263.27 624.96 262.982 624.656C262.694 624.344 262.27 624.188 261.71 624.188C261.318 624.188 260.986 624.288 260.714 624.488C260.45 624.68 260.258 624.944 260.138 625.28H258.842V620.228H264.122V621.428ZM266.146 624.512C266.146 623.128 266.378 622.048 266.842 621.272C267.314 620.488 268.122 620.096 269.266 620.096C270.41 620.096 271.214 620.488 271.678 621.272C272.15 622.048 272.386 623.128 272.386 624.512C272.386 625.912 272.15 627.008 271.678 627.8C271.214 628.584 270.41 628.976 269.266 628.976C268.122 628.976 267.314 628.584 266.842 627.8C266.378 627.008 266.146 625.912 266.146 624.512ZM271.042 624.512C271.042 623.864 270.998 623.316 270.91 622.868C270.83 622.42 270.662 622.056 270.406 621.776C270.15 621.488 269.77 621.344 269.266 621.344C268.762 621.344 268.382 621.488 268.126 621.776C267.87 622.056 267.698 622.42 267.61 622.868C267.53 623.316 267.49 623.864 267.49 624.512C267.49 625.184 267.53 625.748 267.61 626.204C267.69 626.66 267.858 627.028 268.114 627.308C268.378 627.588 268.762 627.728 269.266 627.728C269.77 627.728 270.15 627.588 270.406 627.308C270.67 627.028 270.842 626.66 270.922 626.204C271.002 625.748 271.042 625.184 271.042 624.512ZM273.833 624.512C273.833 623.128 274.065 622.048 274.529 621.272C275.001 620.488 275.809 620.096 276.953 620.096C278.097 620.096 278.901 620.488 279.365 621.272C279.837 622.048 280.073 623.128 280.073 624.512C280.073 625.912 279.837 627.008 279.365 627.8C278.901 628.584 278.097 628.976 276.953 628.976C275.809 628.976 275.001 628.584 274.529 627.8C274.065 627.008 273.833 625.912 273.833 624.512ZM278.729 624.512C278.729 623.864 278.685 623.316 278.597 622.868C278.517 622.42 278.349 622.056 278.093 621.776C277.837 621.488 277.457 621.344 276.953 621.344C276.449 621.344 276.069 621.488 275.813 621.776C275.557 622.056 275.385 622.42 275.297 622.868C275.217 623.316 275.177 623.864 275.177 624.512C275.177 625.184 275.217 625.748 275.297 626.204C275.377 626.66 275.545 627.028 275.801 627.308C276.065 627.588 276.449 627.728 276.953 627.728C277.457 627.728 277.837 627.588 278.093 627.308C278.357 627.028 278.529 626.66 278.609 626.204C278.689 625.748 278.729 625.184 278.729 624.512ZM281.521 624.512C281.521 623.128 281.753 622.048 282.217 621.272C282.689 620.488 283.497 620.096 284.641 620.096C285.785 620.096 286.589 620.488 287.053 621.272C287.525 622.048 287.761 623.128 287.761 624.512C287.761 625.912 287.525 627.008 287.053 627.8C286.589 628.584 285.785 628.976 284.641 628.976C283.497 628.976 282.689 628.584 282.217 627.8C281.753 627.008 281.521 625.912 281.521 624.512ZM286.417 624.512C286.417 623.864 286.373 623.316 286.285 622.868C286.205 622.42 286.037 622.056 285.781 621.776C285.525 621.488 285.145 621.344 284.641 621.344C284.137 621.344 283.757 621.488 283.501 621.776C283.245 622.056 283.073 622.42 282.985 622.868C282.905 623.316 282.865 623.864 282.865 624.512C282.865 625.184 282.905 625.748 282.985 626.204C283.065 626.66 283.233 627.028 283.489 627.308C283.753 627.588 284.137 627.728 284.641 627.728C285.145 627.728 285.525 627.588 285.781 627.308C286.045 627.028 286.217 626.66 286.297 626.204C286.377 625.748 286.417 625.184 286.417 624.512ZM289.94 629.084C289.692 629.084 289.484 629 289.316 628.832C289.148 628.664 289.064 628.456 289.064 628.208C289.064 627.96 289.148 627.752 289.316 627.584C289.484 627.416 289.692 627.332 289.94 627.332C290.18 627.332 290.384 627.416 290.552 627.584C290.72 627.752 290.804 627.96 290.804 628.208C290.804 628.456 290.72 628.664 290.552 628.832C290.384 629 290.18 629.084 289.94 629.084ZM293.807 626.624C293.887 627.024 294.059 627.328 294.323 627.536C294.587 627.744 294.943 627.848 295.391 627.848C295.959 627.848 296.375 627.624 296.639 627.176C296.903 626.728 297.035 625.964 297.035 624.884C296.843 625.156 296.571 625.368 296.219 625.52C295.875 625.664 295.499 625.736 295.091 625.736C294.571 625.736 294.099 625.632 293.675 625.424C293.251 625.208 292.915 624.892 292.667 624.476C292.427 624.052 292.307 623.54 292.307 622.94C292.307 622.06 292.563 621.36 293.075 620.84C293.595 620.312 294.307 620.048 295.211 620.048C296.299 620.048 297.071 620.412 297.527 621.14C297.991 621.86 298.223 622.968 298.223 624.464C298.223 625.496 298.135 626.34 297.959 626.996C297.791 627.652 297.495 628.148 297.071 628.484C296.647 628.82 296.059 628.988 295.307 628.988C294.451 628.988 293.791 628.764 293.327 628.316C292.863 627.868 292.603 627.304 292.547 626.624H293.807ZM295.331 624.584C295.811 624.584 296.187 624.436 296.459 624.14C296.739 623.836 296.879 623.436 296.879 622.94C296.879 622.388 296.731 621.96 296.435 621.656C296.147 621.344 295.751 621.188 295.247 621.188C294.743 621.188 294.343 621.348 294.047 621.668C293.759 621.98 293.615 622.392 293.615 622.904C293.615 623.392 293.755 623.796 294.035 624.116C294.323 624.428 294.755 624.584 295.331 624.584ZM299.54 621.5V620.252H302.036V629H300.656V621.5H299.54ZM309.723 626.624C309.723 627.024 309.623 627.4 309.423 627.752C309.231 628.104 308.943 628.4 308.559 628.64C308.183 628.88 307.735 629.024 307.215 629.072V630.044H306.435V629.072C305.683 629 305.075 628.764 304.611 628.364C304.147 627.964 303.915 627.436 303.915 626.78H305.379C305.403 627.092 305.503 627.352 305.679 627.56C305.855 627.76 306.107 627.888 306.435 627.944V625.304C305.899 625.168 305.463 625.032 305.127 624.896C304.791 624.752 304.503 624.528 304.263 624.224C304.031 623.92 303.915 623.504 303.915 622.976C303.915 622.312 304.147 621.764 304.611 621.332C305.075 620.892 305.683 620.636 306.435 620.564V619.592H307.215V620.564C307.919 620.628 308.483 620.852 308.907 621.236C309.339 621.612 309.583 622.132 309.639 622.796H308.175C308.151 622.548 308.055 622.328 307.887 622.136C307.719 621.936 307.495 621.8 307.215 621.728V624.32C307.751 624.448 308.187 624.584 308.523 624.728C308.859 624.864 309.143 625.084 309.375 625.388C309.607 625.684 309.723 626.096 309.723 626.624ZM305.307 622.904C305.307 623.232 305.403 623.488 305.595 623.672C305.795 623.856 306.075 624.004 306.435 624.116V621.692C306.091 621.732 305.815 621.856 305.607 622.064C305.407 622.272 305.307 622.552 305.307 622.904ZM307.215 627.944C307.567 627.888 307.843 627.748 308.043 627.524C308.243 627.292 308.343 627.016 308.343 626.696C308.343 626.376 308.243 626.128 308.043 625.952C307.851 625.768 307.575 625.62 307.215 625.508V627.944Z" fill="#202021" fill-opacity="0.85"/>
<rect x="115" y="422" width="104" height="3" fill="#D9D9D9"/>
<rect x="115" y="463" width="104" height="3" fill="#D9D9D9"/>
<rect x="115" y="506" width="104" height="3" fill="#D9D9D9"/>
<rect x="115" y="543" width="104" height="3" fill="#D9D9D9"/>
<rect x="141" y="650" width="67" height="21" rx="3" fill="#D9D9D9"/>
<rect x="215" y="650" width="67" height="21" rx="3" fill="#03BA36" fill-opacity="0.8"/>
<rect x="115" y="432" width="158" height="3" fill="#D9D9D9"/>
<rect x="115" y="473" width="158" height="3" fill="#D9D9D9"/>
<rect x="115" y="448" width="196" height="1" fill="#D9D9D9"/>
<rect x="115" y="489" width="196" height="1" fill="#D9D9D9"/>
<rect x="115" y="524" width="196" height="1" fill="#D9D9D9"/>
<rect x="115" y="565" width="196" height="1" fill="#D9D9D9"/>
<rect x="115" y="606" width="196" height="1" fill="#D9D9D9"/>
<path d="M59 99.9984C59 102.012 58.6043 103.933 57.8836 105.686C56.1432 109.93 52.511 113.202 48.0359 114.447C47.7303 114.534 47.4182 114.611 47.103 114.675C46.1024 114.887 45.0633 114.997 44.0016 114.997C43.4708 114.997 42.9464 114.971 42.4284 114.916C42.0906 114.881 41.756 114.833 41.4247 114.775C40.9871 114.698 40.5592 114.604 40.1346 114.492C39.5619 114.34 38.9989 114.154 38.4552 113.935C37.1973 113.436 36.0231 112.771 34.9582 111.966C33.2627 110.686 31.8504 109.051 30.8273 107.176C29.6627 105.043 29 102.598 29 99.9984C29 91.7142 35.7174 85 44.0016 85C52.2858 85 59 91.7142 59 99.9984Z" fill="#EDDDD6"/>
<path d="M48.0358 114.447C46.7521 114.807 45.3977 114.997 44.0015 114.997C43.1232 114.997 42.261 114.923 41.4245 114.775C40.987 114.698 40.5591 114.604 40.1344 114.492C39.5618 114.34 38.9988 114.154 38.4551 113.935L39.52 103.212L45.3269 101.842L47.6369 102.527L48.0358 114.447Z" fill="#F7734F"/>
<path d="M40.3986 92.3383C40.3986 92.3383 38.1948 89.623 38.79 89.2627C39.3852 88.9056 39.9482 89.4525 39.9482 89.4525C39.9482 89.4525 44.4393 88.7447 46.0768 89.2112C47.7144 89.6777 48.8114 92.3576 48.8114 92.3576C48.8114 92.3576 49.6318 92.2804 49.9825 93.4032C50.3299 94.5228 47.9138 100.037 46.3664 99.7474C44.8254 99.4579 40.3986 92.3383 40.3986 92.3383Z" fill="black"/>
<path d="M46.3503 98.8595L46.4275 102.611C46.4275 102.611 45.7744 103.701 43.5835 103.927C41.9524 104.094 41.3701 103.733 41.3701 103.733L41.5599 101.829L41.7465 99.9726L45.6908 99.0204L46.3503 98.8595Z" fill="#FCA397"/>
<path d="M45.6904 99.0204C45.684 99.1233 45.6454 99.2456 45.5874 99.3839C44.7864 101.276 42.499 101.723 41.5596 101.829L41.7462 99.9727L45.6904 99.0204Z" fill="black"/>
<path d="M40.7363 91.4408C40.7363 91.4408 38.864 96.1828 39.6908 98.7791C40.5208 101.375 42.8951 100.877 44.3074 100.32C45.7197 99.7635 46.3503 98.8627 46.3503 98.8627C46.3503 98.8627 47.7015 99.2681 48.5508 97.9941C49.4001 96.7201 48.7985 95.3142 48.0232 95.015C47.2479 94.7158 46.3631 95.2981 46.3631 95.2981L47.0259 93.9147C47.0259 93.9115 43.7894 87.1233 40.7363 91.4408Z" fill="#FCA397"/>
<path d="M40.7363 91.4408C40.7363 91.4408 42.1969 90.852 42.8178 91.3668C43.442 91.8815 44.1755 96.2279 46.3631 95.2949C48.5508 94.362 47.4184 91.5759 47.4184 91.5759C47.4184 91.5759 41.917 86.8628 40.7363 91.4408Z" fill="black"/>
<path d="M41.5601 101.829C41.5601 101.829 40.8748 108.154 40.1349 114.492C36.1231 113.427 32.774 110.741 30.8276 107.176C32.018 105.928 33.9225 103.84 35.5665 103.174C38.4362 102.009 41.5601 101.829 41.5601 101.829Z" fill="#507849"/>
<path d="M43.1138 104.116C42.1454 104.116 41.3894 103.904 41.325 103.885C41.2414 103.859 41.1899 103.772 41.2156 103.685C41.2414 103.598 41.3315 103.55 41.4151 103.576C41.4473 103.586 44.6258 104.473 46.3052 102.505C46.3631 102.437 46.466 102.431 46.5336 102.485C46.6012 102.543 46.6108 102.646 46.5529 102.714C45.5845 103.846 44.2108 104.116 43.1138 104.116Z" fill="white"/>
<path d="M57.8836 105.686C56.1431 109.93 52.5109 113.202 48.0359 114.447C47.7303 114.533 47.4182 114.611 47.1029 114.675C46.6461 109.73 46.4048 101.05 46.4048 101.05C46.4048 101.05 52.9034 100.696 57.8836 105.686Z" fill="#507849"/>
<path d="M46.5333 97.3861C46.4947 97.3861 46.4529 97.37 46.4207 97.341C46.3564 97.2799 46.3564 97.177 46.4175 97.1126L47.5982 95.8901C47.6593 95.8258 47.7623 95.8258 47.8266 95.8869C47.891 95.948 47.891 96.051 47.8299 96.1153L46.6492 97.3378C46.617 97.37 46.5752 97.3861 46.5333 97.3861Z" fill="black"/>
<path d="M48.1291 97.0868C48.1162 97.0868 48.1033 97.0836 48.0872 97.0804L47.0674 96.8134C46.9805 96.7909 46.9291 96.704 46.9516 96.6171C46.9741 96.5303 47.061 96.4788 47.1478 96.5013L48.1677 96.7683C48.2545 96.7909 48.306 96.8777 48.2835 96.9646C48.2674 97.0386 48.2031 97.0868 48.1291 97.0868Z" fill="black"/>
<path d="M40.4271 93.5705C40.3917 93.5705 40.3595 93.5608 40.3306 93.5383C40.2598 93.4836 40.2469 93.3871 40.2984 93.3163C40.3113 93.3003 40.6201 92.8981 41.3922 93.0107C41.4791 93.0236 41.5402 93.104 41.5274 93.1941C41.5145 93.2809 41.4308 93.3421 41.344 93.3292C40.7713 93.2456 40.5622 93.4997 40.5526 93.5094C40.5236 93.548 40.4753 93.5705 40.4271 93.5705Z" fill="black"/>
<path d="M43.9596 93.6156C43.9242 93.6156 43.8856 93.6027 43.8567 93.577C43.4417 93.2327 42.9655 93.3582 42.9623 93.3614C42.8754 93.3839 42.7886 93.3357 42.7628 93.2488C42.7403 93.1619 42.7886 93.0751 42.8754 93.0493C42.9012 93.0429 43.5221 92.8756 44.0626 93.3292C44.1301 93.3872 44.1398 93.4869 44.0819 93.5544C44.0529 93.5963 44.0047 93.6156 43.9596 93.6156Z" fill="black"/>
<path d="M40.5817 95.4397C40.4788 95.4332 40.4144 95.3528 40.4209 95.2659L40.4916 94.3941C40.4981 94.304 40.5721 94.2429 40.6654 94.2461C40.7522 94.2525 40.8198 94.3297 40.8133 94.4198L40.7426 95.2917C40.7361 95.3753 40.6654 95.4397 40.5817 95.4397Z" fill="black"/>
<path d="M43.1652 95.5459C43.0623 95.5394 42.9979 95.459 43.0043 95.3721L43.0751 94.5003C43.0816 94.4134 43.1556 94.3491 43.2489 94.3523C43.3357 94.3587 43.4033 94.4359 43.3968 94.526L43.3261 95.3979C43.3196 95.4815 43.2489 95.5459 43.1652 95.5459Z" fill="black"/>
<path d="M41.209 97.5212C41.1479 97.5212 41.0899 97.4858 41.061 97.4247C40.5141 96.1989 41.3344 95.2113 41.3698 95.1694C41.4277 95.1019 41.5275 95.0922 41.595 95.1501C41.6626 95.2081 41.6723 95.3078 41.6143 95.3753C41.5854 95.4107 40.8905 96.2536 41.3538 97.2896C41.3891 97.37 41.3538 97.4665 41.2733 97.5019C41.254 97.518 41.2315 97.5212 41.209 97.5212Z" fill="black"/>
<path d="M42.2321 98.3062C42.1421 98.3062 42.0713 98.2354 42.0713 98.1453C42.0713 98.0552 42.1421 97.9844 42.2321 97.9844C42.2547 97.9844 42.8016 97.9748 42.9978 97.5083C43.0332 97.4247 43.1265 97.3861 43.2069 97.4214C43.2874 97.4568 43.326 97.5501 43.2938 97.6306C43.0107 98.2997 42.2643 98.3062 42.2321 98.3062Z" fill="black"/>
<path d="M59 40C59 42.8636 58.1956 45.5405 56.8057 47.8185C54.1705 52.1268 49.4215 55 44 55C39.4794 55 35.4254 52.9987 32.6776 49.8359C30.3867 47.204 29 43.7613 29 40C29 31.7149 35.7149 25 44 25C52.2851 25 59 31.7149 59 40Z" fill="#EDDDD6"/>
<path d="M45.4927 35.8494C45.4927 35.8494 47.9122 34.704 48.1761 36.6023C48.485 38.7999 45.8466 38.9221 45.8466 38.9221L45.4927 35.8494Z" fill="#F27E64"/>
<path d="M46.7865 37.8024C46.7607 37.8024 46.735 37.796 46.7125 37.7831C46.6353 37.7413 46.6031 37.6448 46.6449 37.5643L47.4107 36.1261C47.4525 36.0489 47.549 36.0167 47.6295 36.0585C47.7067 36.1004 47.7389 36.1969 47.697 36.2773L46.9313 37.7156C46.8991 37.7703 46.8444 37.8024 46.7865 37.8024Z" fill="black"/>
<path d="M47.0243 37.3584C46.9374 37.3584 46.8666 37.2876 46.8634 37.2007C46.8602 37.1107 46.931 37.0399 47.021 37.0367L47.7225 37.0206C47.8093 37.0238 47.8833 37.0881 47.8866 37.1782C47.8898 37.2683 47.819 37.3391 47.7289 37.3423L47.0275 37.3584H47.0243Z" fill="black"/>
<path d="M56.8058 47.8186C55.8566 49.3694 54.634 50.7336 53.2054 51.8404C53.1121 51.9177 53.0188 51.9884 52.9223 52.056C50.4287 53.9093 47.3431 55 44.0001 55C41.9956 55 40.0812 54.6075 38.3341 53.8932C38.2344 53.8514 38.1346 53.8095 38.0349 53.7645C35.9628 52.8668 34.1353 51.5155 32.6777 49.8359C33.2794 47.9666 34.4023 46.1905 36.4036 45.0644C41.513 42.1911 49.1642 42.1911 52.5683 43.8063C54.6597 44.7973 56.04 46.5734 56.8058 47.8186Z" fill="#7772D3"/>
<path d="M46.4838 33.6679C46.4838 33.6679 48.0829 31.0907 47.7579 29.9903C47.4362 28.8899 45.9947 29.9678 45.9947 29.9678C45.9947 29.9678 45.6666 27.5965 43.9034 28.0566C41.5546 28.6679 39.2187 32.8089 39.2187 32.8089C39.2187 32.8089 38.0218 32.5096 37.6164 33.5585C37.1466 34.7812 37.5585 36.1486 38.3146 37.3681C39.0707 38.5875 41.1138 37.5804 41.1138 37.5804L46.4838 33.6679Z" fill="black"/>
<path d="M41.5225 41.1294L41.6093 43.9543C41.6093 43.9543 42.655 44.5013 43.9356 44.4723C45.6634 44.4337 46.22 43.6744 46.22 43.6744L46.0688 40.0129L41.5225 41.1294Z" fill="#F27E64"/>
<path d="M41.5225 41.0618C41.5225 41.0618 42.6164 43.1821 44.563 42.8153C46.1331 42.5193 46.0688 40.2928 46.0688 40.2928L41.5225 41.0618Z" fill="black"/>
<path d="M46.4837 33.668C46.4837 33.668 47.3493 38.5779 46.4741 40.4955C45.4928 42.648 42.9799 42.3616 42.079 41.7214C40.8628 40.8591 40.3383 39.4659 40.3383 39.4659C40.3383 39.4659 38.7296 39.852 38.1375 38.5489C37.5166 37.1815 38.4818 36.0199 39.2926 35.9234C40.1002 35.8269 40.2032 35.9685 40.2032 35.9685L39.9072 34.4948C39.904 34.4981 44.624 28.8224 46.4837 33.668Z" fill="#F27E64"/>
<path d="M40.2001 35.9717C40.2001 35.9717 41.2523 36.0103 42.4395 35.0644C43.8327 33.9575 43.6139 32.1268 43.6139 32.1268C43.6139 32.1268 46.1493 33.5811 46.7799 35.4955C47.4106 37.4099 47.4009 30.9106 44.5952 31.1454C41.7896 31.3835 38.0476 33.2143 40.2001 35.9717Z" fill="black"/>
<path d="M40.0102 38.1403C39.9748 38.1403 39.9394 38.1274 39.9104 38.1049L38.617 37.0785C38.5462 37.0238 38.5366 36.9208 38.5913 36.8533C38.646 36.7825 38.7489 36.7728 38.8165 36.8275L40.1099 37.8539C40.1807 37.9086 40.1904 38.0116 40.1357 38.0791C40.1035 38.1178 40.0585 38.1403 40.0102 38.1403Z" fill="black"/>
<path d="M38.8615 38.3816C38.8133 38.3816 38.7682 38.3623 38.7361 38.3237C38.6814 38.2561 38.691 38.1531 38.7586 38.0984L39.4761 37.5129C39.5437 37.4582 39.6466 37.4678 39.7013 37.5354C39.756 37.6029 39.7464 37.7059 39.6788 37.7606L38.9613 38.3462C38.9323 38.3687 38.8969 38.3816 38.8615 38.3816Z" fill="black"/>
<path d="M42.6936 36.7021C42.6132 36.7021 42.5424 36.6409 42.5328 36.5573L42.4555 35.7626C42.4459 35.6757 42.5102 35.5953 42.6003 35.5856C42.6872 35.5792 42.7676 35.6403 42.7773 35.7304L42.8545 36.5251C42.8642 36.612 42.7998 36.6924 42.7097 36.7021C42.7033 36.7021 42.6969 36.7021 42.6936 36.7021Z" fill="black"/>
<path d="M45.7825 36.5862C45.7021 36.5862 45.6313 36.5251 45.6216 36.4414L45.5444 35.6467C45.5348 35.5599 45.5991 35.4794 45.6892 35.4698C45.7793 35.4633 45.8565 35.5245 45.8662 35.6146L45.9434 36.4093C45.953 36.4961 45.8887 36.5766 45.7986 36.5862C45.7922 36.5862 45.7857 36.5862 45.7825 36.5862Z" fill="black"/>
<path d="M44.6497 38.5489C44.64 38.5489 44.6336 38.5489 44.624 38.5457C44.5371 38.5328 44.4759 38.4492 44.4888 38.3623C44.6722 37.1911 44.2572 36.2355 44.2539 36.2259C44.2185 36.1454 44.2539 36.0489 44.3344 36.0135C44.4148 35.9781 44.5113 36.0135 44.5467 36.094C44.566 36.1358 45.0068 37.1429 44.8073 38.4106C44.7945 38.4942 44.7269 38.5489 44.6497 38.5489Z" fill="black"/>
<path d="M46.0529 34.926C46.0175 34.926 45.9821 34.9131 45.9531 34.8906C45.7344 34.7137 45.345 34.6944 45.2131 34.7008C45.1262 34.704 45.049 34.6364 45.0426 34.5496C45.0394 34.4595 45.1069 34.3855 45.1938 34.379C45.2163 34.379 45.7955 34.3501 46.1526 34.6397C46.2202 34.6944 46.2331 34.7973 46.1784 34.8649C46.1462 34.9035 46.1011 34.926 46.0529 34.926Z" fill="black"/>
<path d="M42.4297 35.0451C42.3814 35.0451 42.3331 35.0225 42.301 34.9839C42.2463 34.9131 42.2591 34.8134 42.3299 34.7587C42.6935 34.4756 43.2694 34.5142 43.2952 34.5142C43.382 34.5206 43.4496 34.5978 43.4432 34.6847C43.4367 34.7748 43.366 34.8391 43.2727 34.8327C43.2662 34.8327 42.7932 34.8037 42.5294 35.0097C42.5005 35.0354 42.4651 35.0451 42.4297 35.0451Z" fill="black"/>
<path d="M39.8233 35.9942C39.8233 35.9942 40.3896 37.4324 40.5762 37.3648C40.7629 37.2973 40.3542 35.0128 39.804 34.9421C39.2506 34.8713 39.8233 35.9942 39.8233 35.9942Z" fill="black"/>
<path d="M43.9452 44.6268C42.4523 44.6268 41.0623 43.9736 41.0366 43.964C40.9561 43.9254 40.924 43.8288 40.9626 43.7484C41.0012 43.668 41.0977 43.6326 41.1781 43.6712C41.2168 43.6905 45.1904 45.5534 46.6865 42.8024C46.7283 42.7252 46.8281 42.6963 46.9053 42.7381C46.9825 42.7799 47.0115 42.8797 46.9697 42.9569C46.2618 44.2535 45.0713 44.6268 43.9452 44.6268Z" fill="#FFBF69"/>
<path d="M44.0645 39.7876C43.5915 39.7876 43.3341 39.4981 43.2569 39.3082C43.2247 39.2246 43.2633 39.1313 43.347 39.0991C43.4274 39.0669 43.5207 39.1055 43.5561 39.186C43.5754 39.2278 43.7524 39.5914 44.3573 39.4241C44.4409 39.4015 44.531 39.4498 44.5568 39.5367C44.5793 39.6236 44.531 39.7104 44.4442 39.7362C44.3058 39.7716 44.1771 39.7876 44.0645 39.7876Z" fill="black"/>
<path d="M38.6975 51.9852L38.3339 53.8932C38.2342 53.8513 38.1344 53.8095 38.0347 53.7645L38.3854 51.924C38.4015 51.8372 38.4851 51.7793 38.5752 51.7953C38.6621 51.8147 38.7168 51.8951 38.6975 51.9852Z" fill="#FFBF69"/>
<g clip-path="url(#clip0_221_73)">
<g opacity="0.1">
<path d="M547.678 97H554.587L560.011 103.256L554.587 109.481H547.678L553.101 103.256L547.678 97Z" fill="#D0C6EE"/>
<path d="M542.344 97L536.356 123H541.687L547.672 97H542.344Z" fill="#D0C6EE"/>
</g>
<path d="M546.322 97H553.231L558.655 103.256L553.231 109.481H546.322L551.745 103.256L546.322 97Z" fill="#EEECF3"/>
<path d="M540.988 97L535 123H540.331L546.316 97H540.988Z" fill="#EEECF3"/>
</g>
<defs>
<filter id="filter0_d_221_73" x="182" y="59" width="335" height="455" filterUnits="userSpaceOnUse" color-interpolation-filters="sRGB">
<feFlood flood-opacity="0" result="BackgroundImageFix"/>
<feColorMatrix in="SourceAlpha" type="matrix" values="0 0 0 0 0 0 0 0 0 0 0 0 0 0 0 0 0 0 127 0" result="hardAlpha"/>
<feMorphology radius="4" operator="erode" in="SourceAlpha" result="effect1_dropShadow_221_73"/>
<feOffset dy="4"/>
<feGaussianBlur stdDeviation="10.5"/>
<feComposite in2="hardAlpha" operator="out"/>
<feColorMatrix type="matrix" values="0 0 0 0 0 0 0 0 0 0 0 0 0 0 0 0 0 0 0.17 0"/>
<feBlend mode="normal" in2="BackgroundImageFix" result="effect1_dropShadow_221_73"/>
<feBlend mode="normal" in="SourceGraphic" in2="effect1_dropShadow_221_73" result="shape"/>
</filter>
<filter id="filter1_d_221_73" x="0" y="0" width="228" height="140" filterUnits="userSpaceOnUse" color-interpolation-filters="sRGB">
<feFlood flood-opacity="0" result="BackgroundImageFix"/>
<feColorMatrix in="SourceAlpha" type="matrix" values="0 0 0 0 0 0 0 0 0 0 0 0 0 0 0 0 0 0 127 0" result="hardAlpha"/>
<feMorphology radius="2" operator="erode" in="SourceAlpha" result="effect1_dropShadow_221_73"/>
<feOffset/>
<feGaussianBlur stdDeviation="6"/>
<feComposite in2="hardAlpha" operator="out"/>
<feColorMatrix type="matrix" values="0 0 0 0 0 0 0 0 0 0 0 0 0 0 0 0 0 0 0.1 0"/>
<feBlend mode="normal" in2="BackgroundImageFix" result="effect1_dropShadow_221_73"/>
<feBlend mode="normal" in="SourceGraphic" in2="effect1_dropShadow_221_73" result="shape"/>
</filter>
<filter id="filter2_d_221_73" x="78" y="347" width="287" height="365" filterUnits="userSpaceOnUse" color-interpolation-filters="sRGB">
<feFlood flood-opacity="0" result="BackgroundImageFix"/>
<feColorMatrix in="SourceAlpha" type="matrix" values="0 0 0 0 0 0 0 0 0 0 0 0 0 0 0 0 0 0 127 0" result="hardAlpha"/>
<feMorphology radius="3" operator="erode" in="SourceAlpha" result="effect1_dropShadow_221_73"/>
<feOffset dx="10" dy="-6"/>
<feGaussianBlur stdDeviation="11"/>
<feComposite in2="hardAlpha" operator="out"/>
<feColorMatrix type="matrix" values="0 0 0 0 0 0 0 0 0 0 0 0 0 0 0 0 0 0 0.11 0"/>
<feBlend mode="normal" in2="BackgroundImageFix" result="effect1_dropShadow_221_73"/>
<feBlend mode="normal" in="SourceGraphic" in2="effect1_dropShadow_221_73" result="shape"/>
</filter>
<linearGradient id="paint0_linear_221_73" x1="239.5" y1="154.987" x2="382.359" y2="150.473" gradientUnits="userSpaceOnUse">
<stop stop-color="#FDFDFD"/>
<stop offset="1" stop-color="#F2F2F2" stop-opacity="0"/>
</linearGradient>
<linearGradient id="paint1_linear_221_73" x1="239.5" y1="200.732" x2="382.359" y2="196.218" gradientUnits="userSpaceOnUse">
<stop stop-color="#FDFDFD"/>
<stop offset="1" stop-color="#F2F2F2" stop-opacity="0"/>
</linearGradient>
<linearGradient id="paint2_linear_221_73" x1="239.65" y1="169.328" x2="339.845" y2="168.32" gradientUnits="userSpaceOnUse">
<stop stop-color="#FDFDFD"/>
<stop offset="1" stop-color="#F2F2F2" stop-opacity="0"/>
</linearGradient>
<linearGradient id="paint3_linear_221_73" x1="239.781" y1="186.922" x2="302.407" y2="186.528" gradientUnits="userSpaceOnUse">
<stop stop-color="#FDFDFD"/>
<stop offset="1" stop-color="#F2F2F2" stop-opacity="0"/>
</linearGradient>
<linearGradient id="paint4_linear_221_73" x1="239.719" y1="211.289" x2="320.067" y2="209.862" gradientUnits="userSpaceOnUse">
<stop stop-color="#FDFDFD"/>
<stop offset="1" stop-color="#F2F2F2" stop-opacity="0"/>
</linearGradient>
<linearGradient id="paint5_linear_221_73" x1="404.679" y1="154.987" x2="496.496" y2="153.123" gradientUnits="userSpaceOnUse">
<stop stop-color="#FDFDFD"/>
<stop offset="1" stop-color="#F2F2F2" stop-opacity="0"/>
</linearGradient>
<linearGradient id="paint6_linear_221_73" x1="404.679" y1="200.732" x2="496.496" y2="198.869" gradientUnits="userSpaceOnUse">
<stop stop-color="#FDFDFD"/>
<stop offset="1" stop-color="#F2F2F2" stop-opacity="0"/>
</linearGradient>
<linearGradient id="paint7_linear_221_73" x1="404.775" y1="169.328" x2="469.138" y2="168.912" gradientUnits="userSpaceOnUse">
<stop stop-color="#FDFDFD"/>
<stop offset="1" stop-color="#F2F2F2" stop-opacity="0"/>
</linearGradient>
<linearGradient id="paint8_linear_221_73" x1="404.859" y1="186.922" x2="445.087" y2="186.76" gradientUnits="userSpaceOnUse">
<stop stop-color="#FDFDFD"/>
<stop offset="1" stop-color="#F2F2F2" stop-opacity="0"/>
</linearGradient>
<linearGradient id="paint9_linear_221_73" x1="404.819" y1="211.289" x2="456.439" y2="210.7" gradientUnits="userSpaceOnUse">
<stop stop-color="#FDFDFD"/>
<stop offset="1" stop-color="#F2F2F2" stop-opacity="0"/>
</linearGradient>
<clipPath id="clip0_221_73">
<rect width="25" height="26" fill="white" transform="translate(535 97)"/>
</clipPath>
</defs>
</svg>
