<svg width="50" height="50" viewBox="0 0 50 50" fill="none" xmlns="http://www.w3.org/2000/svg">
<rect width="50" height="50" rx="3" fill="url(#paint0_linear_256_112)"/>
<path d="M0 35.8718V47C0 48.6569 1.34315 50 3 50H13C14.6569 50 16 48.6569 16 47V37.4334C16 36.4546 15.5226 35.5375 14.7209 34.976L10.5587 32.0611C9.62974 31.4106 8.41337 31.3394 7.41495 31.8773L0 35.8718Z" fill="url(#paint1_linear_256_112)"/>
<path d="M23.6258 24.8031L3.15799 46.632C1.96034 47.9093 2.866 50 4.61696 50H47C48.6569 50 50 48.6569 50 47V40.1586C50 39.1265 49.4695 38.1668 48.5954 37.618L27.4097 24.3144C26.1939 23.551 24.6077 23.7558 23.6258 24.8031Z" fill="url(#paint2_linear_256_112)"/>
<circle cx="12" cy="16" r="5" fill="url(#paint3_linear_256_112)"/>
<defs>
<linearGradient id="paint0_linear_256_112" x1="25" y1="0" x2="25" y2="50" gradientUnits="userSpaceOnUse">
<stop stop-color="#DCEDFF" stop-opacity="0.3"/>
<stop offset="1" stop-color="#DCEDFF"/>
</linearGradient>
<linearGradient id="paint1_linear_256_112" x1="8" y1="31" x2="8" y2="50" gradientUnits="userSpaceOnUse">
<stop stop-color="#A1CDFF" stop-opacity="0.5"/>
<stop offset="1" stop-color="#A1CDFF"/>
</linearGradient>
<linearGradient id="paint2_linear_256_112" x1="25" y1="23" x2="25" y2="50" gradientUnits="userSpaceOnUse">
<stop stop-color="#1885FF" stop-opacity="0.5"/>
<stop offset="0.348958" stop-color="#1885FF" stop-opacity="0.8"/>
<stop offset="1" stop-color="#1885FF"/>
</linearGradient>
<linearGradient id="paint3_linear_256_112" x1="12" y1="11" x2="12" y2="21" gradientUnits="userSpaceOnUse">
<stop stop-color="#1885FF"/>
<stop offset="1" stop-color="#1885FF" stop-opacity="0.85"/>
</linearGradient>
</defs>
</svg>
