<svg width="637" height="593" viewBox="0 0 637 593" fill="none" xmlns="http://www.w3.org/2000/svg">
<g clip-path="url(#clip0_56_69)">
<path d="M57.94 459.738C117.643 444.061 171.092 405.713 205.084 354.188C215.55 338.318 224.42 320.564 225.153 301.56C225.886 282.555 216.759 262.2 199.438 254.35C179.765 245.426 154.695 256.035 144.143 274.879C133.591 293.722 136.197 318.093 147.196 336.679C158.196 355.266 176.472 368.621 196.075 377.694C253.301 404.202 321.663 396.605 379.683 371.865C437.704 347.124 487.487 306.846 536.449 267.082" stroke="url(#paint0_linear_56_69)" stroke-miterlimit="10"/>
<path d="M541.174 231.265C553.384 203.477 574.558 179.713 600.463 163.89C596.01 184.68 591.266 205.322 586.82 226.119C586.622 227.053 586.416 227.992 586.217 228.926L582.697 245.398C582.459 246.533 580.794 246.411 580.721 245.261L579.992 234.296C579.881 232.631 581.739 231.565 583.115 232.513L583.256 232.604C584.366 233.358 584.425 234.976 583.376 235.81C575.335 242.265 567.293 248.72 559.251 255.174L550.855 229.198C537.825 233.119 522.473 226.882 515.857 214.991L600.218 164.003C577.736 187.166 559.676 221.274 561.027 253.525" stroke="black" stroke-opacity="0.3" stroke-miterlimit="10"/>
</g>
<defs>
<linearGradient id="paint0_linear_56_69" x1="536" y1="269.5" x2="49" y2="461" gradientUnits="userSpaceOnUse">
<stop stop-opacity="0"/>
<stop offset="0.515625" stop-opacity="0.35"/>
<stop offset="1" stop-opacity="0"/>
</linearGradient>
<clipPath id="clip0_56_69">
<rect width="610.02" height="262.27" fill="white" transform="translate(0 390.542) rotate(-39.8076)"/>
</clipPath>
</defs>
</svg>
