<svg width="92" height="92" viewBox="0 0 92 92" fill="none" xmlns="http://www.w3.org/2000/svg">
<rect width="91.5618" height="91.5618" fill="#EEFBFF"/>
<path d="M68.5055 31.1808C66.9937 31.8315 65.4043 32.2845 63.7766 32.5288C64.5376 32.3984 65.6573 31.0286 66.103 30.4742C66.7801 29.6379 67.2962 28.6832 67.6249 27.6586C67.6249 27.5825 67.701 27.4738 67.6249 27.4195C67.5866 27.3985 67.5436 27.3876 67.4999 27.3876C67.4562 27.3876 67.4133 27.3985 67.3749 27.4195C65.6075 28.3766 63.7265 29.1071 61.7764 29.5937C61.7084 29.6144 61.6361 29.6163 61.5671 29.5991C61.4982 29.5818 61.4352 29.5461 61.385 29.4958C61.2332 29.3151 61.0698 29.1444 60.8958 28.9849C60.1004 28.2722 59.198 27.689 58.2216 27.2564C56.9035 26.7157 55.4798 26.4815 54.058 26.5715C52.6784 26.6587 51.3315 27.0287 50.101 27.6586C48.8893 28.3228 47.8243 29.225 46.9701 30.3111C46.0716 31.4291 45.423 32.7264 45.0677 34.116C44.7748 35.4377 44.7416 36.8038 44.9699 38.1382C44.9699 38.3665 44.9699 38.3991 44.7742 38.3665C37.0232 37.2251 30.6637 34.4747 25.4674 28.5718C25.2391 28.3109 25.1195 28.3109 24.9347 28.5718C22.6736 32.007 23.7715 37.4425 26.598 40.1276C26.9785 40.4864 27.3698 40.8342 27.7829 41.1604C26.487 41.0684 25.2228 40.7172 24.0651 40.1276C23.8476 39.9863 23.7281 40.0624 23.7172 40.3233C23.6864 40.685 23.6864 41.0487 23.7172 41.4104C23.944 43.1439 24.6272 44.786 25.6968 46.1689C26.7664 47.5517 28.1841 48.6257 29.8049 49.281C30.2 49.4502 30.6117 49.5777 31.0333 49.6614C29.8336 49.8976 28.6032 49.9344 27.3916 49.7701C27.1307 49.7158 27.0328 49.8571 27.1307 50.1071C28.7287 54.4555 32.1965 55.7818 34.7403 56.521C35.0882 56.5754 35.4361 56.5754 35.8274 56.6623C35.8274 56.6623 35.8274 56.6623 35.7622 56.7276C35.0121 58.0973 31.9791 59.0213 30.5876 59.4996C28.0478 60.4119 25.3399 60.7606 22.6518 60.5215C22.2279 60.4563 22.13 60.4672 22.0213 60.5215C21.9126 60.5759 22.0213 60.6954 22.1409 60.8042C22.6845 61.1629 23.228 61.4782 23.7933 61.7825C25.4762 62.7004 27.2553 63.4296 29.0983 63.9567C38.643 66.5875 49.3835 64.6525 56.5474 57.532C62.1786 51.9443 64.1571 44.2368 64.1571 36.5185C64.1571 36.2249 64.5159 36.051 64.7224 35.8988C66.1471 34.7888 67.4031 33.4778 68.4511 32.007C68.6326 31.7878 68.7257 31.5086 68.712 31.2243V31.2243C68.712 31.0612 68.712 31.0939 68.5055 31.1808Z" fill="#33CCFF"/>
</svg>
