<svg width="92" height="92" viewBox="0 0 92 92" fill="none" xmlns="http://www.w3.org/2000/svg">
<rect width="91.5618" height="91.5618" fill="#EEFAFF"/>
<path d="M21 24.5838C21 22.6057 22.6561 21 24.6975 21H67.3325C69.3747 21 71.03 22.6057 71.03 24.5838V67.4468C71.03 69.4255 69.3747 71.03 67.3325 71.03H24.6975C22.6563 71.03 21 69.4257 21 67.4474V24.5832V24.5838Z" fill="#006699"/>
<path d="M36.2032 62.8686V40.345H28.7167V62.8686H36.204H36.2032ZM32.4615 37.2703C35.0717 37.2703 36.6967 35.5407 36.6967 33.3793C36.6478 31.1686 35.0717 29.4873 32.5111 29.4873C29.9489 29.4873 28.2754 31.1686 28.2754 33.3791C28.2754 35.5405 29.8998 37.2701 32.4124 37.2701H32.4609L32.4615 37.2703ZM40.3471 62.8686H47.833V50.2918C47.833 49.6195 47.8819 48.9455 48.0796 48.4653C48.6206 47.1198 49.8524 45.7269 51.921 45.7269C54.6293 45.7269 55.7133 47.7922 55.7133 50.8204V62.8686H63.1991V49.9543C63.1991 43.0363 59.5062 39.8169 54.5808 39.8169C50.5426 39.8169 48.7691 42.074 47.7838 43.6112H47.8336V40.3458H40.3475C40.4452 42.4588 40.3469 62.8694 40.3469 62.8694L40.3471 62.8686Z" fill="white"/>
</svg>
