<svg width="92" height="92" viewBox="0 0 92 92" fill="none" xmlns="http://www.w3.org/2000/svg">
<rect y="0.0727539" width="91.5618" height="91.5618" fill="#FFEBF7"/>
<path d="M46.0274 22.7346C58.9331 22.7346 69.375 33.1765 69.375 46.0627C69.375 58.9489 58.9331 69.4104 46.0274 69.4104C33.1216 69.4104 22.6797 58.9685 22.6797 46.0823C22.6797 33.1961 33.1216 22.7346 46.0274 22.7346Z" fill="#E74D89"/>
<path d="M46.0293 71.0728C32.2241 71.0728 21 59.8682 21 46.0825C21 32.2773 32.2241 21.0728 46.0293 21.0728C59.8346 21.0728 71.0587 32.2773 71.0587 46.063C71.0587 59.8487 59.8346 71.0728 46.0293 71.0728ZM67.1283 49.485C66.4048 49.2503 60.519 47.51 53.8119 48.5659C56.6081 56.2311 57.7423 62.4885 57.9574 63.779C62.7677 60.5526 66.1897 55.4294 67.1283 49.485ZM54.379 65.754C54.0661 63.8768 52.8146 57.3457 49.8228 49.5632C49.7837 49.5827 49.7251 49.6023 49.686 49.6023C37.621 53.8064 33.2996 62.1561 32.9085 62.9382C36.526 65.754 41.0821 67.4357 46.0293 67.4357C48.982 67.4552 51.8174 66.8491 54.379 65.754ZM30.1513 60.3766C30.6402 59.5554 36.5065 49.8565 47.535 46.2781C47.8088 46.1803 48.1021 46.1021 48.3758 46.0239C47.8479 44.8115 47.2612 43.5992 46.6355 42.4063C35.9589 45.5937 25.5952 45.4568 24.6566 45.4372C24.6566 45.6523 24.6371 45.8674 24.6371 46.0825C24.6566 51.5773 26.7294 56.5831 30.1513 60.3766ZM25.1064 41.722C26.0645 41.7415 34.8639 41.7806 44.8756 39.1212C41.3363 32.8248 37.5037 27.5452 36.9562 26.7826C30.9531 29.5984 26.4947 35.1126 25.1064 41.722ZM41.0235 25.3356C41.6101 26.1177 45.5014 31.3974 49.0016 37.8307C56.6081 34.9758 59.815 30.6738 60.2061 30.1263C56.4321 26.7826 51.4654 24.7489 46.0293 24.7489C44.3086 24.7489 42.6269 24.964 41.0235 25.3356ZM62.5722 32.5902C62.1224 33.1963 58.544 37.7916 50.6441 41.018C51.133 42.0348 51.6218 43.0712 52.0716 44.1076C52.228 44.4791 52.3844 44.8506 52.5409 45.2026C59.6586 44.3031 66.7176 45.7501 67.4216 45.887C67.3629 40.8616 65.5639 36.2272 62.5722 32.5902Z" fill="#B2215A"/>
</svg>
