<svg width="92" height="92" viewBox="0 0 92 92" fill="none" xmlns="http://www.w3.org/2000/svg">
<rect width="92" height="92" fill="#EEFBFF"/>
<path d="M46 20.1667C39.2316 20.1667 33.7291 25.6692 33.7291 32.4376C33.7291 39.0767 38.9216 44.4501 45.69 44.6826C45.8966 44.6567 46.1033 44.6567 46.2583 44.6826C46.31 44.6826 46.3358 44.6826 46.3875 44.6826C46.4133 44.6826 46.4133 44.6826 46.4391 44.6826C53.0525 44.4501 58.245 39.0767 58.2708 32.4376C58.2708 25.6692 52.7683 20.1667 46 20.1667Z" fill="#5928DC" fill-opacity="0.9"/>
<path d="M59.1234 51.5542C51.9159 46.7492 40.1617 46.7492 32.9025 51.5542C29.6217 53.75 27.8134 56.7209 27.8134 59.8984C27.8134 63.0759 29.6217 66.0209 32.8767 68.1909C36.4934 70.6192 41.2467 71.8334 46 71.8334C50.7534 71.8334 55.5067 70.6192 59.1234 68.1909C62.3784 65.995 64.1867 63.05 64.1867 59.8467C64.1609 56.6692 62.3784 53.7242 59.1234 51.5542Z" fill="#5928DC" fill-opacity="0.9"/>
</svg>
