<svg width="92" height="92" viewBox="0 0 92 92" fill="none" xmlns="http://www.w3.org/2000/svg">
<rect width="91.5618" height="91.5618" fill="#FAF5FC"/>
<path d="M37.678 46C37.678 41.3978 41.41 37.666 46.015 37.666C50.62 37.666 54.354 41.3978 54.354 46C54.354 50.6022 50.62 54.334 46.015 54.334C41.41 54.334 37.678 50.6022 37.678 46ZM33.1701 46C33.1701 53.09 38.9207 58.8372 46.015 58.8372C53.1093 58.8372 58.8599 53.09 58.8599 46C58.8599 38.91 53.1093 33.1628 46.015 33.1628C38.9207 33.1628 33.1701 38.91 33.1701 46ZM56.3666 32.6538C56.3664 33.2471 56.5422 33.8272 56.8718 34.3207C57.2015 34.8142 57.6701 35.1989 58.2186 35.4262C58.767 35.6535 59.3705 35.7131 59.9529 35.5976C60.5352 35.4821 61.0702 35.1966 61.4902 34.7772C61.9101 34.3578 62.1962 33.8233 62.3123 33.2414C62.4284 32.6596 62.3691 32.0563 62.1422 31.5081C61.9152 30.9598 61.5306 30.4911 61.0371 30.1613C60.5436 29.8314 59.9633 29.6552 59.3696 29.655H59.3684C58.5726 29.6554 57.8095 29.9714 57.2466 30.5337C56.6838 31.0959 56.3673 31.8585 56.3666 32.6538V32.6538ZM35.9089 66.3494C33.4701 66.2384 32.1445 65.8324 31.2636 65.4894C30.0957 65.035 29.2624 64.4938 28.3862 63.6194C27.5101 62.745 26.9678 61.913 26.5151 60.7458C26.1717 59.8658 25.7655 58.5406 25.6546 56.1032C25.5333 53.468 25.5091 52.6764 25.5091 46.0002C25.5091 39.324 25.5353 38.5346 25.6546 35.8972C25.7657 33.4598 26.1749 32.1372 26.5151 31.2546C26.9698 30.0874 27.5113 29.2546 28.3862 28.379C29.2612 27.5034 30.0937 26.9614 31.2636 26.509C32.1441 26.1658 33.4701 25.7598 35.9089 25.649C38.5457 25.5278 39.3378 25.5036 46.015 25.5036C52.6922 25.5036 53.4851 25.5298 56.1241 25.649C58.5629 25.76 59.8863 26.169 60.7694 26.509C61.9373 26.9614 62.7706 27.5046 63.6468 28.379C64.5229 29.2534 65.0632 30.0874 65.5179 31.2546C65.8613 32.1346 66.2675 33.4598 66.3784 35.8972C66.4997 38.5346 66.5239 39.324 66.5239 46.0002C66.5239 52.6764 66.4997 53.4658 66.3784 56.1032C66.2673 58.5406 65.8591 59.8654 65.5179 60.7458C65.0632 61.913 64.5217 62.7458 63.6468 63.6194C62.7719 64.493 61.9373 65.035 60.7694 65.4894C59.8889 65.8326 58.5629 66.2386 56.1241 66.3494C53.4873 66.4706 52.6952 66.4948 46.015 66.4948C39.3348 66.4948 38.5449 66.4706 35.9089 66.3494V66.3494ZM35.7018 21.1514C33.0388 21.2726 31.2191 21.6946 29.63 22.3126C27.9842 22.9508 26.591 23.807 25.1987 25.1962C23.8065 26.5854 22.952 27.98 22.3134 29.6248C21.695 31.214 21.2728 33.0316 21.1515 35.693C21.0282 38.3586 21 39.2108 21 46C21 52.7892 21.0282 53.6414 21.1515 56.307C21.2728 58.9686 21.695 60.786 22.3134 62.3752C22.952 64.019 23.8067 65.4152 25.1987 66.8038C26.5908 68.1924 27.9842 69.0474 29.63 69.6874C31.2221 70.3054 33.0388 70.7274 35.7018 70.8486C38.3704 70.9698 39.2217 71 46.015 71C52.8083 71 53.661 70.9718 56.3282 70.8486C58.9914 70.7274 60.8099 70.3054 62.4 69.6874C64.0448 69.0474 65.439 68.193 66.8313 66.8038C68.2235 65.4146 69.0762 64.019 69.7166 62.3752C70.335 60.786 70.7592 58.9684 70.8785 56.307C70.9998 53.6394 71.028 52.7892 71.028 46C71.028 39.2108 70.9998 38.3586 70.8785 35.693C70.7572 33.0314 70.335 31.213 69.7166 29.6248C69.0762 27.981 68.2213 26.5876 66.8313 25.1962C65.4412 23.8048 64.0448 22.9508 62.402 22.3126C60.8099 21.6946 58.9912 21.2706 56.3302 21.1514C53.663 21.0302 52.8103 21 46.017 21C39.2237 21 38.3704 21.0282 35.7018 21.1514Z" fill="url(#paint0_radial_315_137)"/>
<path d="M37.678 46C37.678 41.3978 41.41 37.666 46.015 37.666C50.62 37.666 54.354 41.3978 54.354 46C54.354 50.6022 50.62 54.334 46.015 54.334C41.41 54.334 37.678 50.6022 37.678 46ZM33.1701 46C33.1701 53.09 38.9207 58.8372 46.015 58.8372C53.1093 58.8372 58.8599 53.09 58.8599 46C58.8599 38.91 53.1093 33.1628 46.015 33.1628C38.9207 33.1628 33.1701 38.91 33.1701 46ZM56.3666 32.6538C56.3664 33.2471 56.5422 33.8272 56.8718 34.3207C57.2015 34.8142 57.6701 35.1989 58.2186 35.4262C58.767 35.6535 59.3705 35.7131 59.9529 35.5976C60.5352 35.4821 61.0702 35.1966 61.4902 34.7772C61.9101 34.3578 62.1962 33.8233 62.3123 33.2414C62.4284 32.6596 62.3691 32.0563 62.1422 31.5081C61.9152 30.9598 61.5306 30.4911 61.0371 30.1613C60.5436 29.8314 59.9633 29.6552 59.3696 29.655H59.3684C58.5726 29.6554 57.8095 29.9714 57.2466 30.5337C56.6838 31.0959 56.3673 31.8585 56.3666 32.6538V32.6538ZM35.9089 66.3494C33.4701 66.2384 32.1445 65.8324 31.2636 65.4894C30.0957 65.035 29.2624 64.4938 28.3862 63.6194C27.5101 62.745 26.9678 61.913 26.5151 60.7458C26.1717 59.8658 25.7655 58.5406 25.6546 56.1032C25.5333 53.468 25.5091 52.6764 25.5091 46.0002C25.5091 39.324 25.5353 38.5346 25.6546 35.8972C25.7657 33.4598 26.1749 32.1372 26.5151 31.2546C26.9698 30.0874 27.5113 29.2546 28.3862 28.379C29.2612 27.5034 30.0937 26.9614 31.2636 26.509C32.1441 26.1658 33.4701 25.7598 35.9089 25.649C38.5457 25.5278 39.3378 25.5036 46.015 25.5036C52.6922 25.5036 53.4851 25.5298 56.1241 25.649C58.5629 25.76 59.8863 26.169 60.7694 26.509C61.9373 26.9614 62.7706 27.5046 63.6468 28.379C64.5229 29.2534 65.0632 30.0874 65.5179 31.2546C65.8613 32.1346 66.2675 33.4598 66.3784 35.8972C66.4997 38.5346 66.5239 39.324 66.5239 46.0002C66.5239 52.6764 66.4997 53.4658 66.3784 56.1032C66.2673 58.5406 65.8591 59.8654 65.5179 60.7458C65.0632 61.913 64.5217 62.7458 63.6468 63.6194C62.7719 64.493 61.9373 65.035 60.7694 65.4894C59.8889 65.8326 58.5629 66.2386 56.1241 66.3494C53.4873 66.4706 52.6952 66.4948 46.015 66.4948C39.3348 66.4948 38.5449 66.4706 35.9089 66.3494V66.3494ZM35.7018 21.1514C33.0388 21.2726 31.2191 21.6946 29.63 22.3126C27.9842 22.9508 26.591 23.807 25.1987 25.1962C23.8065 26.5854 22.952 27.98 22.3134 29.6248C21.695 31.214 21.2728 33.0316 21.1515 35.693C21.0282 38.3586 21 39.2108 21 46C21 52.7892 21.0282 53.6414 21.1515 56.307C21.2728 58.9686 21.695 60.786 22.3134 62.3752C22.952 64.019 23.8067 65.4152 25.1987 66.8038C26.5908 68.1924 27.9842 69.0474 29.63 69.6874C31.2221 70.3054 33.0388 70.7274 35.7018 70.8486C38.3704 70.9698 39.2217 71 46.015 71C52.8083 71 53.661 70.9718 56.3282 70.8486C58.9914 70.7274 60.8099 70.3054 62.4 69.6874C64.0448 69.0474 65.439 68.193 66.8313 66.8038C68.2235 65.4146 69.0762 64.019 69.7166 62.3752C70.335 60.786 70.7592 58.9684 70.8785 56.307C70.9998 53.6394 71.028 52.7892 71.028 46C71.028 39.2108 70.9998 38.3586 70.8785 35.693C70.7572 33.0314 70.335 31.213 69.7166 29.6248C69.0762 27.981 68.2213 26.5876 66.8313 25.1962C65.4412 23.8048 64.0448 22.9508 62.402 22.3126C60.8099 21.6946 58.9912 21.2706 56.3302 21.1514C53.663 21.0302 52.8103 21 46.017 21C39.2237 21 38.3704 21.0282 35.7018 21.1514Z" fill="url(#paint1_radial_315_137)"/>
<defs>
<radialGradient id="paint0_radial_315_137" cx="0" cy="0" r="1" gradientUnits="userSpaceOnUse" gradientTransform="translate(27.6468 71.2362) scale(65.31 65.2708)">
<stop offset="0.09" stop-color="#FA8F21"/>
<stop offset="0.78" stop-color="#D82D7E"/>
</radialGradient>
<radialGradient id="paint1_radial_315_137" cx="0" cy="0" r="1" gradientUnits="userSpaceOnUse" gradientTransform="translate(51.341 73.4762) scale(51.4733 51.4424)">
<stop offset="0.64" stop-color="#8C3AAA" stop-opacity="0"/>
<stop offset="1" stop-color="#8C3AAA"/>
</radialGradient>
</defs>
</svg>
