<svg width="93" height="92" viewBox="0 0 93 92" fill="none" xmlns="http://www.w3.org/2000/svg">
<rect x="0.876465" y="0.0690918" width="91.5618" height="91.5618" fill="#F5F5F5"/>
<path fill-rule="evenodd" clip-rule="evenodd" d="M46.634 21.0691C32.403 21.0691 20.8765 32.5396 20.8765 46.7014C20.8765 58.0438 28.2496 67.6238 38.4882 71.0201C39.7761 71.2444 40.259 70.4754 40.259 69.8026C40.259 69.1938 40.2268 67.1753 40.2268 65.0286C33.7553 66.2141 32.081 63.4586 31.5659 62.0168C31.2761 61.2798 30.0204 59.005 28.9257 58.3962C28.0242 57.9156 26.7363 56.7301 28.8935 56.6981C30.9219 56.666 32.3708 58.5564 32.8537 59.3254C35.1719 63.2023 38.8746 62.1129 40.3556 61.44C40.581 59.7739 41.2571 58.6525 41.9977 58.0117C36.2666 57.3709 30.278 55.1601 30.278 45.3557C30.278 42.5682 31.2761 40.2613 32.9181 38.467C32.6606 37.8262 31.759 35.1989 33.1757 31.6745C33.1757 31.6745 35.3329 31.0016 40.259 34.3018C42.3196 33.7251 44.509 33.4367 46.6984 33.4367C48.8878 33.4367 51.0772 33.7251 53.1378 34.3018C58.064 30.9696 60.2212 31.6745 60.2212 31.6745C61.6378 35.1989 60.7363 37.8262 60.4787 38.467C62.1208 40.2613 63.1189 42.5362 63.1189 45.3557C63.1189 55.1922 57.0981 57.3709 51.367 58.0117C52.3007 58.8127 53.1056 60.3507 53.1056 62.7537C53.1056 66.182 53.0734 68.9375 53.0734 69.8026C53.0734 70.4754 53.5564 71.2765 54.8443 71.0201C65.0185 67.6238 72.3916 58.0117 72.3916 46.7014C72.3916 32.5396 60.8651 21.0691 46.634 21.0691Z" fill="#1B1F23"/>
</svg>
