<svg width="1892" height="591" viewBox="0 0 1892 591" fill="none" xmlns="http://www.w3.org/2000/svg">
<path d="M178.933 0L186.271 12.8369H171.595L178.933 0Z" fill="#202021" fill-opacity="0.04"/>
<path d="M178.933 229.554L186.271 242.391H171.595L178.933 229.554Z" fill="#202021" fill-opacity="0.04"/>
<path d="M113.64 8.5578L126.349 1.14642L126.349 15.9692L113.64 8.5578Z" fill="#202021" fill-opacity="0.04"/>
<path d="M113.64 238.112L126.349 230.7L126.349 245.523L113.64 238.112Z" fill="#202021" fill-opacity="0.04"/>
<path d="M65.293 17.1157L57.955 4.27884L72.6309 4.27884L65.293 17.1157Z" fill="#202021" fill-opacity="0.04"/>
<path d="M65.293 246.669L57.955 233.833L72.6309 233.833L65.293 246.669Z" fill="#202021" fill-opacity="0.04"/>
<path d="M16.9463 8.55792L4.23659 15.9693L4.23659 1.14654L16.9463 8.55792Z" fill="#202021" fill-opacity="0.04"/>
<path d="M16.9463 238.112L4.23659 245.523L4.23659 230.7L16.9463 238.112Z" fill="#202021" fill-opacity="0.04"/>
<path d="M187.406 65.9463L174.696 73.3577L174.696 58.535L187.406 65.9463Z" fill="#202021" fill-opacity="0.04"/>
<path d="M187.406 295.5L174.696 302.911L174.696 288.088L187.406 295.5Z" fill="#202021" fill-opacity="0.04"/>
<path d="M122.113 57.3884L129.451 70.2253H114.775L122.113 57.3884Z" fill="#202021" fill-opacity="0.04"/>
<path d="M122.113 286.942L129.451 299.779H114.775L122.113 286.942Z" fill="#202021" fill-opacity="0.04"/>
<path d="M56.8198 65.9465L69.5295 58.5351L69.5295 73.3578L56.8198 65.9465Z" fill="#202021" fill-opacity="0.04"/>
<path d="M56.8198 295.5L69.5295 288.089L69.5295 302.912L56.8198 295.5Z" fill="#202021" fill-opacity="0.04"/>
<path d="M1.01041e-07 65.9465L12.7097 58.5351L12.7097 73.3579L1.01041e-07 65.9465Z" fill="#202021" fill-opacity="0.04"/>
<path d="M1.01041e-07 295.5L12.7097 288.089L12.7097 302.912L1.01041e-07 295.5Z" fill="#202021" fill-opacity="0.04"/>
<path d="M178.933 131.893L171.595 119.056L186.271 119.056L178.933 131.893Z" fill="#202021" fill-opacity="0.04"/>
<path d="M178.933 361.446L171.595 348.609L186.271 348.609L178.933 361.446Z" fill="#202021" fill-opacity="0.04"/>
<path d="M130.586 123.335L117.876 130.746L117.876 115.923L130.586 123.335Z" fill="#202021" fill-opacity="0.04"/>
<path d="M130.586 352.888L117.876 360.3L117.876 345.477L130.586 352.888Z" fill="#202021" fill-opacity="0.04"/>
<path d="M65.293 114.777L72.6309 127.614H57.955L65.293 114.777Z" fill="#202021" fill-opacity="0.04"/>
<path d="M65.293 344.331L72.6309 357.167H57.955L65.293 344.331Z" fill="#202021" fill-opacity="0.04"/>
<path d="M8.47313 114.777L15.8111 127.614H1.13518L8.47313 114.777Z" fill="#202021" fill-opacity="0.04"/>
<path d="M8.47313 344.331L15.8111 357.167H1.13518L8.47313 344.331Z" fill="#202021" fill-opacity="0.04"/>
<path d="M170.459 180.723L183.169 173.312L183.169 188.134L170.459 180.723Z" fill="#202021" fill-opacity="0.04"/>
<path d="M170.459 410.277L183.169 402.865L183.169 417.688L170.459 410.277Z" fill="#202021" fill-opacity="0.04"/>
<path d="M122.113 189.281L114.775 176.444L129.451 176.444L122.113 189.281Z" fill="#202021" fill-opacity="0.04"/>
<path d="M122.113 418.835L114.775 405.998L129.451 405.998L122.113 418.835Z" fill="#202021" fill-opacity="0.04"/>
<path d="M65.293 172.165L72.6309 185.002H57.955L65.293 172.165Z" fill="#202021" fill-opacity="0.04"/>
<path d="M65.293 401.719L72.6309 414.556H57.955L65.293 401.719Z" fill="#202021" fill-opacity="0.04"/>
<path d="M-3.70372e-07 180.723L12.7097 173.312L12.7097 188.134L-3.70372e-07 180.723Z" fill="#202021" fill-opacity="0.04"/>
<path d="M-3.70372e-07 410.277L12.7097 402.865L12.7097 417.688L-3.70372e-07 410.277Z" fill="#202021" fill-opacity="0.04"/>
<path d="M406.212 0L413.55 12.8369H398.874L406.212 0Z" fill="#202021" fill-opacity="0.04"/>
<path d="M633.491 0L640.829 12.8369H626.153L633.491 0Z" fill="#202021" fill-opacity="0.04"/>
<path d="M860.77 0L868.108 12.8369H853.432L860.77 0Z" fill="#202021" fill-opacity="0.04"/>
<path d="M1088.05 0L1095.39 12.8369H1080.71L1088.05 0Z" fill="#202021" fill-opacity="0.04"/>
<path d="M1315.33 0L1322.67 12.8369H1307.99L1315.33 0Z" fill="#202021" fill-opacity="0.04"/>
<path d="M1542.61 0L1549.95 12.8369H1535.27L1542.61 0Z" fill="#202021" fill-opacity="0.04"/>
<path d="M1769.89 0L1777.23 12.8369H1762.55L1769.89 0Z" fill="#202021" fill-opacity="0.04"/>
<path d="M406.212 229.554L413.55 242.391H398.874L406.212 229.554Z" fill="#202021" fill-opacity="0.04"/>
<path d="M633.491 229.554L640.829 242.391H626.153L633.491 229.554Z" fill="#202021" fill-opacity="0.04"/>
<path d="M860.77 229.554L868.108 242.391H853.432L860.77 229.554Z" fill="#202021" fill-opacity="0.04"/>
<path d="M1088.05 229.554L1095.39 242.391H1080.71L1088.05 229.554Z" fill="#202021" fill-opacity="0.04"/>
<path d="M1315.33 229.554L1322.67 242.391H1307.99L1315.33 229.554Z" fill="#202021" fill-opacity="0.04"/>
<path d="M1542.61 229.554L1549.95 242.391H1535.27L1542.61 229.554Z" fill="#202021" fill-opacity="0.04"/>
<path d="M1769.89 229.554L1777.23 242.391H1762.55L1769.89 229.554Z" fill="#202021" fill-opacity="0.04"/>
<path d="M340.919 8.5578L353.629 1.14642L353.629 15.9692L340.919 8.5578Z" fill="#202021" fill-opacity="0.04"/>
<path d="M568.198 8.5578L580.908 1.14642L580.908 15.9692L568.198 8.5578Z" fill="#202021" fill-opacity="0.04"/>
<path d="M795.477 8.5578L808.187 1.14642L808.187 15.9692L795.477 8.5578Z" fill="#202021" fill-opacity="0.04"/>
<path d="M1022.76 8.5578L1035.47 1.14642L1035.47 15.9692L1022.76 8.5578Z" fill="#202021" fill-opacity="0.04"/>
<path d="M1250.04 8.5578L1262.75 1.14642L1262.75 15.9692L1250.04 8.5578Z" fill="#202021" fill-opacity="0.04"/>
<path d="M1477.32 8.5578L1490.03 1.14642L1490.03 15.9692L1477.32 8.5578Z" fill="#202021" fill-opacity="0.04"/>
<path d="M1704.59 8.5578L1717.3 1.14642L1717.3 15.9692L1704.59 8.5578Z" fill="#202021" fill-opacity="0.04"/>
<path d="M340.919 238.112L353.629 230.7L353.629 245.523L340.919 238.112Z" fill="#202021" fill-opacity="0.04"/>
<path d="M568.198 238.112L580.908 230.7L580.908 245.523L568.198 238.112Z" fill="#202021" fill-opacity="0.04"/>
<path d="M795.477 238.112L808.187 230.7L808.187 245.523L795.477 238.112Z" fill="#202021" fill-opacity="0.04"/>
<path d="M1022.76 238.112L1035.47 230.7L1035.47 245.523L1022.76 238.112Z" fill="#202021" fill-opacity="0.04"/>
<path d="M1250.04 238.112L1262.75 230.7L1262.75 245.523L1250.04 238.112Z" fill="#202021" fill-opacity="0.04"/>
<path d="M1477.32 238.112L1490.03 230.7L1490.03 245.523L1477.32 238.112Z" fill="#202021" fill-opacity="0.04"/>
<path d="M1704.59 238.112L1717.3 230.7L1717.3 245.523L1704.59 238.112Z" fill="#202021" fill-opacity="0.04"/>
<path d="M292.572 17.1157L285.234 4.27884L299.91 4.27884L292.572 17.1157Z" fill="#202021" fill-opacity="0.04"/>
<path d="M519.851 17.1157L512.513 4.27884L527.189 4.27884L519.851 17.1157Z" fill="#202021" fill-opacity="0.04"/>
<path d="M747.131 17.1157L739.793 4.27884L754.469 4.27884L747.131 17.1157Z" fill="#202021" fill-opacity="0.04"/>
<path d="M974.41 17.1157L967.072 4.27884L981.748 4.27884L974.41 17.1157Z" fill="#202021" fill-opacity="0.04"/>
<path d="M1201.69 17.1157L1194.35 4.27884L1209.03 4.27884L1201.69 17.1157Z" fill="#202021" fill-opacity="0.04"/>
<path d="M1428.97 17.1157L1421.63 4.27884L1436.31 4.27884L1428.97 17.1157Z" fill="#202021" fill-opacity="0.04"/>
<path d="M1656.25 17.1157L1648.91 4.27884L1663.59 4.27884L1656.25 17.1157Z" fill="#202021" fill-opacity="0.04"/>
<path d="M1883.53 17.1157L1876.19 4.27884L1890.86 4.27884L1883.53 17.1157Z" fill="#202021" fill-opacity="0.04"/>
<path d="M292.572 246.669L285.234 233.833L299.91 233.833L292.572 246.669Z" fill="#202021" fill-opacity="0.04"/>
<path d="M519.851 246.669L512.513 233.833L527.189 233.833L519.851 246.669Z" fill="#202021" fill-opacity="0.04"/>
<path d="M747.131 246.669L739.793 233.833L754.469 233.833L747.131 246.669Z" fill="#202021" fill-opacity="0.04"/>
<path d="M974.41 246.669L967.072 233.833L981.748 233.833L974.41 246.669Z" fill="#202021" fill-opacity="0.04"/>
<path d="M1201.69 246.669L1194.35 233.833L1209.03 233.833L1201.69 246.669Z" fill="#202021" fill-opacity="0.04"/>
<path d="M1428.97 246.669L1421.63 233.833L1436.31 233.833L1428.97 246.669Z" fill="#202021" fill-opacity="0.04"/>
<path d="M1656.25 246.669L1648.91 233.833L1663.59 233.833L1656.25 246.669Z" fill="#202021" fill-opacity="0.04"/>
<path d="M1883.53 246.669L1876.19 233.833L1890.86 233.833L1883.53 246.669Z" fill="#202021" fill-opacity="0.04"/>
<path d="M244.226 8.55792L231.516 15.9693L231.516 1.14654L244.226 8.55792Z" fill="#202021" fill-opacity="0.04"/>
<path d="M471.505 8.55792L458.795 15.9693L458.795 1.14654L471.505 8.55792Z" fill="#202021" fill-opacity="0.04"/>
<path d="M698.784 8.55792L686.074 15.9693L686.074 1.14654L698.784 8.55792Z" fill="#202021" fill-opacity="0.04"/>
<path d="M926.063 8.55792L913.353 15.9693L913.353 1.14654L926.063 8.55792Z" fill="#202021" fill-opacity="0.04"/>
<path d="M1153.34 8.55792L1140.63 15.9693L1140.63 1.14654L1153.34 8.55792Z" fill="#202021" fill-opacity="0.04"/>
<path d="M1380.62 8.55792L1367.91 15.9693L1367.91 1.14654L1380.62 8.55792Z" fill="#202021" fill-opacity="0.04"/>
<path d="M1607.9 8.55792L1595.19 15.9693L1595.19 1.14654L1607.9 8.55792Z" fill="#202021" fill-opacity="0.04"/>
<path d="M1835.18 8.55792L1822.47 15.9693L1822.47 1.14654L1835.18 8.55792Z" fill="#202021" fill-opacity="0.04"/>
<path d="M244.226 238.112L231.516 245.523L231.516 230.7L244.226 238.112Z" fill="#202021" fill-opacity="0.04"/>
<path d="M471.505 238.112L458.795 245.523L458.795 230.7L471.505 238.112Z" fill="#202021" fill-opacity="0.04"/>
<path d="M698.784 238.112L686.074 245.523L686.074 230.7L698.784 238.112Z" fill="#202021" fill-opacity="0.04"/>
<path d="M926.063 238.112L913.353 245.523L913.353 230.7L926.063 238.112Z" fill="#202021" fill-opacity="0.04"/>
<path d="M1153.34 238.112L1140.63 245.523L1140.63 230.7L1153.34 238.112Z" fill="#202021" fill-opacity="0.04"/>
<path d="M1380.62 238.112L1367.91 245.523L1367.91 230.7L1380.62 238.112Z" fill="#202021" fill-opacity="0.04"/>
<path d="M1607.9 238.112L1595.19 245.523L1595.19 230.7L1607.9 238.112Z" fill="#202021" fill-opacity="0.04"/>
<path d="M1835.18 238.112L1822.47 245.523L1822.47 230.7L1835.18 238.112Z" fill="#202021" fill-opacity="0.04"/>
<path d="M414.685 65.9463L401.975 73.3577L401.975 58.535L414.685 65.9463Z" fill="#202021" fill-opacity="0.04"/>
<path d="M641.964 65.9463L629.255 73.3577L629.255 58.535L641.964 65.9463Z" fill="#202021" fill-opacity="0.04"/>
<path d="M869.243 65.9463L856.534 73.3577L856.534 58.535L869.243 65.9463Z" fill="#202021" fill-opacity="0.04"/>
<path d="M1096.52 65.9463L1083.81 73.3577L1083.81 58.535L1096.52 65.9463Z" fill="#202021" fill-opacity="0.04"/>
<path d="M1323.8 65.9463L1311.09 73.3577L1311.09 58.535L1323.8 65.9463Z" fill="#202021" fill-opacity="0.04"/>
<path d="M1551.08 65.9463L1538.37 73.3577L1538.37 58.535L1551.08 65.9463Z" fill="#202021" fill-opacity="0.04"/>
<path d="M1778.36 65.9463L1765.65 73.3577L1765.65 58.535L1778.36 65.9463Z" fill="#202021" fill-opacity="0.04"/>
<path d="M414.685 295.5L401.975 302.911L401.975 288.088L414.685 295.5Z" fill="#202021" fill-opacity="0.04"/>
<path d="M641.964 295.5L629.255 302.911L629.255 288.088L641.964 295.5Z" fill="#202021" fill-opacity="0.04"/>
<path d="M869.243 295.5L856.534 302.911L856.534 288.088L869.243 295.5Z" fill="#202021" fill-opacity="0.04"/>
<path d="M1096.52 295.5L1083.81 302.911L1083.81 288.088L1096.52 295.5Z" fill="#202021" fill-opacity="0.04"/>
<path d="M1323.8 295.5L1311.09 302.911L1311.09 288.088L1323.8 295.5Z" fill="#202021" fill-opacity="0.04"/>
<path d="M1551.08 295.5L1538.37 302.911L1538.37 288.088L1551.08 295.5Z" fill="#202021" fill-opacity="0.04"/>
<path d="M1778.36 295.5L1765.65 302.911L1765.65 288.088L1778.36 295.5Z" fill="#202021" fill-opacity="0.04"/>
<path d="M349.392 57.3884L356.73 70.2253H342.054L349.392 57.3884Z" fill="#202021" fill-opacity="0.04"/>
<path d="M576.671 57.3884L584.009 70.2253H569.333L576.671 57.3884Z" fill="#202021" fill-opacity="0.04"/>
<path d="M803.95 57.3884L811.288 70.2253H796.612L803.95 57.3884Z" fill="#202021" fill-opacity="0.04"/>
<path d="M1031.23 57.3884L1038.57 70.2253H1023.89L1031.23 57.3884Z" fill="#202021" fill-opacity="0.04"/>
<path d="M1258.51 57.3884L1265.85 70.2253H1251.17L1258.51 57.3884Z" fill="#202021" fill-opacity="0.04"/>
<path d="M1485.79 57.3884L1493.13 70.2253H1478.45L1485.79 57.3884Z" fill="#202021" fill-opacity="0.04"/>
<path d="M1713.07 57.3884L1720.41 70.2253H1705.73L1713.07 57.3884Z" fill="#202021" fill-opacity="0.04"/>
<path d="M349.392 286.942L356.73 299.779H342.054L349.392 286.942Z" fill="#202021" fill-opacity="0.04"/>
<path d="M576.671 286.942L584.009 299.779H569.333L576.671 286.942Z" fill="#202021" fill-opacity="0.04"/>
<path d="M803.95 286.942L811.288 299.779H796.612L803.95 286.942Z" fill="#202021" fill-opacity="0.04"/>
<path d="M1031.23 286.942L1038.57 299.779H1023.89L1031.23 286.942Z" fill="#202021" fill-opacity="0.04"/>
<path d="M1258.51 286.942L1265.85 299.779H1251.17L1258.51 286.942Z" fill="#202021" fill-opacity="0.04"/>
<path d="M1485.79 286.942L1493.13 299.779H1478.45L1485.79 286.942Z" fill="#202021" fill-opacity="0.04"/>
<path d="M1713.07 286.942L1720.41 299.779H1705.73L1713.07 286.942Z" fill="#202021" fill-opacity="0.04"/>
<path d="M284.099 65.9465L296.809 58.5351L296.809 73.3578L284.099 65.9465Z" fill="#202021" fill-opacity="0.04"/>
<path d="M511.378 65.9465L524.088 58.5351L524.088 73.3578L511.378 65.9465Z" fill="#202021" fill-opacity="0.04"/>
<path d="M738.658 65.9465L751.367 58.5351L751.367 73.3578L738.658 65.9465Z" fill="#202021" fill-opacity="0.04"/>
<path d="M965.937 65.9465L978.647 58.5351L978.647 73.3578L965.937 65.9465Z" fill="#202021" fill-opacity="0.04"/>
<path d="M1193.22 65.9465L1205.93 58.5351L1205.93 73.3578L1193.22 65.9465Z" fill="#202021" fill-opacity="0.04"/>
<path d="M1420.5 65.9465L1433.2 58.5351L1433.2 73.3578L1420.5 65.9465Z" fill="#202021" fill-opacity="0.04"/>
<path d="M1647.77 65.9465L1660.48 58.5351L1660.48 73.3578L1647.77 65.9465Z" fill="#202021" fill-opacity="0.04"/>
<path d="M1875.05 65.9465L1887.76 58.5351L1887.76 73.3578L1875.05 65.9465Z" fill="#202021" fill-opacity="0.04"/>
<path d="M284.099 295.5L296.809 288.089L296.809 302.912L284.099 295.5Z" fill="#202021" fill-opacity="0.04"/>
<path d="M511.378 295.5L524.088 288.089L524.088 302.912L511.378 295.5Z" fill="#202021" fill-opacity="0.04"/>
<path d="M738.658 295.5L751.367 288.089L751.367 302.912L738.658 295.5Z" fill="#202021" fill-opacity="0.04"/>
<path d="M965.937 295.5L978.647 288.089L978.647 302.912L965.937 295.5Z" fill="#202021" fill-opacity="0.04"/>
<path d="M1193.22 295.5L1205.93 288.089L1205.93 302.912L1193.22 295.5Z" fill="#202021" fill-opacity="0.04"/>
<path d="M1420.5 295.5L1433.2 288.089L1433.2 302.912L1420.5 295.5Z" fill="#202021" fill-opacity="0.04"/>
<path d="M1647.77 295.5L1660.48 288.089L1660.48 302.912L1647.77 295.5Z" fill="#202021" fill-opacity="0.04"/>
<path d="M1875.05 295.5L1887.76 288.089L1887.76 302.912L1875.05 295.5Z" fill="#202021" fill-opacity="0.04"/>
<path d="M227.279 65.9465L239.989 58.5351L239.989 73.3579L227.279 65.9465Z" fill="#202021" fill-opacity="0.04"/>
<path d="M454.559 65.9465L467.268 58.5351L467.268 73.3579L454.559 65.9465Z" fill="#202021" fill-opacity="0.04"/>
<path d="M681.838 65.9465L694.547 58.5351L694.547 73.3579L681.838 65.9465Z" fill="#202021" fill-opacity="0.04"/>
<path d="M909.117 65.9465L921.827 58.5351L921.827 73.3579L909.117 65.9465Z" fill="#202021" fill-opacity="0.04"/>
<path d="M1136.4 65.9465L1149.11 58.5351L1149.11 73.3579L1136.4 65.9465Z" fill="#202021" fill-opacity="0.04"/>
<path d="M1363.68 65.9465L1376.38 58.5351L1376.38 73.3579L1363.68 65.9465Z" fill="#202021" fill-opacity="0.04"/>
<path d="M1590.95 65.9465L1603.66 58.5351L1603.66 73.3579L1590.95 65.9465Z" fill="#202021" fill-opacity="0.04"/>
<path d="M1818.23 65.9465L1830.94 58.5351L1830.94 73.3579L1818.23 65.9465Z" fill="#202021" fill-opacity="0.04"/>
<path d="M227.279 295.5L239.989 288.089L239.989 302.912L227.279 295.5Z" fill="#202021" fill-opacity="0.04"/>
<path d="M454.559 295.5L467.268 288.089L467.268 302.912L454.559 295.5Z" fill="#202021" fill-opacity="0.04"/>
<path d="M681.838 295.5L694.547 288.089L694.547 302.912L681.838 295.5Z" fill="#202021" fill-opacity="0.04"/>
<path d="M909.117 295.5L921.827 288.089L921.827 302.912L909.117 295.5Z" fill="#202021" fill-opacity="0.04"/>
<path d="M1136.4 295.5L1149.11 288.089L1149.11 302.912L1136.4 295.5Z" fill="#202021" fill-opacity="0.04"/>
<path d="M1363.68 295.5L1376.38 288.089L1376.38 302.912L1363.68 295.5Z" fill="#202021" fill-opacity="0.04"/>
<path d="M1590.95 295.5L1603.66 288.089L1603.66 302.912L1590.95 295.5Z" fill="#202021" fill-opacity="0.04"/>
<path d="M1818.23 295.5L1830.94 288.089L1830.94 302.912L1818.23 295.5Z" fill="#202021" fill-opacity="0.04"/>
<path d="M406.212 131.893L398.874 119.056L413.55 119.056L406.212 131.893Z" fill="#202021" fill-opacity="0.04"/>
<path d="M633.491 131.893L626.153 119.056L640.829 119.056L633.491 131.893Z" fill="#202021" fill-opacity="0.04"/>
<path d="M860.77 131.893L853.432 119.056L868.108 119.056L860.77 131.893Z" fill="#202021" fill-opacity="0.04"/>
<path d="M1088.05 131.893L1080.71 119.056L1095.39 119.056L1088.05 131.893Z" fill="#202021" fill-opacity="0.04"/>
<path d="M1315.33 131.893L1307.99 119.056L1322.67 119.056L1315.33 131.893Z" fill="#202021" fill-opacity="0.04"/>
<path d="M1542.61 131.893L1535.27 119.056L1549.95 119.056L1542.61 131.893Z" fill="#202021" fill-opacity="0.04"/>
<path d="M1769.89 131.893L1762.55 119.056L1777.23 119.056L1769.89 131.893Z" fill="#202021" fill-opacity="0.04"/>
<path d="M406.212 361.446L398.874 348.609L413.55 348.609L406.212 361.446Z" fill="#202021" fill-opacity="0.04"/>
<path d="M633.491 361.446L626.153 348.609L640.829 348.609L633.491 361.446Z" fill="#202021" fill-opacity="0.04"/>
<path d="M860.77 361.446L853.432 348.609L868.108 348.609L860.77 361.446Z" fill="#202021" fill-opacity="0.04"/>
<path d="M1088.05 361.446L1080.71 348.609L1095.39 348.609L1088.05 361.446Z" fill="#202021" fill-opacity="0.04"/>
<path d="M1315.33 361.446L1307.99 348.609L1322.67 348.609L1315.33 361.446Z" fill="#202021" fill-opacity="0.04"/>
<path d="M1542.61 361.446L1535.27 348.609L1549.95 348.609L1542.61 361.446Z" fill="#202021" fill-opacity="0.04"/>
<path d="M1769.89 361.446L1762.55 348.609L1777.23 348.609L1769.89 361.446Z" fill="#202021" fill-opacity="0.04"/>
<path d="M357.865 123.335L345.155 130.746L345.155 115.923L357.865 123.335Z" fill="#202021" fill-opacity="0.04"/>
<path d="M585.144 123.335L572.435 130.746L572.435 115.923L585.144 123.335Z" fill="#202021" fill-opacity="0.04"/>
<path d="M812.424 123.335L799.714 130.746L799.714 115.923L812.424 123.335Z" fill="#202021" fill-opacity="0.04"/>
<path d="M1039.7 123.335L1026.99 130.746L1026.99 115.923L1039.7 123.335Z" fill="#202021" fill-opacity="0.04"/>
<path d="M1266.98 123.335L1254.27 130.746L1254.27 115.923L1266.98 123.335Z" fill="#202021" fill-opacity="0.04"/>
<path d="M1494.26 123.335L1481.55 130.746L1481.55 115.923L1494.26 123.335Z" fill="#202021" fill-opacity="0.04"/>
<path d="M1721.54 123.335L1708.83 130.746L1708.83 115.923L1721.54 123.335Z" fill="#202021" fill-opacity="0.04"/>
<path d="M357.865 352.888L345.155 360.3L345.155 345.477L357.865 352.888Z" fill="#202021" fill-opacity="0.04"/>
<path d="M585.144 352.888L572.435 360.3L572.435 345.477L585.144 352.888Z" fill="#202021" fill-opacity="0.04"/>
<path d="M812.424 352.888L799.714 360.3L799.714 345.477L812.424 352.888Z" fill="#202021" fill-opacity="0.04"/>
<path d="M1039.7 352.888L1026.99 360.3L1026.99 345.477L1039.7 352.888Z" fill="#202021" fill-opacity="0.04"/>
<path d="M1266.98 352.888L1254.27 360.3L1254.27 345.477L1266.98 352.888Z" fill="#202021" fill-opacity="0.04"/>
<path d="M1494.26 352.888L1481.55 360.3L1481.55 345.477L1494.26 352.888Z" fill="#202021" fill-opacity="0.04"/>
<path d="M1721.54 352.888L1708.83 360.3L1708.83 345.477L1721.54 352.888Z" fill="#202021" fill-opacity="0.04"/>
<path d="M292.572 114.777L299.91 127.614H285.234L292.572 114.777Z" fill="#202021" fill-opacity="0.04"/>
<path d="M519.852 114.777L527.189 127.614H512.514L519.852 114.777Z" fill="#202021" fill-opacity="0.04"/>
<path d="M747.131 114.777L754.469 127.614H739.793L747.131 114.777Z" fill="#202021" fill-opacity="0.04"/>
<path d="M974.41 114.777L981.748 127.614H967.072L974.41 114.777Z" fill="#202021" fill-opacity="0.04"/>
<path d="M1201.69 114.777L1209.03 127.614H1194.35L1201.69 114.777Z" fill="#202021" fill-opacity="0.04"/>
<path d="M1428.97 114.777L1436.31 127.614H1421.63L1428.97 114.777Z" fill="#202021" fill-opacity="0.04"/>
<path d="M1656.25 114.777L1663.59 127.614H1648.91L1656.25 114.777Z" fill="#202021" fill-opacity="0.04"/>
<path d="M1883.53 114.777L1890.86 127.614H1876.19L1883.53 114.777Z" fill="#202021" fill-opacity="0.04"/>
<path d="M292.572 344.331L299.91 357.167H285.234L292.572 344.331Z" fill="#202021" fill-opacity="0.04"/>
<path d="M519.852 344.331L527.189 357.167H512.514L519.852 344.331Z" fill="#202021" fill-opacity="0.04"/>
<path d="M747.131 344.331L754.469 357.167H739.793L747.131 344.331Z" fill="#202021" fill-opacity="0.04"/>
<path d="M974.41 344.331L981.748 357.167H967.072L974.41 344.331Z" fill="#202021" fill-opacity="0.04"/>
<path d="M1201.69 344.331L1209.03 357.167H1194.35L1201.69 344.331Z" fill="#202021" fill-opacity="0.04"/>
<path d="M1428.97 344.331L1436.31 357.167H1421.63L1428.97 344.331Z" fill="#202021" fill-opacity="0.04"/>
<path d="M1656.25 344.331L1663.59 357.167H1648.91L1656.25 344.331Z" fill="#202021" fill-opacity="0.04"/>
<path d="M1883.53 344.331L1890.86 357.167H1876.19L1883.53 344.331Z" fill="#202021" fill-opacity="0.04"/>
<path d="M235.752 114.777L243.09 127.614H228.414L235.752 114.777Z" fill="#202021" fill-opacity="0.04"/>
<path d="M463.032 114.777L470.37 127.614H455.694L463.032 114.777Z" fill="#202021" fill-opacity="0.04"/>
<path d="M690.311 114.777L697.649 127.614H682.973L690.311 114.777Z" fill="#202021" fill-opacity="0.04"/>
<path d="M917.59 114.777L924.928 127.614H910.252L917.59 114.777Z" fill="#202021" fill-opacity="0.04"/>
<path d="M1144.87 114.777L1152.21 127.614H1137.53L1144.87 114.777Z" fill="#202021" fill-opacity="0.04"/>
<path d="M1372.15 114.777L1379.49 127.614H1364.81L1372.15 114.777Z" fill="#202021" fill-opacity="0.04"/>
<path d="M1599.43 114.777L1606.77 127.614H1592.09L1599.43 114.777Z" fill="#202021" fill-opacity="0.04"/>
<path d="M1826.71 114.777L1834.04 127.614H1819.37L1826.71 114.777Z" fill="#202021" fill-opacity="0.04"/>
<path d="M235.752 344.331L243.09 357.167H228.414L235.752 344.331Z" fill="#202021" fill-opacity="0.04"/>
<path d="M463.032 344.331L470.37 357.167H455.694L463.032 344.331Z" fill="#202021" fill-opacity="0.04"/>
<path d="M690.311 344.331L697.649 357.167H682.973L690.311 344.331Z" fill="#202021" fill-opacity="0.04"/>
<path d="M917.59 344.331L924.928 357.167H910.252L917.59 344.331Z" fill="#202021" fill-opacity="0.04"/>
<path d="M1144.87 344.331L1152.21 357.167H1137.53L1144.87 344.331Z" fill="#202021" fill-opacity="0.04"/>
<path d="M1372.15 344.331L1379.49 357.167H1364.81L1372.15 344.331Z" fill="#202021" fill-opacity="0.04"/>
<path d="M1599.43 344.331L1606.77 357.167H1592.09L1599.43 344.331Z" fill="#202021" fill-opacity="0.04"/>
<path d="M1826.71 344.331L1834.04 357.167H1819.37L1826.71 344.331Z" fill="#202021" fill-opacity="0.04"/>
<path d="M397.739 180.723L410.448 173.312L410.448 188.134L397.739 180.723Z" fill="#202021" fill-opacity="0.04"/>
<path d="M625.018 180.723L637.728 173.312L637.728 188.134L625.018 180.723Z" fill="#202021" fill-opacity="0.04"/>
<path d="M852.297 180.723L865.007 173.312L865.007 188.134L852.297 180.723Z" fill="#202021" fill-opacity="0.04"/>
<path d="M1079.58 180.723L1092.29 173.312L1092.29 188.134L1079.58 180.723Z" fill="#202021" fill-opacity="0.04"/>
<path d="M1306.86 180.723L1319.57 173.312L1319.57 188.134L1306.86 180.723Z" fill="#202021" fill-opacity="0.04"/>
<path d="M1534.13 180.723L1546.84 173.312L1546.84 188.134L1534.13 180.723Z" fill="#202021" fill-opacity="0.04"/>
<path d="M1761.41 180.723L1774.12 173.312L1774.12 188.134L1761.41 180.723Z" fill="#202021" fill-opacity="0.04"/>
<path d="M397.739 410.277L410.448 402.865L410.448 417.688L397.739 410.277Z" fill="#202021" fill-opacity="0.04"/>
<path d="M625.018 410.277L637.728 402.865L637.728 417.688L625.018 410.277Z" fill="#202021" fill-opacity="0.04"/>
<path d="M852.297 410.277L865.007 402.865L865.007 417.688L852.297 410.277Z" fill="#202021" fill-opacity="0.04"/>
<path d="M1079.58 410.277L1092.29 402.865L1092.29 417.688L1079.58 410.277Z" fill="#202021" fill-opacity="0.04"/>
<path d="M1306.86 410.277L1319.57 402.865L1319.57 417.688L1306.86 410.277Z" fill="#202021" fill-opacity="0.04"/>
<path d="M1534.13 410.277L1546.84 402.865L1546.84 417.688L1534.13 410.277Z" fill="#202021" fill-opacity="0.04"/>
<path d="M1761.41 410.277L1774.12 402.865L1774.12 417.688L1761.41 410.277Z" fill="#202021" fill-opacity="0.04"/>
<path d="M349.392 189.281L342.054 176.444L356.73 176.444L349.392 189.281Z" fill="#202021" fill-opacity="0.04"/>
<path d="M576.671 189.281L569.333 176.444L584.009 176.444L576.671 189.281Z" fill="#202021" fill-opacity="0.04"/>
<path d="M803.95 189.281L796.613 176.444L811.288 176.444L803.95 189.281Z" fill="#202021" fill-opacity="0.04"/>
<path d="M1031.23 189.281L1023.89 176.444L1038.57 176.444L1031.23 189.281Z" fill="#202021" fill-opacity="0.04"/>
<path d="M1258.51 189.281L1251.17 176.444L1265.85 176.444L1258.51 189.281Z" fill="#202021" fill-opacity="0.04"/>
<path d="M1485.79 189.281L1478.45 176.444L1493.13 176.444L1485.79 189.281Z" fill="#202021" fill-opacity="0.04"/>
<path d="M1713.07 189.281L1705.73 176.444L1720.41 176.444L1713.07 189.281Z" fill="#202021" fill-opacity="0.04"/>
<path d="M349.392 418.835L342.054 405.998L356.73 405.998L349.392 418.835Z" fill="#202021" fill-opacity="0.04"/>
<path d="M576.671 418.835L569.333 405.998L584.009 405.998L576.671 418.835Z" fill="#202021" fill-opacity="0.04"/>
<path d="M803.95 418.835L796.613 405.998L811.288 405.998L803.95 418.835Z" fill="#202021" fill-opacity="0.04"/>
<path d="M1031.23 418.835L1023.89 405.998L1038.57 405.998L1031.23 418.835Z" fill="#202021" fill-opacity="0.04"/>
<path d="M1258.51 418.835L1251.17 405.998L1265.85 405.998L1258.51 418.835Z" fill="#202021" fill-opacity="0.04"/>
<path d="M1485.79 418.835L1478.45 405.998L1493.13 405.998L1485.79 418.835Z" fill="#202021" fill-opacity="0.04"/>
<path d="M1713.07 418.835L1705.73 405.998L1720.41 405.998L1713.07 418.835Z" fill="#202021" fill-opacity="0.04"/>
<path d="M292.572 172.165L299.91 185.002H285.234L292.572 172.165Z" fill="#202021" fill-opacity="0.04"/>
<path d="M519.852 172.165L527.189 185.002H512.514L519.852 172.165Z" fill="#202021" fill-opacity="0.04"/>
<path d="M747.131 172.165L754.469 185.002H739.793L747.131 172.165Z" fill="#202021" fill-opacity="0.04"/>
<path d="M974.41 172.165L981.748 185.002H967.072L974.41 172.165Z" fill="#202021" fill-opacity="0.04"/>
<path d="M1201.69 172.165L1209.03 185.002H1194.35L1201.69 172.165Z" fill="#202021" fill-opacity="0.04"/>
<path d="M1428.97 172.165L1436.31 185.002H1421.63L1428.97 172.165Z" fill="#202021" fill-opacity="0.04"/>
<path d="M1656.25 172.165L1663.59 185.002H1648.91L1656.25 172.165Z" fill="#202021" fill-opacity="0.04"/>
<path d="M1883.53 172.165L1890.86 185.002H1876.19L1883.53 172.165Z" fill="#202021" fill-opacity="0.04"/>
<path d="M292.572 401.719L299.91 414.556H285.234L292.572 401.719Z" fill="#202021" fill-opacity="0.04"/>
<path d="M519.852 401.719L527.189 414.556H512.514L519.852 401.719Z" fill="#202021" fill-opacity="0.04"/>
<path d="M747.131 401.719L754.469 414.556H739.793L747.131 401.719Z" fill="#202021" fill-opacity="0.04"/>
<path d="M974.41 401.719L981.748 414.556H967.072L974.41 401.719Z" fill="#202021" fill-opacity="0.04"/>
<path d="M1201.69 401.719L1209.03 414.556H1194.35L1201.69 401.719Z" fill="#202021" fill-opacity="0.04"/>
<path d="M1428.97 401.719L1436.31 414.556H1421.63L1428.97 401.719Z" fill="#202021" fill-opacity="0.04"/>
<path d="M1656.25 401.719L1663.59 414.556H1648.91L1656.25 401.719Z" fill="#202021" fill-opacity="0.04"/>
<path d="M1883.53 401.719L1890.86 414.556H1876.19L1883.53 401.719Z" fill="#202021" fill-opacity="0.04"/>
<path d="M227.279 180.723L239.989 173.312L239.989 188.134L227.279 180.723Z" fill="#202021" fill-opacity="0.04"/>
<path d="M454.559 180.723L467.268 173.312L467.268 188.134L454.559 180.723Z" fill="#202021" fill-opacity="0.04"/>
<path d="M681.838 180.723L694.547 173.312L694.547 188.134L681.838 180.723Z" fill="#202021" fill-opacity="0.04"/>
<path d="M909.117 180.723L921.827 173.312L921.827 188.134L909.117 180.723Z" fill="#202021" fill-opacity="0.04"/>
<path d="M1136.4 180.723L1149.11 173.312L1149.11 188.134L1136.4 180.723Z" fill="#202021" fill-opacity="0.04"/>
<path d="M1363.68 180.723L1376.38 173.312L1376.38 188.134L1363.68 180.723Z" fill="#202021" fill-opacity="0.04"/>
<path d="M1590.95 180.723L1603.66 173.312L1603.66 188.134L1590.95 180.723Z" fill="#202021" fill-opacity="0.04"/>
<path d="M1818.23 180.723L1830.94 173.312L1830.94 188.134L1818.23 180.723Z" fill="#202021" fill-opacity="0.04"/>
<path d="M227.279 410.277L239.989 402.865L239.989 417.688L227.279 410.277Z" fill="#202021" fill-opacity="0.04"/>
<path d="M454.559 410.277L467.268 402.865L467.268 417.688L454.559 410.277Z" fill="#202021" fill-opacity="0.04"/>
<path d="M681.838 410.277L694.547 402.865L694.547 417.688L681.838 410.277Z" fill="#202021" fill-opacity="0.04"/>
<path d="M909.117 410.277L921.827 402.865L921.827 417.688L909.117 410.277Z" fill="#202021" fill-opacity="0.04"/>
<path d="M1136.4 410.277L1149.11 402.865L1149.11 417.688L1136.4 410.277Z" fill="#202021" fill-opacity="0.04"/>
<path d="M1363.68 410.277L1376.38 402.865L1376.38 417.688L1363.68 410.277Z" fill="#202021" fill-opacity="0.04"/>
<path d="M1590.95 410.277L1603.66 402.865L1603.66 417.688L1590.95 410.277Z" fill="#202021" fill-opacity="0.04"/>
<path d="M1818.23 410.277L1830.94 402.865L1830.94 417.688L1818.23 410.277Z" fill="#202021" fill-opacity="0.04"/>
<path d="M178.933 459.107L186.271 471.944H171.595L178.933 459.107Z" fill="#202021" fill-opacity="0.04"/>
<path d="M113.64 467.665L126.349 460.254L126.349 475.077L113.64 467.665Z" fill="#202021" fill-opacity="0.04"/>
<path d="M65.293 476.223L57.955 463.386L72.6309 463.386L65.293 476.223Z" fill="#202021" fill-opacity="0.04"/>
<path d="M16.9463 467.665L4.23659 475.076L4.23659 460.254L16.9463 467.665Z" fill="#202021" fill-opacity="0.04"/>
<path d="M187.406 525.054L174.696 532.465L174.696 517.642L187.406 525.054Z" fill="#202021" fill-opacity="0.04"/>
<path d="M122.113 516.496L129.451 529.332H114.775L122.113 516.496Z" fill="#202021" fill-opacity="0.04"/>
<path d="M56.8198 525.054L69.5295 517.642L69.5295 532.465L56.8198 525.054Z" fill="#202021" fill-opacity="0.04"/>
<path d="M1.01041e-07 525.054L12.7097 517.642L12.7097 532.465L1.01041e-07 525.054Z" fill="#202021" fill-opacity="0.04"/>
<path d="M178.933 591L171.595 578.163L186.271 578.163L178.933 591Z" fill="#202021" fill-opacity="0.04"/>
<path d="M130.586 582.442L117.876 589.854L117.876 575.031L130.586 582.442Z" fill="#202021" fill-opacity="0.04"/>
<path d="M65.293 573.884L72.6309 586.721H57.955L65.293 573.884Z" fill="#202021" fill-opacity="0.04"/>
<path d="M8.47313 573.884L15.8111 586.721H1.13518L8.47313 573.884Z" fill="#202021" fill-opacity="0.04"/>
<path d="M406.212 459.107L413.55 471.944H398.874L406.212 459.107Z" fill="#202021" fill-opacity="0.04"/>
<path d="M633.491 459.107L640.829 471.944H626.153L633.491 459.107Z" fill="#202021" fill-opacity="0.04"/>
<path d="M860.77 459.107L868.108 471.944H853.432L860.77 459.107Z" fill="#202021" fill-opacity="0.04"/>
<path d="M1088.05 459.107L1095.39 471.944H1080.71L1088.05 459.107Z" fill="#202021" fill-opacity="0.04"/>
<path d="M1315.33 459.107L1322.67 471.944H1307.99L1315.33 459.107Z" fill="#202021" fill-opacity="0.04"/>
<path d="M1542.61 459.107L1549.95 471.944H1535.27L1542.61 459.107Z" fill="#202021" fill-opacity="0.04"/>
<path d="M1769.89 459.107L1777.23 471.944H1762.55L1769.89 459.107Z" fill="#202021" fill-opacity="0.04"/>
<path d="M340.919 467.665L353.629 460.254L353.629 475.077L340.919 467.665Z" fill="#202021" fill-opacity="0.04"/>
<path d="M568.198 467.665L580.908 460.254L580.908 475.077L568.198 467.665Z" fill="#202021" fill-opacity="0.04"/>
<path d="M795.477 467.665L808.187 460.254L808.187 475.077L795.477 467.665Z" fill="#202021" fill-opacity="0.04"/>
<path d="M1022.76 467.665L1035.47 460.254L1035.47 475.077L1022.76 467.665Z" fill="#202021" fill-opacity="0.04"/>
<path d="M1250.04 467.665L1262.75 460.254L1262.75 475.077L1250.04 467.665Z" fill="#202021" fill-opacity="0.04"/>
<path d="M1477.32 467.665L1490.03 460.254L1490.03 475.077L1477.32 467.665Z" fill="#202021" fill-opacity="0.04"/>
<path d="M1704.59 467.665L1717.3 460.254L1717.3 475.077L1704.59 467.665Z" fill="#202021" fill-opacity="0.04"/>
<path d="M292.572 476.223L285.234 463.386L299.91 463.386L292.572 476.223Z" fill="#202021" fill-opacity="0.04"/>
<path d="M519.851 476.223L512.513 463.386L527.189 463.386L519.851 476.223Z" fill="#202021" fill-opacity="0.04"/>
<path d="M747.131 476.223L739.793 463.386L754.469 463.386L747.131 476.223Z" fill="#202021" fill-opacity="0.04"/>
<path d="M974.41 476.223L967.072 463.386L981.748 463.386L974.41 476.223Z" fill="#202021" fill-opacity="0.04"/>
<path d="M1201.69 476.223L1194.35 463.386L1209.03 463.386L1201.69 476.223Z" fill="#202021" fill-opacity="0.04"/>
<path d="M1428.97 476.223L1421.63 463.386L1436.31 463.386L1428.97 476.223Z" fill="#202021" fill-opacity="0.04"/>
<path d="M1656.25 476.223L1648.91 463.386L1663.59 463.386L1656.25 476.223Z" fill="#202021" fill-opacity="0.04"/>
<path d="M1883.53 476.223L1876.19 463.386L1890.86 463.386L1883.53 476.223Z" fill="#202021" fill-opacity="0.04"/>
<path d="M244.226 467.665L231.516 475.076L231.516 460.254L244.226 467.665Z" fill="#202021" fill-opacity="0.04"/>
<path d="M471.505 467.665L458.795 475.076L458.795 460.254L471.505 467.665Z" fill="#202021" fill-opacity="0.04"/>
<path d="M698.784 467.665L686.074 475.076L686.074 460.254L698.784 467.665Z" fill="#202021" fill-opacity="0.04"/>
<path d="M926.063 467.665L913.353 475.076L913.353 460.254L926.063 467.665Z" fill="#202021" fill-opacity="0.04"/>
<path d="M1153.34 467.665L1140.63 475.076L1140.63 460.254L1153.34 467.665Z" fill="#202021" fill-opacity="0.04"/>
<path d="M1380.62 467.665L1367.91 475.076L1367.91 460.254L1380.62 467.665Z" fill="#202021" fill-opacity="0.04"/>
<path d="M1607.9 467.665L1595.19 475.076L1595.19 460.254L1607.9 467.665Z" fill="#202021" fill-opacity="0.04"/>
<path d="M1835.18 467.665L1822.47 475.076L1822.47 460.254L1835.18 467.665Z" fill="#202021" fill-opacity="0.04"/>
<path d="M414.685 525.054L401.975 532.465L401.975 517.642L414.685 525.054Z" fill="#202021" fill-opacity="0.04"/>
<path d="M641.964 525.054L629.255 532.465L629.255 517.642L641.964 525.054Z" fill="#202021" fill-opacity="0.04"/>
<path d="M869.243 525.054L856.534 532.465L856.534 517.642L869.243 525.054Z" fill="#202021" fill-opacity="0.04"/>
<path d="M1096.52 525.054L1083.81 532.465L1083.81 517.642L1096.52 525.054Z" fill="#202021" fill-opacity="0.04"/>
<path d="M1323.8 525.054L1311.09 532.465L1311.09 517.642L1323.8 525.054Z" fill="#202021" fill-opacity="0.04"/>
<path d="M1551.08 525.054L1538.37 532.465L1538.37 517.642L1551.08 525.054Z" fill="#202021" fill-opacity="0.04"/>
<path d="M1778.36 525.054L1765.65 532.465L1765.65 517.642L1778.36 525.054Z" fill="#202021" fill-opacity="0.04"/>
<path d="M349.392 516.496L356.73 529.332H342.054L349.392 516.496Z" fill="#202021" fill-opacity="0.04"/>
<path d="M576.671 516.496L584.009 529.332H569.333L576.671 516.496Z" fill="#202021" fill-opacity="0.04"/>
<path d="M803.95 516.496L811.288 529.332H796.612L803.95 516.496Z" fill="#202021" fill-opacity="0.04"/>
<path d="M1031.23 516.496L1038.57 529.332H1023.89L1031.23 516.496Z" fill="#202021" fill-opacity="0.04"/>
<path d="M1258.51 516.496L1265.85 529.332H1251.17L1258.51 516.496Z" fill="#202021" fill-opacity="0.04"/>
<path d="M1485.79 516.496L1493.13 529.332H1478.45L1485.79 516.496Z" fill="#202021" fill-opacity="0.04"/>
<path d="M1713.07 516.496L1720.41 529.332H1705.73L1713.07 516.496Z" fill="#202021" fill-opacity="0.04"/>
<path d="M284.099 525.054L296.809 517.642L296.809 532.465L284.099 525.054Z" fill="#202021" fill-opacity="0.04"/>
<path d="M511.378 525.054L524.088 517.642L524.088 532.465L511.378 525.054Z" fill="#202021" fill-opacity="0.04"/>
<path d="M738.658 525.054L751.367 517.642L751.367 532.465L738.658 525.054Z" fill="#202021" fill-opacity="0.04"/>
<path d="M965.937 525.054L978.647 517.642L978.647 532.465L965.937 525.054Z" fill="#202021" fill-opacity="0.04"/>
<path d="M1193.22 525.054L1205.93 517.642L1205.93 532.465L1193.22 525.054Z" fill="#202021" fill-opacity="0.04"/>
<path d="M1420.5 525.054L1433.2 517.642L1433.2 532.465L1420.5 525.054Z" fill="#202021" fill-opacity="0.04"/>
<path d="M1647.77 525.054L1660.48 517.642L1660.48 532.465L1647.77 525.054Z" fill="#202021" fill-opacity="0.04"/>
<path d="M1875.05 525.054L1887.76 517.642L1887.76 532.465L1875.05 525.054Z" fill="#202021" fill-opacity="0.04"/>
<path d="M227.279 525.054L239.989 517.642L239.989 532.465L227.279 525.054Z" fill="#202021" fill-opacity="0.04"/>
<path d="M454.559 525.054L467.268 517.642L467.268 532.465L454.559 525.054Z" fill="#202021" fill-opacity="0.04"/>
<path d="M681.838 525.054L694.547 517.642L694.547 532.465L681.838 525.054Z" fill="#202021" fill-opacity="0.04"/>
<path d="M909.117 525.054L921.827 517.642L921.827 532.465L909.117 525.054Z" fill="#202021" fill-opacity="0.04"/>
<path d="M1136.4 525.054L1149.11 517.642L1149.11 532.465L1136.4 525.054Z" fill="#202021" fill-opacity="0.04"/>
<path d="M1363.68 525.054L1376.38 517.642L1376.38 532.465L1363.68 525.054Z" fill="#202021" fill-opacity="0.04"/>
<path d="M1590.95 525.054L1603.66 517.642L1603.66 532.465L1590.95 525.054Z" fill="#202021" fill-opacity="0.04"/>
<path d="M1818.23 525.054L1830.94 517.642L1830.94 532.465L1818.23 525.054Z" fill="#202021" fill-opacity="0.04"/>
<path d="M406.212 591L398.874 578.163L413.55 578.163L406.212 591Z" fill="#202021" fill-opacity="0.04"/>
<path d="M633.491 591L626.153 578.163L640.829 578.163L633.491 591Z" fill="#202021" fill-opacity="0.04"/>
<path d="M860.77 591L853.432 578.163L868.108 578.163L860.77 591Z" fill="#202021" fill-opacity="0.04"/>
<path d="M1088.05 591L1080.71 578.163L1095.39 578.163L1088.05 591Z" fill="#202021" fill-opacity="0.04"/>
<path d="M1315.33 591L1307.99 578.163L1322.67 578.163L1315.33 591Z" fill="#202021" fill-opacity="0.04"/>
<path d="M1542.61 591L1535.27 578.163L1549.95 578.163L1542.61 591Z" fill="#202021" fill-opacity="0.04"/>
<path d="M1769.89 591L1762.55 578.163L1777.23 578.163L1769.89 591Z" fill="#202021" fill-opacity="0.04"/>
<path d="M357.865 582.442L345.155 589.854L345.155 575.031L357.865 582.442Z" fill="#202021" fill-opacity="0.04"/>
<path d="M585.144 582.442L572.435 589.854L572.435 575.031L585.144 582.442Z" fill="#202021" fill-opacity="0.04"/>
<path d="M812.424 582.442L799.714 589.854L799.714 575.031L812.424 582.442Z" fill="#202021" fill-opacity="0.04"/>
<path d="M1039.7 582.442L1026.99 589.854L1026.99 575.031L1039.7 582.442Z" fill="#202021" fill-opacity="0.04"/>
<path d="M1266.98 582.442L1254.27 589.854L1254.27 575.031L1266.98 582.442Z" fill="#202021" fill-opacity="0.04"/>
<path d="M1494.26 582.442L1481.55 589.854L1481.55 575.031L1494.26 582.442Z" fill="#202021" fill-opacity="0.04"/>
<path d="M1721.54 582.442L1708.83 589.854L1708.83 575.031L1721.54 582.442Z" fill="#202021" fill-opacity="0.04"/>
<path d="M292.572 573.884L299.91 586.721H285.234L292.572 573.884Z" fill="#202021" fill-opacity="0.04"/>
<path d="M519.852 573.884L527.189 586.721H512.514L519.852 573.884Z" fill="#202021" fill-opacity="0.04"/>
<path d="M747.131 573.884L754.469 586.721H739.793L747.131 573.884Z" fill="#202021" fill-opacity="0.04"/>
<path d="M974.41 573.884L981.748 586.721H967.072L974.41 573.884Z" fill="#202021" fill-opacity="0.04"/>
<path d="M1201.69 573.884L1209.03 586.721H1194.35L1201.69 573.884Z" fill="#202021" fill-opacity="0.04"/>
<path d="M1428.97 573.884L1436.31 586.721H1421.63L1428.97 573.884Z" fill="#202021" fill-opacity="0.04"/>
<path d="M1656.25 573.884L1663.59 586.721H1648.91L1656.25 573.884Z" fill="#202021" fill-opacity="0.04"/>
<path d="M1883.53 573.884L1890.86 586.721H1876.19L1883.53 573.884Z" fill="#202021" fill-opacity="0.04"/>
<path d="M235.752 573.884L243.09 586.721H228.414L235.752 573.884Z" fill="#202021" fill-opacity="0.04"/>
<path d="M463.032 573.884L470.37 586.721H455.694L463.032 573.884Z" fill="#202021" fill-opacity="0.04"/>
<path d="M690.311 573.884L697.649 586.721H682.973L690.311 573.884Z" fill="#202021" fill-opacity="0.04"/>
<path d="M917.59 573.884L924.928 586.721H910.252L917.59 573.884Z" fill="#202021" fill-opacity="0.04"/>
<path d="M1144.87 573.884L1152.21 586.721H1137.53L1144.87 573.884Z" fill="#202021" fill-opacity="0.04"/>
<path d="M1372.15 573.884L1379.49 586.721H1364.81L1372.15 573.884Z" fill="#202021" fill-opacity="0.04"/>
<path d="M1599.43 573.884L1606.77 586.721H1592.09L1599.43 573.884Z" fill="#202021" fill-opacity="0.04"/>
<path d="M1826.71 573.884L1834.04 586.721H1819.37L1826.71 573.884Z" fill="#202021" fill-opacity="0.04"/>
</svg>
