<svg width="393" height="134" viewBox="0 0 393 134" fill="none" xmlns="http://www.w3.org/2000/svg">
<path d="M181.356 26.1264C157.786 21.0507 134.126 16.5562 109.536 16.1759C93.7281 15.9314 77.5875 17.3068 62.1703 19.9915C48.2966 22.4074 32.8116 26.5174 23.6132 35.5159C7.46548 51.3127 13.6869 75.5847 31.3631 88.8226C49.2077 102.187 73.0692 111.09 96.2508 117.253C139.643 128.789 187.416 133.511 233.15 131.58C267.216 130.142 299.757 123.644 330.193 111.642C350.705 103.553 372.456 93.0885 384.25 77.1512C391.827 66.9129 392.994 54.9447 387.908 43.8579C381.215 29.2662 365.345 21.5329 347.714 15.8766C326.913 9.2031 304.673 5.77609 282.345 4.0556C228.432 -0.098833 172.474 1.86677 119.693 11.5746C76.1705 19.5797 35.6354 33.5553 2 56.4271" stroke="#5928DC" stroke-width="3" stroke-linecap="round"/>
</svg>
